<?xml version="1.0" standalone="no"?>
<!DOCTYPE svg PUBLIC "-//W3C//DTD SVG 20010904//EN"
 "http://www.w3.org/TR/2001/REC-SVG-20010904/DTD/svg10.dtd">
<svg version="1.0" xmlns="http://www.w3.org/2000/svg"
 width="200.000000pt" height="200.000000pt" viewBox="0 0 200.000000 200.000000"
 preserveAspectRatio="xMidYMid meet">
<metadata>
Created by potrace 1.11, written by Peter Selinger 2001-2013
</metadata>
<g transform="translate(0.000000,200.000000) scale(0.100000,-0.100000)"
fill="#000000" stroke="none">
<path d="M320 1278 c1 -765 4 -828 48 -914 53 -104 178 -173 315 -174 l37 0 0
905 0 905 -200 0 -200 0 0 -722z"/>
<path d="M1350 1452 l-125 -4 -249 -280 c-241 -271 -249 -282 -235 -304 8 -13
120 -142 249 -288 l235 -265 194 0 195 -1 -31 33 c-73 75 -473 532 -473 538 0
4 113 134 250 288 138 154 250 283 250 286 0 3 -30 4 -67 3 -38 -1 -124 -4
-193 -6z"/>
<path d="M320 64 c0 -48 3 -65 13 -62 6 3 13 17 15 31 4 35 14 34 35 -3 10
-16 25 -30 33 -30 10 0 7 11 -12 40 l-27 41 23 24 c18 19 20 25 8 25 -8 0 -23
-9 -33 -20 -10 -11 -21 -20 -26 -20 -4 0 -5 9 -2 20 4 14 0 20 -11 20 -13 0
-16 -12 -16 -66z"/>
<path d="M450 65 l0 -65 45 0 c25 0 45 5 45 10 0 6 -16 10 -35 10 -28 0 -35 4
-35 20 0 16 7 20 30 20 17 0 30 5 30 10 0 6 -13 10 -30 10 -20 0 -30 5 -30 15
0 10 11 15 35 15 19 0 35 5 35 10 0 6 -20 10 -45 10 l-45 0 0 -65z"/>
<path d="M561 118 c1 -27 36 -112 46 -115 11 -4 57 116 49 125 -10 10 -24 -10
-30 -43 -10 -50 -22 -51 -36 0 -11 41 -31 63 -29 33z"/>
<path d="M680 65 c0 -37 4 -65 10 -65 6 0 10 28 10 65 0 37 -4 65 -10 65 -6 0
-10 -28 -10 -65z"/>
<path d="M730 65 c0 -37 4 -65 10 -65 6 0 10 21 10 46 0 52 11 51 40 -7 32
-61 50 -52 50 26 0 37 -4 65 -10 65 -5 0 -10 -18 -10 -40 0 -22 -3 -40 -7 -40
-5 0 -18 18 -31 40 -35 61 -52 53 -52 -25z"/>
<path d="M910 65 c0 -75 17 -88 22 -17 l4 47 13 -48 c7 -26 19 -47 25 -47 7 0
18 21 26 48 l14 47 4 -47 c5 -71 22 -58 22 17 0 57 -2 65 -19 65 -14 0 -22
-12 -30 -45 -6 -25 -13 -45 -16 -45 -3 0 -10 20 -16 45 -8 33 -16 45 -30 45
-17 0 -19 -8 -19 -65z"/>
<path d="M1070 77 c0 -57 12 -77 45 -77 33 0 45 20 45 77 0 69 -18 69 -22 1
-3 -45 -6 -53 -23 -53 -17 0 -20 8 -23 53 -4 68 -22 68 -22 -1z"/>
<path d="M1190 66 c0 -37 4 -66 10 -66 6 0 10 11 10 24 0 30 13 40 40 31 13
-4 20 -15 20 -31 0 -13 4 -24 9 -24 6 0 9 28 8 63 l-2 62 -47 3 -48 3 0 -65z
m78 27 c-2 -12 -12 -18 -28 -18 -16 0 -26 6 -28 18 -3 13 3 17 28 17 25 0 31
-4 28 -17z"/>
<path d="M1320 65 c0 -37 4 -65 10 -65 6 0 10 11 10 25 0 20 5 25 24 25 14 0
32 7 40 16 19 18 19 20 6 45 -8 14 -21 19 -50 19 l-40 0 0 -65z m70 25 c0 -15
-7 -20 -25 -20 -18 0 -25 5 -25 20 0 15 7 20 25 20 18 0 25 -5 25 -20z"/>
<path d="M1440 65 c0 -37 4 -65 10 -65 6 0 10 13 10 30 0 27 3 30 30 30 27 0
30 -3 30 -30 0 -17 5 -30 10 -30 6 0 10 28 10 65 0 37 -4 65 -10 65 -5 0 -10
-11 -10 -25 0 -21 -5 -25 -30 -25 -25 0 -30 4 -30 25 0 14 -4 25 -10 25 -6 0
-10 -28 -10 -65z"/>
<path d="M1579 96 c12 -18 21 -47 21 -65 0 -17 5 -31 10 -31 6 0 10 11 10 25
0 13 9 39 20 57 22 37 25 48 10 48 -5 0 -16 -12 -24 -27 l-14 -28 -13 28 c-7
15 -19 27 -26 27 -11 0 -10 -8 6 -34z"/>
<path d="M860 15 c0 -9 5 -15 11 -13 6 2 11 8 11 13 0 5 -5 11 -11 13 -6 2
-11 -4 -11 -13z"/>
</g>
</svg>
