<?xml version="1.0" encoding="utf-8"?>
<!-- Generator: Adobe Illustrator 24.2.3, SVG Export Plug-In . SVG Version: 6.00 Build 0)  -->
<svg version="1.1" id="レイヤー_1" xmlns="http://www.w3.org/2000/svg" xmlns:xlink="http://www.w3.org/1999/xlink" x="0px"
	 y="0px" viewBox="0 0 280 180" style="enable-background:new 0 0 280 180;" xml:space="preserve">
<g>
	<path d="M27.02,17.56l1.23-0.79l0.1-0.1c0.15-0.05,0.3-0.15,0.39-0.25l0.3-0.2l0.3-0.1l0.74-0.59l0.1-0.1l0.15-0.05l0.2-0.25
		l0.3-0.15l0.25-0.2l0.3-0.15l0.4-0.25l0.05-0.15l0.4-0.2l0.74-0.2l0.54-0.44l0.3-0.05l0.3-0.1v-0.1h0.05v0.1h0.2l0.05,0.05
		l0.25-0.15l3.01-1.38l0.1-0.1l-0.3,0.1v-0.15l0.3-0.2h0.3v0.2l0.79-0.44l0.59-0.35l0.15-0.15l0.49-0.3l1.23-0.25l0.84-0.4
		l0.44-0.05l0.25-0.15l0.15-0.05v-0.1h0.05v0.1c0.39-0.2,0.94-0.35,1.38-0.49v-0.1l0.2-0.3h0.44l0.64-0.1
		c1.28-0.44,2.52-0.84,3.85-1.23l0.79-0.44l1.04-0.2l2.02-0.64l1.38-0.4l0.64-0.05l0.94-0.2h1.09l0.59-0.1l0.79-0.1h0.49
		c1.13-0.15,2.37-0.25,3.5-0.3l0.35-0.05l0.15-0.15l0.05,0.05l0.3,0.1h0.94l0.1-0.05h0.05l0.2-0.05l0.54-0.1l0.84,0.1h0.05
		l0.25,0.05l0.89-0.1l0.35,0.05l0.2,0.05l0.2-0.05l0.05-0.05h0.1l-0.1,0.15h0.15c1.09,0.05,2.17,0.3,3.06,0.69l0.15,0.05l0.3-0.1
		l0.15,0.05l0.2,0.35l0.3,0.2l0.69,0.59L73.9,7.3l0.05,0.35v0.15c0.2,0.44,0.35,0.94,0.39,1.43l0.25,0.69v0.44
		c-0.2,0.25-0.25,0.25-0.25,0.15l-0.2,0.2l-0.2,0.1c-0.05,0.3-0.2,0.44-0.35,0.64l-0.05,0.05l0.05,0.59l-0.3,0.64l-0.74,1.09
		l-1.09,0.49l-0.3,0.05l-0.05-0.15v-0.54l0.2-0.3c0-0.05-0.1,0-0.1-0.05l-0.15,0.1l-0.2,0.1h-0.15c-0.05,0.05-0.05,0.05-0.05,0
		l-0.15-0.05l-0.2-0.3v-0.35l0.15-0.59l0.39-0.59l0.05-0.35l0.54-0.25l0.15-0.2l0.25-0.15v-0.2l0.15-0.35l-0.05-0.25l0.1-0.3
		l0.3-0.1h0.1v-0.1l-0.15-0.2l-0.2-0.15l-0.1-0.1v-0.1l-0.05-0.1l0.05-0.3V7.94l-0.05-0.05l-0.15-0.1l-0.2-0.39l-0.35-0.25
		l-0.2-0.25V6.7l-0.2-0.1c-0.79-0.35-1.73-0.49-2.67-0.54h-0.15l-0.2,0.1l-0.79,0.05h-0.25l-0.64-0.2l-0.1-0.05
		c-1.38-0.05-2.52-0.05-3.65-0.05H62.4l-1.63,0.35l-0.54,0.05l-0.49,0.15l-1.83,0.2L56.18,7.1l-0.79,0.05l-1.18,0.2h-0.39
		l-1.04,0.25l-0.39,0.1L50.8,7.94l-0.39,0.15l-0.49,0.25l-0.69-0.05l-0.74,0.05c-0.05,0.05-0.15,0.05-0.2,0.05l-2.02,0.64
		c-0.84,0.3-1.73,0.69-3.21,1.33l-0.05,0.05l-0.69,0.35l-0.34,0.05h-0.05l-1.33,0.59l-0.1,0.1v0.15h-0.15v-0.15l-3.16,1.58
		l-1.33,0.84l-0.54,0.25l-0.54,0.3l-1.78,0.94l-1.73,1.09l-0.69,0.3l-1.09,0.69l-0.49,0.2l-0.84,0.54l-0.49,0.15l-1.38,0.89
		l-0.44,0.4l-0.44,0.44l-0.69,0.25l-0.05,0.05l-2.66,1.97l-0.15,0.2l-0.2,0.2l-0.89,0.69l-0.39,0.35l-0.39,0.25l-0.1,0.1l-0.59,0.49
		l-0.15,0.25l-1.09,0.84l-0.2,0.2c-0.39,0.35-0.89,0.79-1.38,1.28l-0.3,0.44l-0.44,0.25c-0.94,0.94-2.07,2.07-3.16,3.31l-0.49,0.54
		l-1.28,1.73l-0.25,0.3l-0.25,0.25l-0.74,0.99l-0.99,1.28l-0.54,0.79l-0.69,0.94l-0.25,0.4l-0.69,0.94
		c-0.49,0.89-0.94,1.73-1.28,2.62l-0.3,0.94l-0.15,0.25l-0.15,0.35l-0.05,0.05L4.22,44.6L4.17,45.1l-0.05,0.2v0.3l-0.15,0.69
		c-0.05,0.3,0,0.64,0,0.94l0.05,0.25v0.49l0.1,0.44v0.3c0.1,0.4,0.2,0.79,0.35,1.13l0.1,0.1l0.1,0.3v0.05l0.25,0.3l0.25,0.49v0.1
		l0.3,0.39l0.2,0.1l0.49,0.74c0.05,0,0.1,0.05,0.1,0.1l0.44,0.05l0.1,0.2h0.15l0.05,0.25l0.15,0.25l0.05,0.05l0.3,0.2l0.25,0.05
		l0.59-0.15l0.2,0.15l0.2,0.05l0.15,0.15l0.25,0.49l0.25,0.25l0.3-0.05l0.69,0.25l0.15,0.25l0.1,0.15l0.1,0.05l1.18,0.35l0.39-0.15
		l0.89,0.05l0.3,0.25l0.2,0.25l3.26,0.3l0.39-0.05h0.05l0.94,0.1l1.33,0.1h0.79l0.54,0.1L21,56.45h0.2l0.25,0.05h0.69l3.5-0.25
		l0.2-0.05h0.3c0.3-0.05,0.54-0.05,0.79-0.05l0.49-0.25l0.84-0.1l0.3-0.1l0.74,0.2l0.25,0.1h0.3c1.58-0.2,3.16-0.49,4.64-0.74
		l0.39-0.15l0.64-0.1l0.49-0.2l1.92-0.39l1.92-0.59l0.69-0.15l1.78-0.39l0.94-0.35h0.49l1.53-0.49l0.59-0.4l1.08-0.15l0.3-0.05
		l0.49-0.1l1.97-0.49l0.15-0.2l1.33-0.35l0.35-0.1l0.15-0.15l0.25,0.05l0.84-0.3l0.49-0.2l0.44-0.15l0.39-0.05l0.49-0.2h0.05
		l0.25-0.1l1.33-0.44l0.59-0.3l0.34-0.1l0.3-0.15l0.64-0.15l3.85-1.43l0.64-0.3l0.54-0.15l0.05-0.05c0.84-0.25,1.58-0.59,2.37-0.89
		l0.15-0.1l0.69-0.3l0.15-0.1l0.05-0.05h0.3l0.3-0.2l0.1-0.05h0.3l0.05,0.25v0.25l-0.15,0.15h-0.39l-0.69,0.25l-0.25,0.25
		l-1.28,0.49l-0.05,0.05l-0.4,0.15l-1.43,0.54v0.05l-0.15,0.1l-0.54,0.35l-0.64,0.25l-0.44,0.2h-0.15l-0.64,0.25l-0.2,0.05
		l-0.54,0.25l-0.1,0.1h-0.05c-0.44,0.2-0.84,0.35-1.18,0.54l-0.35,0.15l-0.44,0.35l-0.4,0.1l-3.36,1.18l-0.15,0.1l-1.33,0.44h-0.34
		l-1.33,0.44l-0.2,0.1c-0.1,0-0.1,0-0.2,0.05l-0.59,0.25l-0.54,0.15l-0.2,0.2l-0.49,0.2l-0.99,0.05l-2.76,0.79h-0.05
		c-0.44,0.15-1.04,0.25-1.48,0.39l-0.3,0.2l-0.15-0.05l-0.59,0.15h-0.15c-0.05,0-0.05,0.05-0.1,0.05h-0.2l-0.05,0.05l-0.69,0.2
		l-0.64,0.2l-1.09,0.35l-0.15-0.1h-0.05l-0.15,0.15l-0.54,0.05l-0.3,0.15l-0.49,0.1l-0.15,0.25l-0.2,0.25l-0.2-0.1l-0.39,0.05
		l-0.54,0.05l-0.49,0.05h-1.14l-1.53,0.3v0.15l-0.3,0.1l-0.25-0.1v-0.05c-0.1,0-0.2,0-0.35,0.05h-0.05l-0.79,0.1l-0.25,0.1
		l-0.3,0.15l-0.49,0.2l-1.28-0.05L28,57.33l-0.25-0.05l-0.54,0.05l0.05,0.2h-1.04c-0.05,0-0.15,0-0.2,0.05l-0.35,0.15l-0.44-0.05
		l-1.14,0.15l-0.05,0.05h-0.05c-1.58,0.2-2.96,0.3-2.96,0.3H21l-0.35,0.1l-0.94,0.3l-0.94,0.05l-0.59,0.1l-0.25-0.2h-0.25l-1.08-0.1
		l-0.54-0.39h-0.35l-1.53-0.35l-0.35-0.2l-0.79-0.2l-0.49,0.05l-0.54-0.3l-0.34-0.2c-0.1,0-0.15-0.05-0.2-0.05h-0.49l-0.3-0.1h-0.2
		l-0.05,0.25H9.89l-0.1,0.2l-0.54-0.1l-0.1-0.1l-0.34-0.1l-0.2-0.05l-0.1-0.05l-0.15,0.05l-0.64-0.25l-0.59-0.49l-0.4-0.25v-0.2
		h0.05l-0.59-0.4l-0.1,0.05l-0.25-0.49l-0.2-0.44v-0.25l-0.49-0.64v-0.2h0.05l-0.35-0.39l-0.1-0.1L4.61,52.4v-0.05L4.47,52.2
		l-0.15-0.1l-0.05-0.2l-0.05-0.1c-0.25-0.4-0.39-0.79-0.54-1.18l-0.15-0.3l-0.05-0.3l-0.2-0.69l-0.05-0.1l0.1-0.64
		c-0.05-1.28,0.05-2.62-0.2-3.65v-0.2l-0.05-0.39l0.05-0.15c0.05-0.54,0.25-1.04,0.44-1.58v-0.05l0.05-0.15l0.1-0.39l0.3-0.44
		c0.44-0.84,0.94-1.63,1.23-2.52c0.1-0.25,0.2-0.54,0.35-0.79l0.05-0.15L6.29,37l0.1-0.2l1.38-2.02l0.99-1.09l1.09-1.18l1.68-2.07
		l0.2-0.25l0.94-0.99l0.54-0.35l0.79-0.79l0.39-0.54l0.05-0.2l0.2-0.2l0.54-0.39l0.39-0.44l1.18-1.04l1.23-1.09l0.44-0.2l1.04-0.84
		v-0.1l0.05-0.1l0.3-0.1l0.15-0.1V22.4l0.15-0.1l0.44-0.15l1.09-0.79l0.94-0.69l0.2-0.2l0.54-0.35l0.25-0.25l0.74-0.49l0.89-0.69
		l0.84-0.44l0.74-0.54l0.05-0.05L27.02,17.56z"/>
	<path d="M89.42,40.11v0.35l-0.2,0.3l-0.05,0.05l-0.1,0.35l0.05,0.1l-0.15,0.25c-0.05,0.2-0.05,0.39-0.05,0.59l0.05,0.3l0.15,0.2
		l0.2,0.25l0.25,0.15l0.25,0.1c0.2,0,0.35-0.05,0.54-0.1l0.39-0.15l0.1-0.1H91l1.78-0.94l0.2-0.05l0.25-0.1l1.78-1.18
		c0.05,0,0.1-0.05,0.15-0.05l0.99-0.69l0.15-0.2h0.2l0.3-0.25l0.59-0.3l0.74-0.54l0.15-0.15l0.49-0.3l0.05-0.05l0.79-0.69
		c0.05-0.05,0.1-0.05,0.15-0.05l0.1-0.1l0.2-0.1l0.2,0.25v0.2l-0.15,0.1l-0.44,0.25l-0.69,0.44l-0.2,0.2l-0.59,0.44
		c-0.49,0.44-1.13,0.94-1.78,1.38l-0.44,0.4h-0.15l-0.25,0.2l-0.15,0.2l-0.1,0.05l-0.15,0.25l-0.3,0.2l-0.2,0.1l-0.3,0.25
		l-0.15,0.15l-0.49,0.3l-0.2,0.2l-0.3,0.1l-0.4,0.1l-0.1,0.1l-0.49,0.25l-0.79,0.59l-0.15,0.1L91,44.01l-0.15,0.1h-0.1l-0.15,0.1
		l-0.39,0.2l-0.34,0.1l-0.49,0.05c-0.3,0.1-0.49,0.2-0.64,0.2c-0.15,0-0.3,0-0.39-0.05l-0.3,0.05l-0.25-0.2l-0.1-0.15
		c0-0.05-0.05-0.05-0.05-0.05l-0.3-0.4v0.05l-0.2-0.3l0.05-0.94l0.05-0.89l0.05-0.35l-0.05-0.4l0.05-0.1l0.3-0.15l0.1-0.2l0.2-0.25
		l0.05-0.2l0.3-0.35l0.1-0.2l0.1-0.15l0.1-0.59l0.35-0.64c0.2-0.74,0.59-1.58,0.84-2.32l0.2-0.79c0.35-0.59,0.59-1.04,0.54-1.73
		l0.05-0.1l0.05-0.35l-0.25-0.25c-0.34,0-0.79,0.15-1.33,0.4l-0.74,0.4l-0.35,0.1l-0.54,0.3l-0.39,0.3l-0.1,0.1l-0.39,0.2l-0.35,0.3
		l-0.94,0.44l-0.25,0.1c-0.25,0.1-0.44,0.25-0.59,0.35l-0.15,0.15l-2.62,1.43l-0.25,0.35h-0.25l-0.15,0.25l-0.2,0.2l-0.34,0.39
		l-0.49,0.1l-0.79,0.74l-1.58,1.33l-1.28,1.09l-1.18,0.84l-0.25,0.15l-0.34,0.2l-0.3,0.3v0.15l-0.3-0.1l-0.79,0.4l-0.54,0.35
		l-0.49,0.1l-0.89,0.05l-0.2,0.2h-0.35l-0.25-0.25l-0.1-0.44l0.1-0.64l0.25-0.74l0.1-0.35l0.4-0.69l0.25-0.44l0.3-0.74l0.05-0.1
		l0.15-0.25L72,39.37l0.05-0.49l0.15-0.59l0.44-0.64l0.2-0.74l0.15-0.35l0.25-0.4l0.34-0.49l0.2-0.3l0.2-0.35l0.79-0.99l0.39-0.79
		l0.05-0.2l0.05-0.05l0.05-0.15l0.15-0.05l0.59-0.79l0.1-0.15l0.1-0.2h0.05l0.69-1.09l0.15-0.3l0.25-0.3l0.35-0.49l0.2-0.49l0.2-0.3
		l0.54-0.54c0.25-0.4,0.49-0.79,0.79-1.18l0.84-1.48l0.35-0.25c0.89-1.28,1.83-2.57,2.76-3.85l0.15-0.2l0.1-0.2l0.2-0.44l0.39-0.35
		l0.3-0.49l0.2-0.35l0.05-0.35l0.15-0.1l0.44-0.39l0.25-0.35l0.2-0.35l0.39-0.89l0.25-0.44l0.3-0.39l0.35-0.4l0.44-0.89l0.05-0.2
		l0.1-0.25l0.15-0.15v-0.15l0.25-0.44l0.05-0.05h0.05l0.15-0.25l0.15-0.2l0.1-0.05l0.05-0.1l0.35-0.49l0.35-0.44l0.2-0.3l0.1-0.05
		l-0.05,0.1l0.05-0.05v-0.05l0.15-0.35l0.05-0.2l0.35-0.3l0.15-0.3l0.15-0.2l0.1-0.15l0.59-0.74l0.25-0.44l0.2-0.44l0.1-0.2l0.1-0.3
		l0.15-0.2l-0.05-0.3l0.05-0.15l0.39-0.1l0.59-0.49l0.25-0.4l0.69-0.59l0.3-0.4l0.2-0.3v-0.2l0.2-0.15l0.05,0.3l0.39-0.44l0.39-0.2
		l0.39,0.39l0.15,0.64L95.19,7.4l-1.18,1.58l-0.44,0.49l-1.08,1.04l-0.54,0.4l-2.07,2.96l0.05,0.05l-0.25,0.39l-0.34,0.59
		l-0.25,0.44l-0.3,0.3l-0.44,0.4l-1.92,2.62v0.2l-0.44,0.69l-0.2,0.35l-0.25,0.2l-0.3,0.4l-0.44,0.69l-1.18,1.38l-0.05,0.35
		l-0.74,0.74l-0.44,0.59l-0.1,0.3l-0.69,0.94l-0.49,0.84l-0.39,0.35L78.41,30c-0.44,0.69-0.89,1.38-1.38,2.07l-0.05,0.2l-0.1,0.1
		l-0.15,0.2c-0.49,0.74-0.99,1.48-1.43,2.27l-0.05,0.1l-0.1,0.05l-0.44,0.79v0.4l-0.49,0.99l-0.3,0.89l-0.59,1.33l-0.35,0.89
		l-0.1,0.49l-0.35,0.69l-0.1,0.69l0.2,0.3l0.2,0.1h0.25l0.64-0.35l0.3-0.3l0.1-0.05l0.15-0.2l0.34-0.15l0.2-0.25l0.3-0.25l0.2-0.2
		l0.54-0.3l0.2-0.1l0.39-0.3l1.53-0.94l0.4-0.35l0.2-0.15l0.3-0.3l0.2-0.1l0.64-0.35l1.63-1.18l0.1-0.15l0.39-0.39l0.79-0.39
		l0.59-0.4l0.15-0.05c0.54-0.39,1.09-0.74,1.63-1.09l0.64-0.64l0.39-0.25l0.15-0.2l0.25-0.05l0.15-0.15l0.39-0.3l0.44-0.1l1.13-0.3
		h0.2c0.84-0.3,1.68-0.3,2.62,0.1c0.1,0.05,0.2,0.1,0.2,0.2l0.25,0.15l0.4,0.25l0.1,0.3l-0.05,0.39l-0.3,0.64l-0.05,0.05
		c-0.39,0.74-0.69,1.53-0.99,2.27c-0.15,0.54-0.44,1.04-0.69,1.58v0.44l-0.44,0.64L89.42,40.11z"/>
	<path d="M118.26,39.42l0.05-0.1l0.1-0.15l0.89-1.09l0.2-0.39l0.15-0.15l0.05-0.1l0.15-0.1l0.59-0.64l0.2-0.25v-0.1l0.05,0.05
		l0.15-0.49l-0.05-0.05l-0.25-0.05h-0.44l-0.59,0.15l-1.43,0.54l-0.35,0.1l-0.25,0.05l-1.43,0.89h-0.05l-0.4,0.25l-0.34,0.15
		l-0.35,0.2l-1.13,0.54l-1.14,0.64l-0.44,0.2l-0.74,0.4l-0.25,0.1l-0.59,0.35l-0.3,0.1L109.43,41l-0.3,0.2l-0.3,0.25l-0.44,0.15
		l-0.44,0.2l-1.18,0.64l-0.1,0.1l-0.49,0.3h-0.1v0.05h-0.44l-0.59,0.25h-0.4c-0.15,0.1-0.34,0.15-0.49,0.2l-0.2,0.15l-0.99,0.35
		l-0.2,0.05l-0.74,0.3l-0.1,0.05l-0.15,0.05h-0.15l-0.3-0.05h-0.05c-0.79,0.1-1.43-0.05-1.63-0.59c-0.2-0.64,0-1.38,0.34-2.17
		l0.2-0.59l0.15-0.05l0.05-0.2l0.2-0.3l0.1-0.2l0.1-0.05v0.05l0.1-0.25l0.35-0.49l0.54-0.39l0.1-0.1l0.39-0.64l0.2-0.25l0.39-0.3
		l0.59-0.49l2.22-1.97v-0.05h0.05l0.64-0.54l0.15-0.15l0.84-0.69l0.39-0.25l1.28-0.94l0.05-0.05l0.59-0.64l0.25-0.25l0.2-0.35
		l0.1-0.05l0.35,0.05l0.15-0.1l0.35-0.1l0.2-0.05l0.25-0.05l0.2-0.15v-0.1l0.4-0.15l1.58-0.79l0.3-0.25l0.2-0.1l0.39-0.1l0.1,0.05
		l0.1-0.05l0.44-0.15h0.15l0.25-0.15l0.35-0.05l0.3-0.1l0.35-0.1l0.2-0.05l0.49,0.15l0.3-0.05h0.3l0.2,0.05h0.1v0.05h0.2l0.15,0.1
		l0.05,0.1l0.2,0.05l0.1,0.25v0.44l-0.15,0.1c-0.05,0.15-0.2,0.25-0.54,0.59c-0.15,0.1-0.3,0.05-0.35,0l-0.54,0.15l-0.34,0.05h-0.89
		l-0.79-0.1v0.05h-0.2v-0.05h-0.1l-0.34,0.05h-0.35l-0.69,0.3l-0.79,0.35l-1.13,0.49l-0.79,0.35c-0.3,0.15-0.54,0.35-0.84,0.54
		c-0.05,0.05-0.05,0.05-0.05,0l-0.44,0.35l-0.05,0.05l-0.1,0.05l-2.22,1.63l-0.2,0.2l-0.44,0.49l-0.35,0.35l-0.35,0.2l-0.44,0.25
		l-0.15,0.15L104.79,37l-0.1,0.1l-0.1,0.15L104,37.99l-0.15,0.1l-0.1,0.1l-0.15,0.1l-0.1,0.2l-0.15,0.2h-0.1l-0.1,0.25l-0.2,0.25
		l-0.1,0.2l-0.25,0.25l-0.25,0.3l-0.49,0.59v0.1l0.05,0.3l-0.05,0.1v0.1l-0.1,0.1l-0.2,0.15l-0.15,0.2l-0.25,0.3l-0.2,0.3v0.1
		l-0.05,0.1v0.3l0.1,0.15l0.15,0.25l0.15,0.1l1.04-0.4l0.44-0.1l0.69-0.25h0.05l0.25-0.05c0.64-0.25,1.28-0.54,1.92-0.84l0.25-0.15
		l0.34-0.2l0.25-0.2h0.39c0.54-0.25,1.14-0.49,1.68-0.79l0.25-0.2l0.35-0.15v-0.05l0.1-0.05l0.15-0.15l0.2-0.05l0.74-0.35l0.39-0.2
		l0.35-0.2l1.33-0.69l0.35-0.25l1.38-0.64l0.3-0.1l0.89-0.44l0.44-0.35l0.89-0.44l0.25-0.2l0.4-0.25l0.25-0.2l0.59-0.4l0.64-0.39
		l1.53-0.35h0.59l0.44,0.1l0.35,0.2l0.2,0.15c0.2,0.05,0.3,0.15,0.39,0.35v0.05l0.1,0.05v0.2l-0.05,0.15h0.1l-0.05,0.1l-0.05-0.05
		l-0.1,0.1l-0.1,0.15l-0.1,0.2l-0.3,0.25c-0.05,0.1-0.15,0.2-0.25,0.3l-0.35,0.54l-0.3,0.25l-0.15,0.05l-0.59,0.69l-0.1,0.1v0.05
		l-0.1,0.05l-0.3,0.4l-0.1,0.15l-0.1,0.2l-0.39,0.54c-0.1,0.1-0.15,0.25-0.2,0.35l-0.15,0.39l-0.05,0.05c-0.1,0.2-0.15,0.4-0.1,0.49
		c0,0.15-0.05,0.05,0.15,0.1c0.05,0,0.1,0.05,0.15,0.05l0.25-0.05h0.34l0.1-0.05h0.35l0.25-0.05l0.1,0.05
		c0.35-0.05,0.64-0.15,1.09-0.25l0.39-0.1l0.34-0.15h0.3l1.73-0.49l0.15-0.1l0.54-0.15v0.05l0.64-0.2l0.39-0.2l0.2-0.05l0.2-0.15
		l1.63-0.44v-0.1l0.15,0.1l0.44-0.15l0.15-0.15L131,37.5h0.25l1.23-0.4c0.05,0,0.1,0,0.15,0.05h0.1l0.05,0.35l-0.2,0.15h-0.39
		l-0.84,0.2l-0.59,0.3h-0.2l-0.79,0.2l-0.39,0.15l-1.14,0.54l-0.84,0.35l-0.94,0.3l-1.08,0.4l-0.2,0.1l-0.49,0.2l-0.25,0.15
		l-0.39,0.15h-0.05l-0.35,0.15l-0.39,0.25l-0.15,0.05l-0.1,0.1l-1.28,0.44v0.1l-0.05-0.05l-0.4,0.15l-0.05,0.1l-0.84,0.3l-0.74,0.25
		l-0.25,0.2l-0.05,0.05l-0.05-0.1l-0.15,0.05l-0.1,0.1l-0.1-0.05l-0.05,0.05l-0.35,0.1h-0.54l-0.1-0.05h-0.34l-0.25-0.1l-0.2-0.1
		l-0.15-0.2l0.05-0.25l-0.05-0.2c-0.05-0.2-0.05-0.35,0.05-0.64l0.15-0.35l0.05-0.2l0.35-0.44l0.15-0.25l0.39-0.49L118.26,39.42z"/>
	<path d="M136.75,39.37l-0.1,0.2l0.39-0.35l0.69-0.49l0.2-0.15l0.1-0.05h0.1v-0.05l0.39-0.15l-0.2-0.2h0.3l0.89-0.84h0.15l0.79-0.79
		l0.89-0.54l0.84-0.64l0.1-0.1h0.05l0.94-0.74l0.05-0.05l1.38-0.99v0.05l0.89-0.59l0.25-0.25l0.2-0.05l0.44-0.3l0.1-0.1h0.05
		l0.99-0.59l0.39-0.4l0.3-0.2l0.74-0.3l0.54-0.49l0.54-0.3l1.04-0.35l0.45-0.2c0.34-0.2,0.94-0.49,1.63-0.79l0.3-0.25l0.89-0.35
		l0.89-0.3l0.15-0.1l0.45-0.25l0.54-0.2l0.34-0.15l0.64-0.05c0.84-0.25,1.63-0.4,2.27-0.35l0.3-0.1l0.2,0.2
		c0.25,0.1,0.44,0.25,0.59,0.39c0.05,0.05,0.1,0.1,0.1,0.2l0.34,0.39l-0.1,1.28l-0.59,1.18l-0.59,0.2h-0.54l-0.3-0.35v-0.49
		l-0.25,0.2V29.5l0.1-0.05l0.05-0.25l-0.05-0.35l-0.1-0.64l-0.2-0.25l-0.74,0.1l-0.69,0.3l-0.25,0.05l-0.4-0.05l-0.54,0.25
		l-0.3,0.05l-1.97,0.39c-0.94,0.39-1.73,0.79-2.02,0.94l-0.29,0.15l-0.25,0.25l-1.97,1.04l-0.74,0.44l-0.3,0.3l-0.94,0.49
		l-0.25,0.15l-0.44,0.35l-0.74,0.49l-0.3,0.35l-1.43,0.94l-2.12,1.78l-0.3,0.44l-0.35,0.25l-0.64,0.69l-0.59,0.54l-0.2,0.1
		l-0.39,0.25l-0.35,0.35l-0.05,0.1l-0.39,0.35l-0.44,0.49l-0.25,0.25l-0.2,0.15l-0.49,0.49l-0.2,0.35l-0.2,0.15l-0.2,0.25
		l-0.49,0.44l-0.84,0.84l-0.25,0.39l-0.2,0.25l-0.25,0.44l-0.1,0.3l-0.05,0.1l-0.1,0.25l-0.29,0.3l-0.79,0.59l-0.49,0.35l-0.44-0.1
		l-0.25-0.35v-0.05c-0.1-0.15-0.15-0.3-0.1-0.49v-0.2l0.1-0.1l0.15-0.59l-0.1,0.1l-0.05-0.2l0.15-0.35l0.2-0.59l0.35-0.49l0.05-0.1
		v-0.1l0.2-0.15l0.15-0.25v-0.1l0.44-0.35h0.1l0.15-0.1l0.59-0.84l0.35-0.49l0.15-0.05l0.25-0.49l0.3-0.74l0.34-0.3l0.1-0.3
		l0.54-0.69l0.15-0.1l0.64-0.99v-0.2l0.84-1.04l0.49-0.84l0.2-0.3l0.25-0.44l0.05-0.15l0.1-0.1l0.35-0.49v-0.15l0.3-0.49l0.3-0.05
		l0.15,0.1l0.3-0.35l0.15-0.35l0.05-0.25v-0.15l-0.2-0.1l0.15-0.15l-0.05,0.1l0.15-0.2l-0.05-0.05l-0.2,0.25
		c-0.25,0.25-0.44,0-0.44-0.25l0.1-0.1v-0.1l0.05-0.15l0.15-0.25l0.05-0.1l-0.1-0.15l-0.05,0.05l-0.25-0.1v-0.15l0.1-0.1l0.2-0.05
		h-0.1l0.1-0.05h-0.1l-0.05-0.2l0.2-0.3l0.25,0.15l0.15-0.25v-0.2l0.05-0.15l-0.1-0.05l0.25-0.05v-0.25l0.1-0.05h0.1l0.2-0.2h0.25
		l0.35,0.05l0.25,0.05l0.2-0.1v-0.1l0.2-0.15l0.2,0.05h0.15l0.1,0.1l-0.05,0.05l-0.25,0.1c0.39,0.15,0.59,0.4,0.64,0.64l0.05,0.05
		l-0.05,0.15c0,0.59-0.49,1.28-1.04,1.92l0.05,0.1l-0.54,0.69l-0.3,0.05l-0.44,0.49l-0.2,0.25l-0.15,0.35h-0.05
		c-0.25,0.35-0.49,0.74-0.79,1.04c0,0.05-0.05,0-0.05,0l-0.29,0.44l-0.1,0.3l-0.2,0.35l-0.44,0.74l-0.3,0.35l-0.1,0.2l-0.3,0.49
		l-0.59,0.94l-0.35,0.74l-0.29,0.49l-0.25,0.25L136.75,39.37z"/>
	<path d="M169.71,41.54l-0.49,0.39l-0.69,0.3l-0.44,0.1l-0.25,0.15l-0.05,0.1l-0.15,0.1l-0.64,0.25l-0.44,0.2l-0.05,0.1l-0.15,0.1
		l-0.35,0.1l-0.74,0.4l-0.3,0.15l-0.74,0.49l-0.39,0.15l-0.29,0.15l-0.54,0.3l-0.45,0.2l-0.29,0.1l-0.79,0.15l-0.69,0.35l-0.59,0.1
		l-0.84-0.05l-0.54,0.15l-0.94-0.2c-0.49-0.15-0.89-0.4-1.13-0.79l-0.2-0.2l0.05-0.3c-0.05-0.4-0.05-0.84,0.15-1.33v-0.2l0.35-0.99
		l0.39-0.99l0.1-0.35l0.35-0.59l0.35-0.39l0.1-0.2l0.29-0.25c0.1-0.15,0.2-0.3,0.35-0.49l0.39-0.59l0.15-0.35l0.15-0.3l0.15-0.15
		l0.15-0.49l0.45-0.44l0.29-0.15l0.2-0.3l0.44-0.4l0.94-1.58l0.25-0.74l0.54-0.69l0.35-0.3l0.2-0.39l0.2-0.15l0.1-0.49v-0.25
		l0.25-0.39l0.35-0.25l0.15-0.1h0.1v-0.1l0.35-0.35l0.35-0.2c0.2-0.25,0.44-0.44,0.79-0.39c0.05,0,0.1,0.05,0.15,0.1l0.15-0.1
		l0.05-0.1l0.3-0.05l0.39,0.05l0.35,0.25v0.25l-0.1,0.54l-0.35,0.54l-0.49,0.54l-0.15,0.15l-0.2,0.15h-0.1l-0.29,0.1l-0.84,0.79
		l-0.1,0.25l-0.05,0.1l-0.69,0.69c-0.05,0.1-0.15,0.15-0.2,0.2l-0.05,0.3l-0.44,0.39l-0.35,0.49l-0.39,0.39l-0.1,0.2l-0.35,0.25
		l-0.2,0.35l-0.1,0.15l-0.59,0.69l-0.74,0.84l-0.35,0.49l-0.3,0.44l-0.54,0.94c-0.39,0.44-0.44,0.49-0.49,0.59l-0.35,0.89l-0.1,0.4
		l-0.39,0.84l-0.29,1.04v0.3l-0.1,0.59c0.1,0.44,0.15,0.49,0.15,0.54l0.2,0.1l0.29-0.05h0.15L159,44.9l0.3-0.1l0.29-0.05l0.2,0.1
		h0.25l1.04-0.25h0.15c0.25-0.1,0.54-0.15,0.84-0.25l0.25-0.15l0.59-0.35l0.45-0.25l0.99-0.25l0.79-0.3l0.44-0.1l1.73-0.84l0.1-0.2
		h0.3l0.89-0.44l0.05-0.05l0.1-0.15l0.4-0.2h0.15l0.15-0.2l0.3-0.1l0.39-0.2l0.49-0.3l0.44-0.25l0.54-0.4l0.15-0.15l0.59-0.35
		l0.25-0.1l0.2-0.15l1.04-0.59h0.15l0.34-0.25l0.25-0.1l0.25-0.15c0.1,0,0.1-0.05,0.15-0.05l0.25-0.25l0.35-0.15l0.2-0.2l0.35-0.2
		l0.49-0.25l0.25-0.15c0.39-0.25,0.84-0.54,1.38-0.84l0.1-0.2h0.15l0.15,0.05l0.15,0.3l-0.15,0.2l-0.15,0.1l-0.3,0.15l-0.1,0.15
		l-0.1-0.05h-0.05v0.1l-0.64,0.35h-0.15l-1.53,0.94l-0.44,0.35l-0.44,0.4l-0.45,0.15l-0.29,0.15c-0.94,0.64-1.83,1.23-2.67,1.73
		l-0.2,0.25l-0.15,0.1l-0.59,0.2l-0.15,0.1l-0.1,0.1L169.71,41.54z M173.95,18.84l-0.39,0.69l-0.2,0.25l-0.15,0.2v0.05l-0.49,0.1
		l-0.44,0.1l-0.4,0.15l-0.39,0.3l-0.05,0.05l-0.2,0.1l-0.25,0.4l-0.49,0.15l-0.39,0.74l-0.49,0.15l-0.2,0.25l-0.35,0.4v0.1
		l-0.54,0.35l-0.05-0.39l0.2-0.15c0-0.05,0.1-0.15,0.1-0.3l0.59-0.84l-0.1-0.39l0.35-0.74l0.15-0.3l0.49-0.59l0.35-0.4l0.1-0.05
		l0.54-0.54l0.2-0.25l0.39-0.25l0.3-0.4h0.05l0.2-0.2h-0.1l0.25-0.1v0.1l0.35-0.35l0.49-0.15l0.4,0.39l0.49,0.2l-0.15,0.54l0.1,0.25
		L173.95,18.84z"/>
	<path d="M201.84,30.39v0.1l0.05,0.15l-0.1,0.15l-0.05,0.2l0.1,0.2h0.05l-0.15,0.69l-0.39,0.25l-0.25,0.15l-0.45-0.25l-0.74-0.4
		l-0.35-0.1l-0.1-0.2h-0.2l0.1-0.25v-0.4l0.1-0.3l-0.05-0.44v-0.49l-0.1-0.1l-0.05-0.2l-0.35-0.15h-0.25l-0.4-0.15l-0.64-0.05
		c-1.53,0.15-0.89-0.25-2.71,0.25l-0.59,0.3l-0.2-0.05l-1.48,0.3l-1.04,0.49l-0.84,0.35l-0.54,0.3l-0.39,0.15l-0.59,0.15l-0.84,0.4
		l-0.25,0.1l-1.33,0.64l-0.74,0.49l-0.05,0.1l-0.79,0.44l-0.29,0.25l-0.2,0.15l-0.3,0.2l-0.29,0.3l-0.3,0.44l-0.39,0.25l-0.25,0.25
		l-0.54,0.35c-0.3,0.35-0.45,0.64-0.49,0.94c-0.15,0.49,0,0.15,0.25,0.44L182.6,37l0.35,0.2l0.25,0.4l0.15,0.25h0.05
		c0.3,0.2,0.59,0.3,0.84,0.44l0.64,0.25v0.1l0.84,0.35l0.44,0.1l0.25,0.2h0.05l0.05,0.05l1.28,0.49h0.54l0.39,0.1l0.39,0.25
		l0.05-0.05l0.1,0.1l0.2,0.15l0.94,0.4l0.44,0.05l0.3,0.15h0.99l0.25,0.15l0.69,0.1l0.89,0.2l0.25,0.2l0.84,0.3l0.3,0.49l0.1,0.44
		l-0.05,0.1l-0.05,0.2l-0.2,0.25l-0.34,0.3l-0.69,0.3h-0.25l-0.3,0.2l-0.64,0.2l-0.15-0.05l-0.54-0.05l-1.19,0.3l-2.17,0.15h-0.64
		l-1.97,0.1h-0.59l-0.64,0.05l-0.84-0.05l-0.59,0.15l-0.74,0.15l-1.28-0.25h-0.79l-0.49,0.05l-0.89,0.15h-0.3l-0.69,0.15h-0.29
		l-0.99,0.25l-0.74,0.25l-0.4-0.05l-0.54,0.05l-1.33,0.3l-0.15,0.05l-0.54,0.1l-0.1-0.05l-0.05,0.05h-0.2l-0.2,0.1l-0.2,0.05
		l-0.1-0.1v-0.1h-0.05l0.05-0.05l-0.05-0.05l0.1-0.1l0.1-0.05h0.05l0.2-0.2l1.48-0.3L175,45.2l0.1,0.05l0.69-0.15l0.49-0.1h0.15
		l1.38-0.59h0.49l0.39-0.1l0.74,0.1l0.54-0.05l0.39-0.1l1.04-0.1l0.84-0.1l0.74-0.05l1.04-0.1l0.15,0.05h0.59l0.35-0.15l0.15,0.05
		c0.25,0,0.49-0.05,0.79-0.05l0.44-0.2l1.13-0.1l0.84-0.2l1.48-0.05l0.15,0.05l0.3-0.1h0.54l0.44-0.25l0.84-0.15l-0.25-0.1
		l-0.15-0.15l-0.54-0.1l-0.64-0.15l-0.74-0.3l-0.05-0.15l-0.2-0.05h-0.49l-0.29-0.35L187.63,41l-0.2-0.1l-0.35-0.15l-1.23-0.59
		h-0.05l-0.05-0.05c-0.94-0.35-1.78-0.59-2.07-0.84h-0.05v-0.05l-0.3-0.15l-0.25-0.05l-0.59-0.25l-0.15,0.05l-0.15-0.3h-0.25
		l-0.49-0.35l-0.59-0.89l0.05-0.74l0.05,0.2c0.05-0.2,0.15-0.4,0.3-0.59c0.1-0.2,0.29-0.35,0.39-0.54l-0.05-0.05l0.64-0.94
		l0.35-0.39h0.1l0.2-0.35l0.29-0.2l0.25-0.35l0.29-0.2l0.2-0.2l0.49-0.15h0.05l0.15-0.2l0.3-0.15h0.05l0.99-0.59l0.44-0.25l0.45-0.4
		l0.15-0.1l0.29-0.25l0.2-0.15l0.1-0.25l0.2-0.1h0.35l0.35-0.05l0.99-0.3l0.64-0.1l0.3-0.05l0.15-0.05l0.84-0.25l0.15-0.1
		c0.79-0.1,0.89-0.35,1.13-0.44l0.35-0.25h0.2l0.54,0.05l0.25-0.1l0.25-0.05c0.1,0,0.2,0,0.35-0.05c0.44-0.1,1.04-0.25,1.68-0.3
		l0.29-0.1l0.39-0.15l0.2-0.1h0.69l0.35-0.1l0.84,0.15l0.35,0.1h0.15l0.05,0.05l0.49,0.1l0.15-0.05l0.64,0.2l0.49,0.35l0.15,0.2
		l0.1,0.2c0.1,0.25,0.15,0.54,0.25,0.89h0.1l-0.05,0.25L201.84,30.39z"/>
	<path d="M227.57,42.88l-0.1-0.35c-0.05-0.05-0.1-0.1-0.1-0.15c-0.15-0.2-0.15-0.49-0.1-0.84V41.4l0.1-0.49l0.3-0.74l0.25-0.49
		l0.25-0.3l0.44-0.49l0.49-0.74l0.39-0.49l0.1-0.15l0.05-0.2l0.44-0.59l0.15-0.3l0.1-0.25v-0.2l-0.15,0.1h-0.1l-0.39,0.2l-0.2,0.05
		L228.31,37l-0.39,0.35l-0.35,0.35l-0.35,0.1l-0.34,0.15l-0.99,0.54l-0.2,0.3l-0.59,0.4l-0.3,0.15l-0.89,0.59l-0.99,0.74l-0.15,0.2
		l-0.2,0.25l-0.3,0.1l-0.1,0.05c-0.2,0.15-0.39,0.25-0.54,0.4l-0.25,0.15l-0.35,0.2l-0.49,0.4l-0.3,0.15
		c-0.74,0.49-1.38,0.79-1.73,0.79h-0.05v0.05l-0.25,0.05l-0.2-0.15l-0.2-0.2l-0.3-0.54c-0.15-0.25-0.15-0.69,0.05-1.28l0.15-1.04
		l0.05-0.3l0.25-0.49l0.15-0.1l0.44-0.89l0.15-0.2l0.79-0.99l0.3-0.49l0.1-0.1l0.05-0.15l0.49-0.54l0.15-0.35l0.2-0.25l1.04-1.68
		l0.99-1.48l0.69-0.84l0.94-1.18h-0.74l-0.94-0.15l-0.2,0.05l-0.1-0.05c0,0.05-0.05,0.05-0.05,0.05l-0.84,0.44l-0.59,0.49
		l-1.68,0.84l-0.44,0.35l-1.73,1.18l-1.04,0.49l-0.15,0.05l-0.35,0.3l-0.05,0.05l-0.2,0.1l-1.48,1.04l-0.64,0.44l-0.45,0.49
		l-0.99,0.89l-0.74,0.49c-0.15,0.15-0.3,0.25-0.44,0.35l-0.35,0.59l-0.15,0.15l-0.39,0.44l-0.39,0.15l-0.15,0.25h-0.1l-0.1,0.1
		h-0.15l-0.2,0.25l-0.1,0.05l-1.33,1.18l-0.05,0.15l-0.25,0.2l-0.2,0.15l-0.1,0.05l-0.64,0.54l-0.3,0.3h-0.05l-0.54,0.49v0.15h-0.1
		l-0.1,0.05l-0.49,0.54l-0.64,0.49l-0.25,0.3l-0.05,0.1l-0.49,0.49l-0.35,0.4l-0.25,0.44l-0.15,0.25l-0.25,0.1l-0.15,0.05
		l-0.05,0.05l-0.05,0.15l-0.05,0.1l-0.25,0.15l-0.05,0.1v0.1l-0.1,0.15v0.15l-0.2,0.2v0.05l-0.1-0.05l-0.15,0.05l-0.1,0.1h-0.05
		l-0.05,0.05l-0.3,0.2l-0.59,0.15h-0.1v-0.05l-0.35,0.1h-0.25l-0.25-0.05l-0.1-0.2l-0.29,0.15l-0.1-0.05l-0.2-0.3l-0.15-0.2
		l0.05-0.39l0.15-0.44l0.15-0.15l-0.05-0.05l0.05-0.2l0.25-0.2l0.2-0.25l0.54-0.94l1.04-1.09l0.05-0.05l0.05-0.2l0.15-0.05
		l0.54-0.84l0.34-0.39l0.3-0.44l0.1-0.2l0.15-0.2l0.35-0.49v-0.1l0.25-0.15l0.15-0.25l0.3-0.44l0.89-1.23l0.29-0.35l0.2-0.35
		l0.94-1.18l0.25-0.39l0.89-1.14l0.59-0.84l0.15-0.25l0.15-0.49l0.1-0.3l0.25-0.2l0.25-0.1l0.1-0.3l0.1-0.1v-0.15l-0.05-0.1
		l0.1-0.15v-0.2l0.15-0.25h-0.05l0.05-0.05l0.05,0.05l0.15-0.1l0.05-0.15h0.1v-0.05l0.3-0.25l0.15-0.05l0.39-0.74l0.35-0.35l0.2-0.4
		l-0.1-0.05l0.25-0.35l0.1-0.15l0.1-0.2v-0.05l-0.05-0.05v-0.05h0.05l0.05-0.44l0.1-0.49l0.1-0.15l0.3-0.49l0.49-0.3l0.2,0.1v-0.2
		l0.15-0.1h0.15l0.1-0.15l0.25-0.05l0.54-0.05h0.29l0.25,0.1l0.15,0.15v0.3l-0.25,0.39v0.25l-0.1,0.25l-0.4,1.04l-0.79,0.54
		l-0.54,0.4l-0.05,0.05l-0.54,0.89v0.1l-0.2,0.3l-0.05,0.35l-0.15,0.35l-0.1,0.2l-0.2,0.15l-0.05,0.05l-0.1,0.05l-0.05,0.1H210
		l-0.05,0.2l-0.2,0.2l-0.29,0.25l-0.39,0.59l-0.3,0.4l-0.2,0.44l-0.15,0.15l-0.54,0.4l-0.59,0.74l-0.35,0.2l-0.54,0.69v0.1
		l-0.34,0.35l-0.45,0.64l-0.15,0.44l-0.2,0.3l-0.35,0.44l-0.05,0.15l-0.39,0.3l-0.44,0.54l-0.59,0.84l-0.54,0.79l-0.49,0.64
		l-0.89,1.28l-0.35,0.89l-0.1,0.2l0.05-0.05h0.2l0.15-0.1h0.15l0.1-0.05l0.1-0.1l0.29-0.15l0.05-0.25l0.25-0.3l0.25-0.15l0.49-0.2
		l0.44-0.3l0.49-0.44l0.1-0.1l0.1-0.05l0.3-0.25l0.59-0.59l1.13-0.99l0.39-0.25l1.04-0.79l0.29-0.35l0.1-0.1l0.29-0.15l0.69-0.49
		l0.35-0.49l0.2-0.05l0.69-0.49l0.44-0.44l0.25-0.15l0.05-0.1l0.94-0.89l0.35-0.2l0.54-0.49l0.15-0.2l0.3-0.2l0.44-0.4l0.39-0.25
		l0.49-0.54l1.28-0.99l0.39-0.35l0.3-0.35l0.89-0.39l0.64-0.4l0.2-0.3l0.1,0.05l0.2-0.15l0.2-0.05l0.34-0.3l0.1-0.1l0.35-0.15
		l0.44-0.3l0.59-0.25l0.74-0.44l0.1-0.2l0.74-0.39l1.43-0.3l1.08-0.44l0.49-0.15l0.3-0.1l0.15-0.1l0.1-0.05h0.1l-0.1,0.1l0.44,0.05
		l0.2,0.05l0.29,0.49l-0.1,0.49l-0.15,0.2c-0.3,0.59-0.89,1.23-1.23,1.73c-0.1,0.15-0.2,0.2-0.25,0.3l-0.39,0.35l-0.3,0.49
		l-0.79,0.79l-0.54,0.64l-0.1,0.15l-0.39,0.44l-1.33,2.17l-0.64,1.04l-0.49,1.18h-0.05v0.05l-0.54,0.99l-0.2,0.69l-0.15,0.2
		l-0.1,0.1l-0.15,0.35l-0.05,0.1l0.05,0.35l0.1,0.4l0.05,0.25l0.1,0.2l0.05,0.15l0.05,0.05l0.74-0.3l0.2-0.05
		c0.29-0.2,0.59-0.44,0.94-0.74l0.25-0.25l0.25-0.1c0.39-0.3,0.74-0.64,1.13-0.99l0.59-0.44l0.29-0.25l1.18-0.84l2.12-1.58l0.2-0.3
		l0.2-0.15l0.35-0.15h0.2c0.1-0.1,0.2-0.15,0.3-0.2l0.15-0.15l0.05-0.1v-0.05l0.1-0.1l0.05-0.15v-0.05l0.25-0.15l-0.05-0.05h0.05
		l0.1,0.05l0.15-0.05l0.1-0.1h0.1l0.39-0.15h0.35l0.25-0.1l0.15,0.05l-0.05,0.05l0.35-0.05l0.05-0.05l0.25,0.05l0.25,0.1l0.15,0.15
		v0.25l-0.05,0.05h0.05l-0.1,0.1l-0.3,0.84v0.15l-0.25,0.59l-0.44,0.59l-0.3,0.74l-0.15,0.3l-0.29,0.4l-0.59,0.74l-0.2,0.35
		l-0.29,0.49l-0.2,0.39l-0.15,0.49l0.1,0.54l0.34,0.3c0.4,0.2,1.04,0.3,1.73,0.2l0.29-0.05v0.05c0.05,0,0.1-0.05,0.15-0.05
		l0.05-0.05l0.15-0.1l0.59-0.05l0.49-0.2l0.3-0.15l0.25,0.1l0.15-0.1l0.05-0.05l0.3-0.05l1.04-0.54l0.64-0.39l0.29-0.05l0.3-0.25
		h0.15l0.69-0.4l0.3-0.05l0.29-0.15l0.64-0.3l0.64-0.35l1.38-0.69l0.15-0.1l1.78-0.89l0.2-0.15l0.64-0.25l0.25-0.15l0.64-0.4
		l0.35-0.25l0.2-0.05l0.15,0.25l-0.05,0.2l-0.25,0.1l-0.1,0.05l-0.25,0.15l-0.1,0.15l-0.1,0.1l-0.3,0.05l-1.48,0.94l-0.39,0.3h-0.15
		l-0.59,0.3l-0.44,0.3l-0.25,0.1l-0.1,0.1l-0.15,0.05l-0.84,0.44l-0.29,0.15l-0.25,0.15l-0.3,0.2l-0.2,0.1l-0.2,0.15l-0.45,0.25
		L236.4,41l-0.25,0.1l-0.2,0.15l-0.45,0.2l-0.69,0.25l-0.89,0.39l-0.4,0.25l-0.2-0.05l-0.49,0.2c-0.15,0.05-0.3,0.15-0.49,0.2
		l-0.1,0.05l-0.25,0.05l-0.59,0.15v0.05h-0.1l-0.3,0.15l-0.3,0.05h-0.25c-0.35,0.1-0.64,0.15-0.99,0.15H229
		c-0.2,0-0.39-0.05-0.59-0.1h-0.15L227.57,42.88z"/>
	<path d="M262.41,39.42l0.05-0.1l0.1-0.15l0.89-1.09l0.2-0.39l0.15-0.15l0.05-0.1l0.15-0.1l0.59-0.64l0.2-0.25v-0.1l0.05,0.05
		l0.15-0.49l-0.05-0.05l-0.25-0.05h-0.45l-0.59,0.15l-1.43,0.54l-0.35,0.1l-0.25,0.05l-1.43,0.89h-0.05l-0.39,0.25l-0.35,0.15
		l-0.35,0.2l-1.13,0.54l-1.13,0.64l-0.44,0.2l-0.74,0.4l-0.25,0.1l-0.59,0.35l-0.29,0.1L253.58,41l-0.3,0.2l-0.29,0.25l-0.45,0.15
		l-0.44,0.2l-1.19,0.64l-0.1,0.1l-0.49,0.3h-0.1v0.05h-0.45l-0.59,0.25h-0.39c-0.15,0.1-0.35,0.15-0.49,0.2l-0.2,0.15l-0.99,0.35
		l-0.2,0.05l-0.74,0.3l-0.1,0.05l-0.15,0.05h-0.15l-0.3-0.05h-0.05c-0.79,0.1-1.43-0.05-1.63-0.59c-0.2-0.64,0-1.38,0.35-2.17
		l0.2-0.59l0.15-0.05l0.05-0.2l0.2-0.3l0.1-0.2l0.1-0.05v0.05l0.1-0.25l0.35-0.49l0.54-0.39l0.1-0.1l0.39-0.64l0.2-0.25l0.39-0.3
		l0.59-0.49l2.22-1.97v-0.05h0.05l0.64-0.54l0.15-0.15l0.84-0.69l0.39-0.25l1.28-0.94l0.05-0.05l0.59-0.64l0.25-0.25l0.2-0.35
		l0.1-0.05l0.35,0.05l0.15-0.1l0.35-0.1l0.2-0.05l0.25-0.05l0.2-0.15v-0.1l0.39-0.15l1.58-0.79l0.29-0.25l0.2-0.1l0.39-0.1l0.1,0.05
		l0.1-0.05l0.45-0.15h0.15l0.25-0.15l0.35-0.05l0.29-0.1l0.35-0.1l0.2-0.05l0.49,0.15l0.3-0.05h0.29l0.2,0.05h0.1v0.05h0.2l0.15,0.1
		l0.05,0.1l0.2,0.05l0.1,0.25v0.44l-0.15,0.1c-0.05,0.15-0.2,0.25-0.54,0.59c-0.15,0.1-0.3,0.05-0.35,0l-0.54,0.15l-0.35,0.05h-0.89
		l-0.79-0.1v0.05h-0.2v-0.05h-0.1l-0.34,0.05h-0.35l-0.69,0.3l-0.79,0.35l-1.13,0.49l-0.79,0.35c-0.29,0.15-0.54,0.35-0.84,0.54
		c-0.05,0.05-0.05,0.05-0.05,0l-0.45,0.35l-0.05,0.05l-0.1,0.05l-2.22,1.63l-0.2,0.2l-0.44,0.49l-0.35,0.35l-0.35,0.2l-0.44,0.25
		l-0.15,0.15L248.94,37l-0.1,0.1l-0.1,0.15l-0.59,0.74l-0.15,0.1l-0.1,0.1l-0.15,0.1l-0.1,0.2l-0.15,0.2h-0.1l-0.1,0.25l-0.2,0.25
		l-0.1,0.2l-0.25,0.25l-0.25,0.3l-0.49,0.59v0.1l0.05,0.3l-0.05,0.1v0.1l-0.1,0.1l-0.2,0.15l-0.15,0.2l-0.25,0.3l-0.2,0.3v0.1
		l-0.05,0.1v0.3l0.1,0.15l0.15,0.25l0.15,0.1l1.04-0.4l0.44-0.1l0.69-0.25h0.05l0.25-0.05c0.64-0.25,1.28-0.54,1.93-0.84l0.25-0.15
		l0.35-0.2l0.25-0.2h0.39c0.54-0.25,1.14-0.49,1.68-0.79l0.25-0.2l0.35-0.15v-0.05l0.1-0.05l0.15-0.15l0.2-0.05l0.74-0.35l0.39-0.2
		l0.35-0.2l1.33-0.69l0.35-0.25l1.38-0.64l0.29-0.1l0.89-0.44l0.44-0.35l0.89-0.44l0.25-0.2l0.4-0.25l0.25-0.2l0.59-0.4l0.64-0.39
		l1.53-0.35h0.59l0.44,0.1l0.35,0.2l0.2,0.15c0.2,0.05,0.3,0.15,0.39,0.35v0.05l0.1,0.05v0.2l-0.05,0.15h0.1l-0.05,0.1l-0.05-0.05
		l-0.1,0.1l-0.1,0.15l-0.1,0.2l-0.3,0.25c-0.05,0.1-0.15,0.2-0.25,0.3l-0.35,0.54l-0.29,0.25l-0.15,0.05l-0.59,0.69l-0.1,0.1v0.05
		l-0.1,0.05l-0.3,0.4l-0.1,0.15l-0.1,0.2l-0.39,0.54c-0.1,0.1-0.15,0.25-0.2,0.35l-0.15,0.39l-0.05,0.05c-0.1,0.2-0.15,0.4-0.1,0.49
		c0,0.15-0.05,0.05,0.15,0.1c0.05,0,0.1,0.05,0.15,0.05l0.25-0.05h0.35l0.1-0.05h0.35l0.25-0.05l0.1,0.05
		c0.35-0.05,0.64-0.15,1.09-0.25l0.39-0.1l0.35-0.15h0.3l1.73-0.49l0.15-0.1l0.54-0.15v0.05l0.64-0.2l0.39-0.2l0.2-0.05l0.2-0.15
		l1.63-0.44v-0.1l0.15,0.1l0.44-0.15l0.15-0.15l2.37-0.69h0.25l1.23-0.4c0.05,0,0.1,0,0.15,0.05h0.1l0.05,0.35l-0.2,0.15h-0.39
		l-0.84,0.2l-0.59,0.3h-0.2l-0.79,0.2l-0.39,0.15l-1.13,0.54l-0.84,0.35l-0.94,0.3l-1.08,0.4l-0.2,0.1l-0.49,0.2l-0.25,0.15
		l-0.39,0.15h-0.05l-0.35,0.15l-0.39,0.25l-0.15,0.05l-0.1,0.1l-1.28,0.44v0.1l-0.05-0.05l-0.4,0.15l-0.05,0.1l-0.84,0.3l-0.74,0.25
		l-0.25,0.2l-0.05,0.05l-0.05-0.1l-0.15,0.05l-0.1,0.1l-0.1-0.05l-0.05,0.05l-0.35,0.1h-0.54l-0.1-0.05h-0.34l-0.25-0.1l-0.2-0.1
		l-0.15-0.2l0.05-0.25l-0.05-0.2c-0.05-0.2-0.05-0.35,0.05-0.64l0.15-0.35l0.05-0.2l0.35-0.44l0.15-0.25l0.39-0.49L262.41,39.42z"/>
	<path d="M70.37,125.54l0.2-0.1l2.86-3.55l0.15-0.35l1.09-1.18l0.05-0.05l0.44-0.79l0.3-0.15l1.53-2.02l1.92-2.67
		c0,0,0.05-0.1,0.1-0.15l0.35-0.64l0.25-0.69l0.59-0.69l0.74-1.33l0.2-0.35l0.44-0.89l0.2-0.44l0.64-0.94l0.3-0.69l0.35-0.64
		c0.3-0.64,0.54-1.18,0.74-1.78l0.1-0.39l0.1-0.1c0.1-0.3,0.15-0.64,0.2-0.89l-0.25-0.35v-0.44l-0.05-0.2l-0.1-0.54l-0.05-0.54
		c-0.84-0.54-2.52-0.69-3.31-0.4l-1.78,0.69l-0.54,0.25h-0.1l-1.73,0.74l-0.05,0.05l-0.54,0.25l-0.2,0.15l-0.54,0.25l-0.39,0.1
		c-0.89,0.39-1.73,0.84-2.57,1.28h-0.05c-0.15,0.1-0.3,0.2-0.44,0.25l-1.09,0.84l-0.35,0.3l-0.44,0.05l-0.69,0.25l-0.15,0.05
		l-0.3,0.2l-0.1,0.1l-2.52,1.92l-0.15,0.05l-0.59,0.44v0.1h-0.05l-1.88,1.33l-0.2,0.15l-0.15,0.05l-0.79,0.35l-0.49,0.39v0.1
		l-0.54,0.44l-0.39,0.15l-1.18,0.94h-0.25l-0.99,0.94l-1.09,0.64l-1.73,1.33l-0.34,0.44l-0.44,0.35l-0.2,0.2l-0.89,0.69v0.1
		l-0.15,0.44l-0.3,0.1l-0.49,0.3l-0.49,0.25h-0.05l-0.25,0.2l-0.2,0.1l-0.25,0.1l-2.32,1.73L49,122.09l-0.1,0.3l-0.64,0.44h-0.64
		l-0.44,0.3l-0.05,0.2l-0.15,0.05l-0.25,0.69l-0.1,0.4c0.49-0.05,0.74,0.74,0.2,1.14l-0.49,0.25l-0.1,0.1l-0.05,0.15l-0.49,0.25
		l-0.79,0.59l-0.49,0.3l-0.39-0.15l-0.1-0.15c-0.1,0-0.25,0-0.35-0.05c-0.39-0.2-0.54-0.44-0.54-0.79c0.1-0.49,0.59-1.18,1.28-2.02
		l0.44-0.49l0.05-0.1v-0.1l0.25-0.15l0.15-0.15l-0.1-0.25h0.1l0.4-0.25h0.05v-0.1h0.15l0.3-0.39l0.05-0.05l0.15-0.3l0.3-0.2
		l0.15-0.3l0.44-0.44l0.49-0.15l0.15-0.2l0.3-0.15l0.35-0.15l0.1-0.05l0.25-0.15l0.2-0.2l0.1-0.05l0.44-0.4l0.2-0.2l0.2-0.15
		l0.25-0.25l0.15-0.1l0.1-0.3l0.1-0.1l0.35,0.05l1.97-1.43v-0.05l0.54-0.44l0.25-0.15l0.15-0.05c0.94-0.74,1.78-1.28,2.27-1.68
		l2.02-1.38l0.1-0.1l0.35-0.25l0.35-0.35l0.3-0.2l0.15-0.25l0.1-0.15l0.79-0.3l0.69-0.39l0.74-0.39l0.94-0.59
		c0.3-0.2,0.64-0.35,0.99-0.54l0.05-0.15l0.34-0.3l0.1-0.1l0.54-0.15l0.15-0.15l0.3-0.15l0.3-0.1l1.13-0.74l0.25-0.3l0.2-0.1
		l0.3-0.25l0.1-0.1l0.15-0.3l0.1-0.1l0.39,0.05l0.4-0.1h0.05l0.74-0.44l0.2-0.15l0.35-0.4l0.2,0.05l0.15,0.05
		c0.44-0.2,0.94-0.49,1.43-0.74l0.1-0.2l0.2-0.1l0.35-0.05l0.25-0.2l0.05,0.05l0.15-0.1l0.05-0.05l0.25-0.1
		c1.18-0.59,2.47-1.18,3.7-1.73l0.3-0.25l0.59-0.15c0.05,0,0.1,0,0.15-0.05l0.35-0.15l1.58-0.74l0.79-0.1h0.15
		c0.1,0,0.15,0,0.25-0.05c0.94-0.25,4.2-0.94,5.03,0.44c0.25,0.39,0.34,0.89,0.3,1.43l0.15,0.4v0.25l-0.15,0.54l-0.35,0.64
		l-0.15,0.79l-0.15,0.35l-0.25,0.44l-0.2,0.3v0.3l-0.39,0.4l-0.05,0.2l-0.2,0.3l-0.89,1.53v0.2l0.05,0.15l-0.3,0.1l-0.54,0.84
		l-0.05,0.2l-0.15,0.15h-0.05l-0.49,0.89c-1.33,2.27-2.86,4.24-4.44,6.32l-0.05,0.15h-0.1l-0.3,0.44l-0.74,0.99v0.05l-0.54,0.59
		l-1.88,2.57l-0.44,0.49l-1.53,2.12l-1.48,1.68l-0.44,0.59l-1.09,1.53l-0.44,0.39l-1.38,1.73l-0.15,0.49h-0.3l-0.74,0.94l-0.1,0.2
		l-0.05-0.05l-0.25,0.25l-0.15,0.44l-0.59,0.89v0.15l-0.39,0.1l-0.84,1.18l-0.44,0.94l-0.2,0.3l-0.39,0.3l-0.2,0.44l-0.94,1.28
		l-0.25,0.59l-0.49,0.59l-0.35,0.49l0.64-0.59h0.05c0.64-0.74,1.33-1.53,2.12-2.32v-0.05l0.35-0.54l0.54-0.49l0.39-0.69l0.25-0.25
		l0.3-0.39l0.49-0.35l0.54-0.54l0.99-0.74l0.05-0.05l0.2-0.1c0.05-0.1,0.15-0.2,0.25-0.25l0.2-0.49h0.05l0.1-0.1h0.25l0.54-0.59
		l0.1-0.1l0.1-0.15l0.15-0.05c1.18-1.18,2.37-2.27,3.6-3.4l0.44-0.69l0.44-0.3v0.1l1.88-1.68l0.05-0.05l0.49-0.44h0.05l0.64-0.54
		l0.2-0.3l1.09-0.79l1.28-0.99l0.1-0.1l0.64-0.59l0.3-0.15c0.3-0.3,0.69-0.49,1.04-0.74v-0.05l0.1-0.05l0.25-0.15l0.05-0.2l0.35-0.2
		l0.3-0.25l1.18-0.89l0.2-0.3h0.3v0.05l0.79-0.54l0.54-0.49l0.15-0.25l0.35-0.2l0.15-0.25l0.35-0.3l0.15-0.1l1.38-0.49l1.04-0.59
		l0.35-0.3l0.2-0.15l1.09-0.54l0.35-0.15h0.05c0.2-0.1,0.4-0.25,0.59-0.39l0.2-0.2l0.74-0.4l0.2-0.2h0.2l0.74-0.39l0.2-0.15
		l0.35-0.25l0.74-0.15l0.05,0.05c0.89-0.3,1.73-0.44,2.47-0.3c0.35,0.1,0.54,0.2,0.64,0.49c0.05,0.3,0.05,0.59,0,0.84h0.05l0.2,0.2
		l0.1,0.2l0.05,0.25h-0.05l-0.05,0.39l0.05-0.05l0.05,0.1l-0.05,0.2l-0.05,0.35l-0.15,0.35l-0.05,0.05v0.05l-0.1,0.1l-0.05,0.15
		l0.1,0.1h-0.1l-0.2,0.2h-0.05l-0.1,0.05l-0.1,0.15h-0.15l-0.1,0.05l-0.3,0.3l-0.05,0.3l-0.15,0.25l-0.4,0.3l-0.54,0.79v0.1h-0.05
		l-0.05,0.05l-0.05,0.15l-0.1,0.25l-0.35,0.49l-0.25,0.74l-0.25,0.3l-0.15,0.1l-0.25,0.3l-0.2,0.3l-0.2,0.25l-0.34,0.35l-0.05,0.1
		l-0.05,0.15l-0.05,0.05h-0.1l-0.54,0.69l-0.1,0.2l-0.35,0.4l-0.2,0.3l-0.64,0.74l-0.1,0.2l-0.49,0.59l-2.17,3.01L88.43,129
		l-0.05,0.05v0.05l-0.1,0.1l-0.05,0.15l0.1,0.1h-0.1l-0.2,0.2v0.1l-0.25,0.15l-0.1,0.15l-0.1,0.05l-0.25,0.25
		c0,0-0.05,0.05-0.05,0.1l-0.05,0.25l-0.15,0.25l-0.25,0.2l-0.2,0.15l-0.69,0.94l-0.05,0.15l-0.05-0.05l-0.2,0.25l-0.1,0.49
		l-0.54,0.94v0.2l-0.25,0.1l-0.74,1.38l-0.4,0.94l-0.2,0.4l-0.25,0.35l-0.2,0.49l-1.33,1.83l-0.2,0.64l-0.49,0.69l-0.3,0.64
		l-0.84,2.22l0.25,0.05l0.05-0.1l0.39-0.39l0.44-0.64l0.34-0.25l0.44-0.3l0.25-0.25l0.25-0.15l-0.15-0.1l0.05-0.15l0.15-0.1h0.05
		l0.05,0.05l-0.1,0.15l0.1-0.1l0.3-0.15l0.1-0.15h0.15l0.69-0.54l0.15-0.2l0.39-0.3l0.3-0.3l0.79-0.59l0.1-0.15l1.78-1.38l0.25-0.25
		l0.25-0.15l0.05-0.1l0.49-0.35l0.39-0.4l0.59-0.44l0.3-0.1l0.2-0.1l0.3-0.3l0.1,0.05l0.15-0.25l0.3-0.2l0.1-0.2l0.3-0.15l0.69-0.49
		l0.2-0.2l0.3-0.2l0.05-0.1l0.3-0.25l0.05-0.1h0.05l0.05-0.05h-0.3l0.1-0.35l0.35-0.15h0.15l0.1,0.05h0.15l0.1-0.1l0.15-0.1
		l0.05-0.15l0.25-0.15l0.05-0.05h0.05l2.57-2.32l0.1-0.15l0.15-0.15l0.2-0.3l0.15-0.15l0.05-0.3l0.1-0.1l0.35-0.05l0.34-0.2l0.2-0.1
		l0.25-0.2l0.1-0.1l0.89-0.74l2.52-2.07l0.3-0.39l0.64-0.35l0.05-0.15l0.79-0.74l0.3-0.05l0.2-0.15l0.1-0.25l0.05-0.05h0.05
		l3.06-2.57l0.59-0.3l0.15-0.35l0.59-0.35l2.57-2.02l0.3-0.59h0.49l1.73-1.43l0.05-0.05l0.89-0.79l0.15-0.2l2.07-1.63l0.25-0.25
		l0.35-0.2l0.05-0.15l0.49-0.44l0.2-0.05l0.1-0.2c1.38-0.94,1.38-0.94,2.76-2.22l0.4-0.2l1.23-1.04l0.2-0.35h0.2l0.3-0.1l0.69-0.49
		l0.05-0.2l0.25-0.35l0.15-0.05l0.54-0.2l0.15-0.2l0.3-0.1l0.1-0.05l1.23-0.84l0.25-0.4l0.2-0.15l0.25-0.2l0.2-0.15l0.05-0.3
		l0.1-0.05h0.39l0.35-0.15l0.84-0.25l0.69-0.1c0.69-0.2,1.83-0.44,2.67,0.3l0.15-0.05l0.15,0.1l0.1,0.15l0.05-0.05l0.05,0.05
		l-0.05,0.05v0.1l0.05,0.15l0.1,0.25v0.25c0.05,0.15,0.1,0.35,0.1,0.54l0.25,0.54v0.4l-0.05,0.15l-0.25,0.69l-0.05,0.05l-0.15,0.89
		l0.05,0.1l0.05,0.25h-0.05l-0.05,0.4l0.05-0.05l0.05,0.1l-0.05,0.2l-0.05,0.35l-0.15,0.35l-0.05,0.05v0.05l-0.1,0.1l-0.05,0.15
		l0.1,0.1h-0.1l-0.2,0.2h-0.05l-0.1,0.05c-0.3,0.89-0.64,1.73-0.99,2.52l-0.15,0.74l-0.25,1.09l-0.84,1.83l-0.34,0.49l-0.79,1.73
		l-0.35,0.49l-0.3,0.49l-0.94,1.83l-0.3,0.59l-0.05,0.05c-0.89,1.83-1.88,3.7-2.86,5.53l-1.48,2.81l-0.15,0.25h-0.1l-0.3,0.64v0.54
		l-0.25,0.15l-0.3,0.1l-0.54,0.94l-0.49,1.09l-0.2,0.15l-0.3,0.54l-0.25,0.54l-0.3,0.35h0.34l0.05,0.4l-0.2,0.25h-0.15l-0.1-0.1
		v-0.25l-0.1,0.2l-0.44,0.3l0.15,0.3l-0.1,0.1h-0.2l-0.79,1.23l-0.05,0.3l-0.49,0.79l-0.25,0.49l-0.84,1.33l-0.05,0.35l-1.97,3.06
		l-0.15,0.49l-0.3,0.44v0.15l-0.54,0.84l-0.25,0.15l-0.05,0.3l-0.79,1.23l-0.2,0.15l-0.25,0.3l-0.2,0.05l-0.05,0.4l-0.25,0.3h-0.15
		l-0.15,0.54l-0.25,0.39l-0.1,0.3l-0.3,0.44l-0.44,0.44l-0.4,0.54l-0.89,1.63v0.25h-0.15v0.15h-0.05l-0.3,0.64l-0.25,0.49h-0.05
		c-1.04,1.78-1.88,3.45-2.71,5.33v0.25l-0.15,0.34v0.1l-0.2,0.59l-0.15,0.15v0.15l-0.4,0.99l-0.15,0.1l-0.05,0.15l-0.05,0.05
		c-0.05,0.05-0.05,0.1-0.05,0.15v0.15l-0.15,0.3c-0.05,0.05-0.1,0.15-0.1,0.2v0.1l-0.15,0.49l-0.15,0.35l-0.15,0.1l-0.39,1.33
		c-0.49,1.28-1.14,2.76-1.38,4.24v0.69l0.05,0.44l0.05,0.15l0.05,0.25l0.05,0.05h0.05l0.05,0.05l-0.05,0.05l0.35,0.35l0.3,0.44
		l0.05,0.2l0.05,0.35c0.2-0.1,0.35-0.35,0.44-0.64c0.49-0.64,1.58-0.3,1.13,0.44c-0.99,1.83-4.1,2.32-4-0.74
		c0.1-4.1,1.97-7.85,3.55-11.4c0.59-1.53,1.58-3.11,2.47-4.64l0.1-0.25l0.2-0.4l0.4-0.59v-0.05l0.79-1.83l0.1-0.2l1.28-1.92
		c0.49-0.94,1.04-1.88,1.58-2.76l0.1-0.49l0.44-0.44l1.38-2.47l0.2-0.35l0.1-0.3l0.25-0.29l1.28-2.07l0.1-0.15l0.05-0.15l0.39-0.59
		l0.89-1.48l0.1-0.25l0.1-0.15l0.35-0.59h0.05l0.39-0.79l0.25-0.59l2.57-4.1l0.69-1.09l0.1-0.25l0.05-0.1l0.54-0.69h0.05l1.92-3.36
		l0.1-0.2l0.69-1.58l0.2-0.1l0.2-0.49l-0.05-0.05l0.1-0.1l0.79-1.63l0.2-0.15l0.1-0.15l0.34-0.54c0-0.05,0.05-0.1,0.1-0.2
		c0,0,0-0.05,0.05-0.1l0.05-0.25l0.64-1.73l0.1-0.49l0.25-1.18l0.69-0.94l0.89-2.17l0.79-2.07l0.34-0.54l0.2-0.69l0.1-0.2
		l-0.05-0.15l0.2-0.25l0.59-1.23l0.44-1.18l0.84-1.14l0.2-0.84v-0.3l0.1-0.3l-0.1-0.1h-0.1l-0.2-0.15h0.1l-0.3-0.74l-0.25-0.79
		v-0.35l0.05-0.25l-0.59,0.3h-0.49l-0.44-0.05v0.05h-0.05l-0.05-0.05h-0.05l-0.3,0.1l-0.69,0.35l-0.15,0.15l-0.49,0.3l-0.15,0.05
		l-1.97,1.28l-0.54,0.39l-0.59,0.39l-0.99,0.59l-0.59,0.44l-2.91,1.97l-0.64,0.39l-0.15,0.15l-0.3,0.25l-0.2,0.05
		c-0.99,0.69-1.78,1.28-2.27,1.68l-0.74,0.59l-0.1,0.1l-0.79,0.64l-0.15,0.1l-0.25,0.2h-0.05v0.05h-0.05l-0.05,0.05l-0.44,0.35
		l-0.05,0.05l-1.23,0.99l-0.25,0.25l-0.3,0.35l-0.59,0.39l-0.84,0.64l-0.2,0.25l-2.71,2.32l-0.94,0.89l-0.25,0.2l-0.49,0.25
		l-2.37,2.07v0.1l-0.25,0.2l-0.2,0.15l-0.25,0.2h-0.05c0,0.05,0,0.05-0.05,0.05l-0.1,0.15l-0.25,0.25l-0.35,0.3h-0.1l-0.2,0.15
		l-0.1,0.3l-0.1,0.15l-0.1,0.1l-0.2,0.1l-0.1,0.1h-0.05l-0.05,0.1l-0.35,0.25l-0.25,0.2l-1.09,0.99l-0.39,0.35l-0.25,0.39
		l-0.69,0.39l-0.15,0.15l-4.34,3.9l-0.1,0.2l-0.25,0.1v0.15l-0.3,0.25l-0.3,0.15l-1.23,1.09v0.1h-0.15l-0.05,0.05v0.05h-0.05
		l-1.04,0.94l-0.05,0.1l-0.35,0.35l-0.1,0.15l-0.39,0.44l-0.49,0.2l-0.99,0.89c-0.2,0.2-0.54,0.4-0.94,0.64L87,140.2l-0.15,0.25
		l-0.54,0.64l-0.79,0.3l-0.39-0.1l-0.3,0.15l-0.79,1.13l-0.99,0.64l-0.84,0.74l-0.2,0.35l-0.25,0.3v0.2h0.1v0.25h-0.25l-1.09,0.69
		l-0.59,0.74l-0.25,0.35l-0.89,0.99l-1.23,0.49l-0.59,0.1l-0.59-0.34v-0.4l-0.1,0.35v-0.84l0.1-0.59h-0.1v-0.35l0.2,0.15l0.15-0.39
		l0.35-0.39l0.3-0.94l0.89-1.33c0.44-0.94,0.94-1.83,1.43-2.62l0.69-1.13c0.1-0.2,0.25-0.39,0.39-0.59l0.05-0.3l0.94-1.43l0.84-1.48
		l0.35-0.39l0.15-0.44l0.94-1.23l0.54-0.84l0.3-0.49l0.1-0.1c0.39-0.59,0.74-1.14,1.18-1.73l0.69-1.14l0.3-0.3l0.69-0.94
		c0.1-0.15,0.25-0.3,0.35-0.49l0.25-0.39v-0.15l0.05-0.05l0.05-0.1l0.2-0.2l0.39-0.44l0.25-0.25l1.73-2.47l0.1-0.15l0.15-0.15
		l1.43-2.02l0.34-0.44v-0.05l0.25-0.39l0.05-0.05l0.05-0.15l0.15-0.25l0.15-0.2l0.54-0.69l0.2-0.44l0.79-1.33l0.34-0.69l0.05-0.39
		l0.2-0.3v-0.54l0.1-0.59c-0.1-0.3-0.44-0.44-1.04-0.35c-0.84,0.2-1.58,0.44-2.32,0.84l-0.15,0.1h-0.1l-2.17,1.23
		c-0.05,0-0.05,0.05-0.05,0.05l-0.34,0.25l-0.35,0.3l-0.44,0.3l-0.2,0.1l-0.44,0.05l-0.49,0.4v0.05h-0.1l-0.05-0.05
		c-0.69,0.4-1.33,0.84-1.92,1.23c-0.2,0.15-0.4,0.25-0.54,0.39l-0.1,0.05l-0.3,0.2l-0.1,0.05c-1.23,0.74-2.32,1.33-3.5,2.27
		c-0.35,0.25-0.69,0.49-0.99,0.79l-0.3,0.35l-0.35,0.25l-0.35,0.3l-0.44,0.3l-0.1,0.25l-0.15,0.05h-0.15l-1.83,1.63l-0.84,0.99
		l-0.35,0.35l-1.04,0.84l-0.59,0.54l-0.94,0.79l-3.01,3.01v0.05l-0.05,0.05l-1.97,2.07l-0.49,0.44c-0.15,0.25-0.35,0.39-0.49,0.54
		l-0.1,0.15l-0.49,0.49l-1.04,1.09l-0.2,0.35l-0.64,0.49l-0.25,0.35l-0.44,0.49l-1.68,1.73l-1.04,1.23l-0.59,0.84l-0.25,0.3
		l-0.1,0.64l-0.25,0.44l-0.54,1.04l-0.94,0.79h-0.54c-0.79,0.84-1.58,1.48-2.32,1.38l-0.39,0.2l-0.2-0.25v-0.49
		c-0.15-0.54-0.1-0.44,0.15-0.69v-0.05l0.1-0.4l0.39-0.59l0.25-0.79l0.49-0.64l0.3-0.74l0.1-0.3l0.34-0.44l0.35-0.4l0.25-0.34
		l0.15-0.25l0.94-0.99v-0.05l0.3-0.35l0.15-0.59v-0.1l0.15-0.05l0.35-0.05l0.54-0.94l0.1-0.1l0.2-0.05l0.05,0.15l0.25-0.35
		l0.15-0.49l0.4-0.4l0.2-0.3h0.15v-0.15l0.49-0.54l2.37-3.06l0.15-0.25l0.3-0.3l0.69-0.84v-0.05l0.1-0.25l0.59-0.54l0.1-0.15v-0.1
		l2.81-3.4L70.37,125.54z"/>
	<path d="M132.9,136.65v0.25l-0.25,0.25l-0.15,0.2c-0.05,0-0.05,0.05-0.05,0.1v0.15l-0.2,0.3l-0.05,1.23
		c-0.05,0.05-0.1,0.74,0.1,0.99c0.3,0.35,0.15,0.35,1.38,0.74l0.84,0.2h0.64l0.74-0.1l3.6-0.79l0.69-0.3l1.92-0.64l0.39-0.25
		l0.2-0.1h0.1l2.96-1.23h0.2l0.35-0.2l0.44-0.1l1.63-0.59l0.2-0.05c1.78-0.74,2.47-1.18,4.19-1.97l1.09-0.39l0.05-0.1l0.29-0.15
		l0.89-0.3l0.94-0.4v-0.1h0.15l0.59-0.3l0.05-0.1l2.67-1.63l0.25-0.05c0.35-0.2,0.69-0.44,1.09-0.74c0.1-0.1,0.25-0.05,0.29,0.05
		v-0.05l0.2-0.15l0.2,0.05l0.15,0.44l-0.25,0.1l-0.44,0.15l-0.25,0.1l-1.13,0.79l-0.25,0.35h-0.25l-0.2,0.1
		c-0.44,0.3-0.94,0.54-1.38,0.79l-0.05,0.05l-0.35,0.2l-0.2,0.15h-0.15l-1.58,0.79l-0.05,0.1l-0.2,0.05l-0.39,0.2l-0.1,0.05
		l-0.69,0.44l-1.88,0.79c-0.59,0.3-1.19,0.64-1.78,0.89l-0.15,0.15l-2.47,1.18l-0.2,0.15l-0.1-0.15l-0.54,0.35l-0.59,0.1l-0.39,0.2
		h-0.05c-0.64,0.3-1.28,0.54-1.92,0.79l-0.74,0.39l-1.53,0.74l-0.39,0.1l-0.59,0.1l-0.84,0.25l-0.49,0.05l-0.2,0.1l-0.2,0.15
		l-0.64,0.15h-0.1c-0.59,0.2-1.28,0.34-1.97,0.44l-0.15,0.15l-0.25,0.05h0.05l-0.99,0.2l-0.3-0.1l-0.54,0.2l-1.18-0.2l-1.09-0.54
		l-0.49-0.69l-0.25-0.64l-0.15-0.69v-0.84l0.05-0.1l-0.05-0.1v-0.35l0.35-1.23l0.35-0.59l0.39-0.89l0.3-0.49l0.1-0.1l0.15-0.4
		l0.3-0.25l0.15-0.35l0.3-0.44l0.15-0.15l0.54-0.25l0.2-0.25l0.35-0.15l0.39-0.3l0.1-0.05l0.49-0.44l0.45-0.35l0.34-0.49l0.2-0.2
		l0.25-0.3l0.2-0.15l0.29-0.1l0.1-0.15l0.25-0.25l0.39-0.15l0.25-0.1c1.09-0.79,2.22-1.63,3.4-2.32l0.1-0.1l0.49-0.35l0.64-0.25
		c0.05,0,0.1,0,0.1-0.05l0.59-0.4l0.35-0.2l0.15-0.05l0.69-0.1c0.54-0.2,1.09-0.4,1.63-0.54l0.44-0.25h0.49l0.29-0.1l0.15,0.1
		c0.39,0,0.79,0,1.13,0.05l0.05-0.05l0.15-0.05l0.1,0.05l0.15-0.05l0.05-0.05l0.29,0.1v-0.05h0.05l-0.05,0.1l0.15,0.1h0.15l0.05,0.1
		h0.05l0.3,0.15l0.05,0.05c0.25,0.2,0.45,0.35,0.49,0.59l0.15,0.05l-0.05,0.1h0.05l-0.05,0.05v0.25l0.05,0.2l-0.1,0.35l-0.1,0.15
		v0.3l-0.2,0.74l-0.39,0.64l-0.49,0.49l-0.54,0.35l-0.44,0.3l-1.73,0.89l-0.25,0.2l-0.35,0.1c-1.13,0.79-2.37,1.48-3.6,2.12
		l-0.05,0.1l-1.43,0.69l-0.64,0.44l-1.28,0.54l-0.94,0.35l-1.33,0.25l-0.79,0.05h-0.35l-0.3-0.15l-0.1-0.25l0.1-0.15l0.35-0.69
		l0.69-0.64l0.64-0.25h0.4l0.34,0.1l0.4,0.1h0.64l0.59-0.1l0.64-0.25h0.2l0.1-0.15l1.43-0.49l1.33-0.64l0.64-0.35l0.25-0.3
		l0.64-0.25l0.1-0.2l0.74-0.25l0.2-0.2l0.64-0.49l2.22-1.88l0.2-0.25l0.1-0.35l0.1-0.15l0.25-0.74l-0.05-0.05l-0.05-0.1l-0.1-0.25
		l-0.25-0.3l-0.34-0.15l-0.35-0.1h-0.54l-0.35,0.05l-0.2-0.05c-1.33,0.3-2.76,1.04-3.6,1.43l-0.59,0.3l-0.15,0.15l-0.25,0.2
		l-0.2-0.05c-0.05,0.05-0.05,0.05-0.1,0.05v0.1l-0.3,0.1l-0.1,0.1h-0.1l-1.09,0.59l-0.54,0.44l-0.35,0.35l-0.49,0.15l-0.2,0.1
		c-0.45,0.3-0.84,0.64-1.28,0.99l-0.25,0.3l-0.64,0.59l-0.35,0.35l-0.54,0.49l-0.69,0.69l-0.69,0.79l-0.15,0.15l-0.3,0.44
		l-0.35,0.49l-0.49,0.49L132.9,136.65z"/>
	<path d="M163.22,136.65v0.25l-0.25,0.25l-0.15,0.2c-0.05,0-0.05,0.05-0.05,0.1v0.15l-0.2,0.3l-0.05,1.23
		c-0.05,0.05-0.1,0.74,0.1,0.99c0.3,0.35,0.15,0.35,1.38,0.74l0.84,0.2h0.64l0.74-0.1l3.6-0.79l0.69-0.3l1.92-0.64l0.39-0.25
		l0.2-0.1h0.1l2.96-1.23h0.2l0.35-0.2l0.44-0.1l1.63-0.59l0.2-0.05c1.78-0.74,2.47-1.18,4.19-1.97l1.09-0.39l0.05-0.1l0.29-0.15
		l0.89-0.3l0.94-0.4v-0.1h0.15l0.59-0.3l0.05-0.1l2.67-1.63l0.25-0.05c0.35-0.2,0.69-0.44,1.09-0.74c0.1-0.1,0.25-0.05,0.29,0.05
		v-0.05l0.2-0.15l0.2,0.05l0.15,0.44l-0.25,0.1l-0.44,0.15l-0.25,0.1l-1.13,0.79l-0.25,0.35h-0.25l-0.2,0.1
		c-0.44,0.3-0.94,0.54-1.38,0.79l-0.05,0.05l-0.35,0.2l-0.2,0.15h-0.15l-1.58,0.79l-0.05,0.1l-0.2,0.05l-0.39,0.2l-0.1,0.05
		l-0.69,0.44l-1.88,0.79c-0.59,0.3-1.19,0.64-1.78,0.89l-0.15,0.15l-2.47,1.18l-0.2,0.15l-0.1-0.15l-0.54,0.35l-0.59,0.1l-0.39,0.2
		h-0.05c-0.64,0.3-1.28,0.54-1.92,0.79l-0.74,0.39l-1.53,0.74l-0.39,0.1l-0.59,0.1l-0.84,0.25l-0.49,0.05l-0.2,0.1l-0.2,0.15
		l-0.64,0.15h-0.1c-0.59,0.2-1.28,0.34-1.97,0.44l-0.15,0.15l-0.25,0.05h0.05l-0.99,0.2l-0.3-0.1l-0.54,0.2l-1.18-0.2l-1.09-0.54
		l-0.49-0.69l-0.25-0.64l-0.15-0.69v-0.84l0.05-0.1l-0.05-0.1v-0.35l0.35-1.23l0.35-0.59l0.39-0.89l0.3-0.49l0.1-0.1l0.15-0.4
		l0.3-0.25l0.15-0.35l0.29-0.44l0.15-0.15l0.54-0.25l0.2-0.25l0.35-0.15l0.39-0.3l0.1-0.05l0.49-0.44l0.45-0.35l0.34-0.49l0.2-0.2
		l0.25-0.3l0.2-0.15l0.29-0.1l0.1-0.15l0.25-0.25l0.39-0.15l0.25-0.1c1.09-0.79,2.22-1.63,3.4-2.32l0.1-0.1l0.49-0.35l0.64-0.25
		c0.05,0,0.1,0,0.1-0.05l0.59-0.4l0.35-0.2l0.15-0.05l0.69-0.1c0.54-0.2,1.09-0.4,1.63-0.54l0.44-0.25h0.49l0.29-0.1l0.15,0.1
		c0.39,0,0.79,0,1.13,0.05l0.05-0.05l0.15-0.05l0.1,0.05l0.15-0.05l0.05-0.05l0.29,0.1v-0.05h0.05l-0.05,0.1l0.15,0.1h0.15l0.05,0.1
		h0.05l0.3,0.15l0.05,0.05c0.25,0.2,0.45,0.35,0.49,0.59l0.15,0.05l-0.05,0.1h0.05l-0.05,0.05v0.25l0.05,0.2l-0.1,0.35l-0.1,0.15
		v0.3l-0.2,0.74l-0.39,0.64l-0.49,0.49l-0.54,0.35l-0.44,0.3l-1.73,0.89l-0.25,0.2l-0.35,0.1c-1.13,0.79-2.37,1.48-3.6,2.12
		l-0.05,0.1l-1.43,0.69l-0.64,0.44l-1.28,0.54l-0.94,0.35l-1.33,0.25l-0.79,0.05h-0.35l-0.3-0.15l-0.1-0.25l0.1-0.15l0.35-0.69
		l0.69-0.64l0.64-0.25h0.4l0.34,0.1l0.4,0.1h0.64l0.59-0.1l0.64-0.25h0.2l0.1-0.15l1.43-0.49l1.33-0.64l0.64-0.35l0.25-0.3
		l0.64-0.25l0.1-0.2l0.74-0.25l0.2-0.2l0.64-0.49l2.22-1.88l0.2-0.25l0.1-0.35l0.1-0.15l0.25-0.74l-0.05-0.05l-0.05-0.1l-0.1-0.25
		l-0.25-0.3l-0.34-0.15l-0.35-0.1h-0.54l-0.35,0.05l-0.2-0.05c-1.33,0.3-2.76,1.04-3.6,1.43l-0.59,0.3l-0.15,0.15l-0.25,0.2
		l-0.2-0.05c-0.05,0.05-0.05,0.05-0.1,0.05v0.1l-0.3,0.1l-0.1,0.1h-0.1l-1.09,0.59l-0.54,0.44l-0.35,0.35l-0.49,0.15l-0.2,0.1
		c-0.45,0.3-0.84,0.64-1.28,0.99l-0.25,0.3l-0.64,0.59l-0.35,0.35l-0.54,0.49l-0.69,0.69l-0.69,0.79l-0.15,0.15l-0.3,0.44
		l-0.35,0.49l-0.49,0.49L163.22,136.65z"/>
	<path d="M209.93,112.42h0.79l0.25-0.25l1.33-1.83l0.15-0.15l0.59-0.79l0.25-0.25l0.35-0.44l0.15-0.1l0.54-0.74v-0.1l0.2-0.2
		l0.1-0.2l0.1-0.15l-0.15,0.1h-0.05v-0.1l0.1-0.15l0.2-0.05v0.15l0.2-0.25l0.25-0.25l0.25-0.35l0.05-0.15l0.2-0.3l0.69-0.44
		l0.39-0.44l0.2-0.15l0.15-0.05l0.05-0.1v-0.05l0.05-0.05v0.05l0.29-0.64l0.35-0.35l0.69-0.05l0.39,0.69l0.05,0.69l-0.69,0.44
		l-0.49,0.44l-0.35,0.54l-0.25,0.35l-0.05,0.3l-1.58,1.48l-0.49,0.35l-1.97,2.12l-1.09,1.33l0.59-0.05l0.2-0.15h0.15l0.15,0.15
		l1.23-0.1v-0.1h3.31l1.43-0.15h1.48l0.15,0.15h0.39v0.15l1.28,0.1l0.44-0.1l0.69,0.15l0.84-0.1h0.35l0.44,0.05l0.59,0.15l0.34,0.05
		l0.4,0.05l1.23,0.35h0.1l0.39,0.1h0.64l0.39,0.2l1.09,0.15l0.2,0.05l0.3,0.25c0.2,0.05,0.39,0.1,0.59,0.2l0.05-0.05l0.05,0.05
		l1.28,0.49l0.1-0.05l0.05,0.1h0.05v0.05l0.74,0.35h0.1l0.15,0.1c0.05,0.05,0.1,0.1,0.2,0.1l0.25,0.05l0.59,0.3l0.15,0.25l0.45,0.35
		h0.2l0.2,0.2l0.05,0.1c0.3,0.2,0.54,0.44,0.79,0.64c0,0.05,0.05,0.05,0.05,0.1l0.15,0.05l0.35,0.49v0.05l0.1,0.1l0.29,0.1l0.1,0.1
		l-0.05,0.39l0.15,0.35l0.25,0.89l0.05,0.4c0,0.05,0.05,0.1,0.1,0.15c0,0.15,0,0.25-0.05,0.3l0.05,0.05l-0.15,0.3l-0.25-0.3
		l-0.05-0.15c-0.05-0.1-0.05-0.2-0.05-0.3l-0.35-0.69l-0.35-0.89l-0.1-0.2l-0.05-0.05l-0.29-0.44l-0.35-0.4
		c-0.05-0.05-0.05-0.05-0.05-0.1l-0.54-0.49l-0.2-0.1l-0.59-0.44l-0.05-0.05c-0.1-0.05-0.25-0.1-0.35-0.2l-0.15-0.05l-0.1-0.05
		l-0.39-0.25l-0.39-0.15l-0.3-0.1l-0.1-0.15l-0.05-0.05h-0.1l-0.15-0.1l-0.79-0.3l-0.94-0.1l-0.35-0.1l-0.59-0.3l-0.74-0.2
		c-0.79-0.2-1.63-0.3-2.47-0.44l-0.1,0.05l-0.84-0.15l-0.39-0.05h-0.49l-0.35,0.05l-0.89-0.15l-0.44-0.05l-0.3,0.05l-0.15-0.05
		l-0.59-0.1c-0.39-0.05-0.84-0.05-1.18-0.05l-0.2,0.05l-0.15-0.05c-0.3,0-0.54-0.05-0.79-0.05c-1.58,0-3.16,0-4.74,0.05l-0.35,0.05
		l-0.35,0.15v0.15h-0.2l-0.54,0.3h-0.2v0.15h-0.15l-0.74,0.3h-2.42c-0.3,0.4-0.64,0.74-0.89,1.09l-0.15,0.3l-0.3,0.25
		c-0.29,0.35-0.59,0.69-0.84,1.04l-0.05,0.15l-0.69,0.79l-0.74,1.14l-0.45,0.54l-0.84,0.94l-0.1,0.1l-1.58,2.12l-0.35,0.44
		l-0.99,1.23l-0.15,0.3l-0.25,0.25l-0.3,0.44l-0.35,0.59l-0.2,0.25l-0.35,0.39l-0.39,0.4l-0.29,0.4l-0.05,0.05l-0.15,0.2l-0.15,0.35
		l-0.74,1.04l-0.2,0.59l-2.32,3.21l-0.79,0.89l-1.04,1.09l-0.25,0.25l-0.49,0.54l-0.29,0.49l-0.1,0.35l-0.49,0.69l-0.4,0.89
		l-0.34,0.49l-0.69,0.89l-0.3,1.04v0.3l-0.05,0.25l-0.39,0.64l-0.05,0.64l-0.2,0.54l-0.1,0.25l0.1,0.2l0.25,0.1l0.29-0.05l0.89-0.2
		l0.3-0.1l0.1-0.15l0.84-0.2l0.44-0.2l0.39-0.15l0.3-0.2l0.39-0.05l0.45-0.15l0.25-0.15h0.2l0.15-0.05l1.28-0.64l0.94-0.39v-0.05
		h0.1l0.15-0.25h0.15l0.29-0.1h0.15l0.15-0.15h0.15l1.43-0.64l0.49-0.3l0.2-0.05l2.32-1.09l0.49-0.3l0.35-0.15l0.59-0.25l0.79-0.39
		h0.05l0.25-0.3l0.54-0.3l0.59-0.2l0.69-0.25l1.33-0.69v-0.05h0.05l0.25-0.15l0.2-0.15l0.69-0.4h0.15v-0.1l0.3-0.05l0.25-0.2
		l0.15-0.15l0.25,0.05l0.1,0.25l0.05,0.1l-0.05,0.15l-0.15,0.15l-0.39,0.05l-0.15,0.15l-1.33,0.89l-0.39,0.2l-0.54,0.35l-0.74,0.39
		l-0.54,0.25l-0.49,0.15l-0.69,0.35l-0.35,0.2l-0.15,0.15l-0.54,0.3l-0.64,0.39l-0.84,0.35l-0.25,0.1l-0.45,0.4l-0.44,0.15
		l-0.49,0.2l-0.2,0.05l-0.29,0.25l-0.25,0.15l-0.25,0.05l-0.44,0.35l-0.15,0.1l-0.39,0.05l-0.35-0.05l-0.3,0.15l-0.94,0.49
		l-0.49,0.25l-0.69,0.3h-0.15l-0.59,0.3l-0.59,0.54l-0.49,0.3l-0.25,0.05h-0.05l0.05,0.1l-0.05,0.15l-0.2,0.05h-0.29l0.1-0.2
		l-0.2,0.05l-0.44,0.3l-0.15,0.15l-1.38,0.49l-1.83,0.54l-0.64-0.05l-0.15,0.05l-0.35-0.1l-0.2-0.05l-0.35-0.15l-0.15-0.3l-0.1-0.44
		c-0.05-0.2,0.05-0.59,0.05-0.79c0.05-0.39,0.2-0.89,0.44-1.48v-0.1l0.1-0.35l0.15-0.3l0.1-0.1v-0.25l0.1-0.15l0.25-0.3l0.1-0.15
		l0.3-0.4l0.49-0.89l0.1-0.15l0.1-0.39l0.1-0.3l0.15-0.2l0.3-0.35l0.29-0.44l0.15-0.35l0.2-0.3l0.25-0.2l0.05-0.1l0.35-0.3l0.44-0.4
		l0.25-0.35l0.05-0.2l0.1-0.25l0.35-0.2l0.64-0.89l0.05-0.15l0.15-0.15c0.2-0.25,0.4-0.54,0.64-0.79l0.3-0.44l0.39-0.54l0.29-0.44
		l0.3-0.39l0.15-0.1l0.1-0.15l0.2-0.25l0.05-0.05c0.1-0.15,0.25-0.25,0.3-0.39l0.05-0.1l0.15-0.2l0.1-0.1l0.15-0.2v-0.1l0.2-0.2
		v-0.25l0.79-1.04l0.2-0.1c0,0,0.05,0,0.05-0.05l0.05-0.25l0.54-0.69l0.15-0.1l0.2-0.4l0.39-0.35l1.83-2.62l0.25-0.2l0.79-1.04
		l0.1-0.1c0.2-0.2,0.39-0.49,0.59-0.79l0.05-0.05l0.1-0.15h0.05l0.79-1.04v-0.25l0.79-0.89l0.15-0.1l0.25-0.3l0.05-0.2l1.13-1.53
		l0.3-0.15l0.35-0.35v-0.05l0.2-0.2v-0.1l0.15-0.2l0.15-0.05l0.1-0.15v-0.05l0.1-0.2l0.05-0.15l0.44-0.59h-0.1l-0.3,0.15l-0.99,0.1
		l-0.59,0.1l-1.48,0.1l-1.53,0.2l-0.39,0.05l-0.44,0.05l-1.28,0.2l-0.39,0.1l-2.52,0.74l-0.44,0.25l-0.2,0.1l-0.59,0.1l-0.69-0.05
		l-0.89,0.64l-0.39,0.15l-0.99,0.2l-1.13-0.25l-0.39-0.44l-0.05-0.49l0.1-0.35h0.05c0-0.1,0.05-0.2,0.15-0.3h0.1l-0.05-0.1v-0.1
		l0.1,0.2c0.84-0.39,1.83-0.69,3.01-0.94l0.79-0.35l0.79-0.05l0.3,0.1l2.02-0.25l0.1-0.05h0.05l1.33-0.15l0.05-0.05h0.1l0.89-0.1
		l0.15,0.05h0.3l0.05-0.05h0.25l1.23-0.25l0.1-0.05l0.25-0.1h0.29l0.84-0.1l0.15-0.05l0.35,0.05c0.25-0.05,0.49-0.1,0.74-0.1
		l0.05-0.05h0.2h0.44L209.93,112.42z"/>
	<path d="M236.23,127.77v0.1l0.05,0.15l-0.1,0.15l-0.05,0.2l0.1,0.2h0.05l-0.15,0.69l-0.4,0.25l-0.25,0.15l-0.44-0.25l-0.74-0.4
		l-0.35-0.1l-0.1-0.2h-0.2l0.1-0.25v-0.4l0.1-0.3l-0.05-0.44v-0.49l-0.1-0.1l-0.05-0.2l-0.35-0.15h-0.25l-0.39-0.15l-0.64-0.05
		c-1.53,0.15-0.89-0.25-2.71,0.25l-0.59,0.3l-0.2-0.05l-1.48,0.3l-1.04,0.49l-0.84,0.35l-0.54,0.3l-0.39,0.15l-0.59,0.15l-0.84,0.39
		l-0.25,0.1l-1.33,0.64l-0.74,0.49l-0.05,0.1l-0.79,0.44l-0.3,0.25l-0.2,0.15l-0.29,0.2l-0.3,0.3l-0.3,0.44l-0.39,0.25l-0.25,0.25
		l-0.54,0.35c-0.3,0.35-0.44,0.64-0.49,0.94c-0.15,0.49,0,0.15,0.25,0.44l0.15,0.25l0.34,0.2l0.25,0.39l0.15,0.25h0.05
		c0.29,0.2,0.59,0.3,0.84,0.44l0.64,0.25v0.1l0.84,0.35l0.45,0.1l0.25,0.2h0.05l0.05,0.05l1.28,0.49h0.54l0.39,0.1l0.4,0.25
		l0.05-0.05l0.1,0.1l0.2,0.15l0.94,0.39l0.45,0.05l0.29,0.15h0.99l0.25,0.15l0.69,0.1l0.89,0.2l0.25,0.2l0.84,0.3l0.3,0.49l0.1,0.44
		l-0.05,0.1l-0.05,0.2l-0.2,0.25l-0.35,0.3l-0.69,0.3h-0.25l-0.3,0.2l-0.64,0.2l-0.15-0.05l-0.54-0.05l-1.18,0.3l-2.17,0.15h-0.64
		l-1.97,0.1h-0.59l-0.64,0.05l-0.84-0.05l-0.59,0.15l-0.74,0.15l-1.28-0.25h-0.79l-0.49,0.05l-0.89,0.15h-0.29l-0.69,0.15h-0.3
		l-0.99,0.25l-0.74,0.25l-0.39-0.05l-0.54,0.05l-1.33,0.3l-0.15,0.05l-0.54,0.1l-0.1-0.05l-0.05,0.05h-0.2l-0.2,0.1l-0.2,0.05
		l-0.1-0.1v-0.1h-0.05l0.05-0.05l-0.05-0.05l0.1-0.1l0.1-0.05h0.05l0.2-0.2l1.48-0.3l0.54-0.15l0.1,0.05l0.69-0.15l0.49-0.1h0.15
		l1.38-0.59h0.49l0.4-0.1l0.74,0.1l0.54-0.05l0.4-0.1l1.04-0.1l0.84-0.1l0.74-0.05l1.04-0.1l0.15,0.05h0.59l0.35-0.15l0.15,0.05
		c0.25,0,0.49-0.05,0.79-0.05l0.45-0.2l1.13-0.1l0.84-0.2l1.48-0.05l0.15,0.05l0.29-0.1h0.54l0.45-0.25l0.84-0.15l-0.25-0.1
		l-0.15-0.15l-0.54-0.1l-0.64-0.15l-0.74-0.3l-0.05-0.15l-0.2-0.05h-0.49l-0.3-0.35l-1.23-0.49l-0.2-0.1l-0.35-0.15l-1.23-0.59
		h-0.05l-0.05-0.05c-0.94-0.35-1.78-0.59-2.07-0.84h-0.05v-0.05l-0.29-0.15l-0.25-0.05l-0.59-0.25l-0.15,0.05l-0.15-0.3h-0.25
		l-0.49-0.35l-0.59-0.89l0.05-0.74l0.05,0.2c0.05-0.2,0.15-0.4,0.29-0.59c0.1-0.2,0.3-0.35,0.39-0.54l-0.05-0.05l0.64-0.94l0.35-0.4
		h0.1l0.2-0.35l0.3-0.2l0.25-0.35l0.3-0.2l0.2-0.2l0.49-0.15h0.05l0.15-0.2l0.3-0.15h0.05l0.99-0.59l0.44-0.25l0.44-0.39l0.15-0.1
		l0.3-0.25l0.2-0.15l0.1-0.25l0.2-0.1h0.35l0.35-0.05l0.99-0.3l0.64-0.1l0.29-0.05l0.15-0.05l0.84-0.25l0.15-0.1
		c0.79-0.1,0.89-0.35,1.13-0.44l0.35-0.25h0.2l0.54,0.05l0.25-0.1l0.25-0.05c0.1,0,0.2,0,0.35-0.05c0.44-0.1,1.04-0.25,1.68-0.3
		l0.3-0.1l0.39-0.15l0.2-0.1h0.69l0.34-0.1l0.84,0.15l0.35,0.1h0.15l0.05,0.05l0.49,0.1l0.15-0.05l0.64,0.2l0.49,0.35l0.15,0.2
		l0.1,0.2c0.1,0.25,0.15,0.54,0.25,0.89h0.1l-0.05,0.25L236.23,127.77z"/>
</g>
</svg>
