<?xml version="1.0" encoding="utf-8"?>
<!-- Generator: Adobe Illustrator 24.2.3, SVG Export Plug-In . SVG Version: 6.00 Build 0)  -->
<svg version="1.1" id="レイヤー_1" xmlns="http://www.w3.org/2000/svg" xmlns:xlink="http://www.w3.org/1999/xlink" x="0px"
	 y="0px" viewBox="0 0 250 50" style="enable-background:new 0 0 250 50;" xml:space="preserve">
<style type="text/css">
	.st0{fill:#FFFFFF;}
</style>
<g>
	<g>
		<path class="st0" d="M2.25,0.84c0.36,0.17,0.67,0.4,0.91,0.71c0.38,0.55,0.49,1.5,0.5,2.99v16c0,0.58-0.01,1.05-0.03,1.43
			c-0.02,0.38-0.07,0.7-0.16,0.98c-0.08,0.27-0.21,0.49-0.38,0.68c-0.16,0.17-0.35,0.31-0.58,0.44c-0.14,0.07-0.27,0.13-0.41,0.19
			l0.09,0.09H4.7V0.75H2.34L2.25,0.84z M7.62,24.07C7.4,23.94,7.2,23.8,7.05,23.63c-0.17-0.18-0.29-0.41-0.38-0.68
			c-0.09-0.27-0.13-0.59-0.16-0.98c-0.02-0.38-0.03-0.86-0.03-1.43l0-16c0.01-1.48,0.13-2.44,0.5-2.99
			c0.24-0.31,0.54-0.54,0.91-0.71L7.8,0.75H5.44v23.6h2.51l0.09-0.09C7.9,24.21,7.76,24.14,7.62,24.07z"/>
		<path class="st0" d="M18.41,0.84c0.13,0.05,0.26,0.12,0.39,0.19c0.23,0.13,0.42,0.28,0.58,0.44c0.17,0.18,0.29,0.41,0.38,0.68
			c0.08,0.27,0.13,0.59,0.16,0.98c0.02,0.38,0.03,0.85,0.03,1.43v16c-0.01,1.48-0.13,2.43-0.5,2.99c-0.24,0.31-0.54,0.54-0.91,0.71
			l0.09,0.09H21V0.75h-2.5L18.41,0.84z M21.73,0.75v23.6h2.47l0.09-0.09c-0.12-0.05-0.24-0.1-0.35-0.16
			c-0.24-0.13-0.44-0.27-0.6-0.43c-0.18-0.18-0.3-0.41-0.37-0.69c-0.07-0.27-0.12-0.58-0.14-0.97c-0.02-0.38-0.03-0.86-0.03-1.45
			V12.7c0-0.13,0.1-0.23,0.23-0.23h10.95v-0.9H23.01c-0.12,0-0.23-0.1-0.23-0.23V1.47c0-0.13,0.1-0.23,0.23-0.23h8.11
			c0.73,0,1.72,0.04,2.26,0.12c0.56,0.08,1.05,0.27,1.47,0.55c0.42,0.29,0.78,0.69,1.08,1.2c0.17,0.29,0.32,0.63,0.46,1.01
			l0.14-0.14L36.4,0.91l-0.15-0.15H21.73z"/>
		<path class="st0" d="M83.74,21.82c-1.27-1.89-1.9-4.08-1.9-6.59c0-0.98,0.11-1.95,0.34-2.91c0.23-0.95,0.54-1.85,0.94-2.71
			c0.4-0.85,0.88-1.64,1.44-2.35c0.31-0.4,0.65-0.76,1-1.08c-0.67,0.42-1.3,0.93-1.88,1.54c-0.64,0.67-1.19,1.41-1.65,2.21
			c-0.46,0.81-0.82,1.66-1.08,2.56c-0.26,0.9-0.39,1.81-0.39,2.74c0,2.37,0.72,4.43,2.17,6.21c0.75,0.92,1.63,1.66,2.64,2.23
			C84.76,23.15,84.22,22.53,83.74,21.82z M94.46,16.24c0.03,0.01,0.07,0.03,0.1,0.04c0.17,0.09,0.31,0.18,0.44,0.29
			c0.16,0.13,0.28,0.31,0.36,0.52c0.09,0.22,0.15,0.48,0.18,0.81c0.04,0.32,0.05,0.73,0.06,1.25v4.17l-0.04,0.02l-0.08,0.05
			c-1.32,0.75-2.72,1.12-4.2,1.12c-1.07,0-2.09-0.25-3.05-0.73c-0.96-0.48-1.79-1.17-2.5-2.04c-0.71-0.87-1.27-1.92-1.68-3.13
			c-0.42-1.22-0.62-2.56-0.62-4.02c0-1.31,0.17-2.52,0.51-3.65c0.34-1.13,0.84-2.11,1.5-2.94c0.66-0.84,1.46-1.49,2.41-1.96
			c0.95-0.47,2.03-0.7,3.2-0.7c0.01,0,0.02,0,0.02,0c1.6,0,2.99,0.42,4.13,1.27c0.75,0.56,1.38,1.35,1.9,2.34l0.08-0.08V5.62
			l-0.07-0.07c-0.03,0.06-0.06,0.11-0.09,0.16c-0.16,0.22-0.4,0.35-0.66,0.35h-0.01c-0.13,0-0.28-0.03-0.48-0.08
			c-0.2-0.05-0.43-0.13-0.7-0.24c-0.56-0.21-1.04-0.38-1.42-0.5c-0.38-0.12-0.73-0.21-1.03-0.28c-0.31-0.06-0.61-0.11-0.91-0.13
			c-0.3-0.02-0.64-0.03-1.02-0.03c-0.38,0-0.74,0.02-1.1,0.05c-1.1,0.16-2.06,0.54-2.9,1.14c-0.62,0.44-1.19,0.99-1.72,1.66
			c-0.53,0.67-0.98,1.41-1.37,2.23c-0.38,0.81-0.68,1.67-0.9,2.58c-0.21,0.9-0.32,1.82-0.32,2.76c0,2.4,0.6,4.46,1.79,6.23
			c1.51,2.24,3.58,3.41,6.4,3.56c0.2,0,0.39,0.01,0.59,0.01c0.66,0,1.29-0.03,1.87-0.1c0.59-0.07,1.15-0.17,1.7-0.31
			c0.55-0.14,1.09-0.32,1.62-0.54c0,0,0.01,0,0.01,0v-7.91h-1.93L94.46,16.24z M98.8,16.17h-1.69v7.63
			c0.28-0.13,0.57-0.27,0.86-0.43l0-4.22c0-0.61,0.04-1.11,0.11-1.51c0.08-0.4,0.19-0.72,0.37-0.97c0.12-0.17,0.27-0.31,0.44-0.41
			L98.8,16.17z"/>
		<path class="st0" d="M43.7,5.55c0.29,0.13,0.54,0.32,0.73,0.57c0.3,0.44,0.4,1.2,0.4,2.39v12.8c0,0.46-0.01,0.84-0.03,1.15
			c-0.02,0.31-0.06,0.56-0.12,0.78c-0.07,0.21-0.17,0.4-0.3,0.54c-0.13,0.13-0.28,0.25-0.46,0.35c-0.11,0.06-0.22,0.11-0.33,0.15
			l0.07,0.07h2.04V5.47h-1.92L43.7,5.55z M48.14,24.13c-0.18-0.1-0.33-0.22-0.46-0.35c-0.14-0.15-0.23-0.33-0.3-0.54
			c-0.07-0.22-0.11-0.48-0.12-0.78c-0.02-0.3-0.03-0.69-0.03-1.15l0-12.8c0-1.19,0.1-1.95,0.4-2.39c0.19-0.25,0.43-0.43,0.72-0.56
			l-0.07-0.07h-1.92v18.88h2.04l0.07-0.07C48.36,24.24,48.25,24.19,48.14,24.13z"/>
		<path class="st0" d="M56.46,5.47L56.4,5.54c0.2,0.07,0.38,0.13,0.54,0.2c0.22,0.09,0.43,0.2,0.62,0.35
			c0.19,0.14,0.39,0.31,0.59,0.53c0.12,0.12,0.45,0.51,0.84,0.98v13.8c-0.01,1.13-0.09,1.85-0.36,2.26
			c-0.19,0.28-0.45,0.49-0.76,0.63l0.08,0.08h3.02l0.07-0.08c-0.24-0.11-0.45-0.26-0.63-0.45c-0.35-0.42-0.46-1.2-0.47-2.44V8.74
			l13.58,16.57v-1.47L58.54,5.47H56.46z M74.43,5.47h-2.77l-0.08,0.08c0.15,0.08,0.28,0.19,0.4,0.32c0.21,0.24,0.36,0.57,0.45,0.98
			c0.1,0.41,0.14,0.94,0.14,1.6v11.68L60.61,5.47h-1.24l14.15,17.35V8.45c0-0.66,0.04-1.19,0.14-1.6c0.09-0.41,0.24-0.74,0.45-0.98
			c0.12-0.13,0.25-0.24,0.4-0.32L74.43,5.47z"/>
	</g>
	<g>
		<path class="st0" d="M14.96,34.26c-0.07,0.09-0.18,0.14-0.34,0.14c-0.05,0-0.11,0-0.18-0.02c-1.38,1.4-3.37,3.03-5.11,4.29
			c0.14,0.05,0.36,0.16,0.43,0.2c-0.04,0.11-0.2,0.22-0.39,0.23v9.63H8.05v-9.22c-1.9,1.35-4.38,2.8-6.84,4
			c-0.18-0.29-0.5-0.74-0.75-0.99c4.9-2.26,10.26-6.1,13.15-9.28L14.96,34.26z"/>
		<path class="st0" d="M32.38,35.41c-0.05,0.09-0.13,0.16-0.23,0.2c-1.42,6.8-4.93,10.84-10.8,12.9c-0.2-0.3-0.59-0.79-0.83-1.04
			c5.56-1.81,8.97-5.81,10.05-11.25H18.84v-1.2h12.2l0.25-0.16L32.38,35.41z"/>
		<path class="st0" d="M49.95,34.26c-0.07,0.09-0.18,0.14-0.34,0.14c-0.05,0-0.11,0-0.18-0.02c-1.38,1.4-3.37,3.03-5.11,4.29
			c0.14,0.05,0.36,0.16,0.43,0.2c-0.04,0.11-0.2,0.22-0.39,0.23v9.63h-1.31v-9.22c-1.9,1.35-4.38,2.8-6.84,4
			c-0.18-0.29-0.5-0.74-0.75-0.99c4.9-2.26,10.26-6.1,13.15-9.28L49.95,34.26z"/>
		<path class="st0" d="M54.34,34.56c1.87,0.59,4.02,1.53,5.35,2.44l-0.68,1.13c-1.29-0.92-3.41-1.87-5.24-2.49L54.34,34.56z
			 M54.27,47c6.37-1.97,10.6-5.54,12.76-10.51c0.38,0.3,0.79,0.54,1.17,0.74c-2.24,4.92-6.62,8.74-12.7,10.77
			c-0.02,0.16-0.13,0.34-0.25,0.41L54.27,47z"/>
		<path class="st0" d="M84.2,36.68c-0.07,0.11-0.16,0.2-0.27,0.27c-1.9,5.94-4.84,9.53-9.71,12c-0.2-0.31-0.56-0.72-0.92-0.99
			c4.61-2.24,7.5-5.69,9.02-10.57H76c-1.04,1.61-2.37,3.12-3.97,4.38c-0.23-0.25-0.66-0.59-1-0.81c2.44-1.83,4.47-4.67,5.69-7.86
			l1.69,0.47c-0.05,0.18-0.27,0.25-0.5,0.23c-0.36,0.81-0.77,1.67-1.18,2.39h6.24l0.22-0.11L84.2,36.68z M81.97,32.55
			c0.84,0.68,1.83,1.78,2.35,2.55l-0.66,0.57c-0.54-0.83-1.51-1.88-2.31-2.55L81.97,32.55z M84.57,32.03
			c0.84,0.68,1.83,1.76,2.35,2.55l-0.66,0.56c-0.54-0.81-1.47-1.85-2.31-2.53L84.57,32.03z"/>
		<path class="st0" d="M101.96,46.8c0.72-0.02,2.64-0.09,3.77-0.27c0.02,0.39,0.04,0.9,0.07,1.29c-1.18,0.13-2.98,0.2-3.71,0.2H97.6
			c-2.71,0-4.02-1.18-4.02-3.75V33.81l1.76,0.11c-0.04,0.18-0.16,0.29-0.48,0.32v5.85c2.75-0.86,6.57-2.3,8.9-3.55l0.91,1.24
			c-0.05,0.04-0.14,0.05-0.21,0.05c-0.09,0-0.16-0.02-0.25-0.05c-2.17,1.09-6.26,2.6-9.35,3.53v3c0,1.81,0.88,2.49,2.73,2.49H101.96
			z M103.64,33.29c0.83,0.74,1.72,1.85,2.22,2.64l-0.68,0.52c-0.5-0.79-1.44-1.96-2.19-2.64L103.64,33.29z M105.85,32.21
			c0.81,0.74,1.72,1.83,2.22,2.62l-0.68,0.52c-0.5-0.79-1.45-1.94-2.19-2.62L105.85,32.21z"/>
		<path class="st0" d="M122.26,46.78v1H110.5v-1h7.02c0.28-1.74,0.74-5.18,0.91-6.94h-6.57v-1h6.92l0.21-0.07l0.85,0.41
			c-0.02,0.07-0.1,0.14-0.21,0.16c-0.22,1.81-0.78,5.59-1.07,7.44H122.26z"/>
		<path class="st0" d="M124.11,39.98h13.48v1.27h-12.87c-0.1,0.18-0.31,0.3-0.52,0.34L124.11,39.98z"/>
		<path class="st0" d="M154.81,40.16h-6.06l0.31,0.09c-0.04,0.11-0.16,0.2-0.36,0.21c-0.48,3.34-1.7,6.32-5.54,8.2
			c-0.22-0.23-0.66-0.66-0.97-0.9c3.73-1.79,4.77-4.31,5.19-7.61h-6.98v-1.2h14.43V40.16z M153.03,35.1h-11.02v-1.2h11.02V35.1z"/>
		<path class="st0" d="M168.13,38.14c-0.07,0.09-0.17,0.12-0.29,0.12c-0.09,0-0.16-0.02-0.24-0.03c-1.1,1.1-2.52,2.28-3.8,3.19
			c0.22,0.09,0.33,0.12,0.38,0.16c-0.03,0.07-0.16,0.16-0.29,0.19v7.49h-1.05v-7.19c-1.47,1.04-3.81,2.4-5.68,3.3
			c-0.14-0.21-0.41-0.62-0.62-0.81c2.97-1.36,7.42-3.97,10.4-7.25L168.13,38.14z"/>
		<path class="st0" d="M172.37,39.98h13.48v1.27h-12.87c-0.1,0.18-0.31,0.3-0.52,0.34L172.37,39.98z"/>
		<path class="st0" d="M193.01,41.12c0-2.3,0.62-4.09,1.85-5.39c1.23-1.3,2.82-1.95,4.77-1.95c1.28,0,2.43,0.31,3.45,0.92
			c1.02,0.61,1.81,1.46,2.34,2.55c0.54,1.09,0.81,2.33,0.81,3.71c0,1.4-0.28,2.66-0.85,3.76c-0.57,1.11-1.37,1.95-2.41,2.51
			c-1.04,0.57-2.16,0.85-3.36,0.85c-1.3,0-2.47-0.31-3.49-0.94c-1.03-0.63-1.8-1.49-2.33-2.58
			C193.27,43.48,193.01,42.33,193.01,41.12z M194.89,41.14c0,1.67,0.45,2.98,1.34,3.94c0.9,0.96,2.02,1.44,3.37,1.44
			c1.38,0,2.51-0.48,3.4-1.45c0.89-0.97,1.33-2.34,1.33-4.12c0-1.13-0.19-2.11-0.57-2.95c-0.38-0.84-0.94-1.49-1.67-1.95
			c-0.73-0.46-1.56-0.69-2.47-0.69c-1.3,0-2.41,0.45-3.34,1.33C195.36,37.58,194.89,39.06,194.89,41.14z"/>
		<path class="st0" d="M208.86,47.85V37.83h1.53v1.42c0.74-1.1,1.8-1.65,3.19-1.65c0.6,0,1.16,0.11,1.67,0.33
			c0.51,0.22,0.89,0.5,1.14,0.85c0.25,0.35,0.43,0.77,0.53,1.25c0.06,0.31,0.09,0.86,0.09,1.65v6.16h-1.7v-6.09
			c0-0.69-0.07-1.21-0.2-1.55c-0.13-0.34-0.37-0.62-0.7-0.82c-0.34-0.2-0.73-0.31-1.18-0.31c-0.72,0-1.35,0.23-1.87,0.69
			c-0.53,0.46-0.79,1.33-0.79,2.61v5.47H208.86z"/>
		<path class="st0" d="M220.05,47.85V34.02h1.7v13.83H220.05z"/>
		<path class="st0" d="M224.87,35.97v-1.95h1.7v1.95H224.87z M224.87,47.85V37.83h1.7v10.02H224.87z"/>
		<path class="st0" d="M229.64,47.85V37.83h1.53v1.42c0.74-1.1,1.8-1.65,3.19-1.65c0.6,0,1.16,0.11,1.67,0.33
			c0.51,0.22,0.89,0.5,1.14,0.85c0.25,0.35,0.43,0.77,0.53,1.25c0.06,0.31,0.09,0.86,0.09,1.65v6.16h-1.7v-6.09
			c0-0.69-0.07-1.21-0.2-1.55c-0.13-0.34-0.37-0.62-0.7-0.82c-0.34-0.2-0.73-0.31-1.18-0.31c-0.72,0-1.35,0.23-1.87,0.69
			c-0.53,0.46-0.79,1.33-0.79,2.61v5.47H229.64z"/>
		<path class="st0" d="M247.73,44.63l1.75,0.22c-0.28,1.03-0.79,1.82-1.54,2.39c-0.75,0.57-1.7,0.85-2.87,0.85
			c-1.47,0-2.63-0.45-3.49-1.35c-0.86-0.9-1.29-2.17-1.29-3.8c0-1.69,0.43-2.99,1.3-3.92c0.87-0.93,1.99-1.4,3.38-1.4
			c1.34,0,2.43,0.46,3.28,1.37c0.85,0.91,1.27,2.2,1.27,3.85c0,0.1,0,0.25-0.01,0.45h-7.47c0.06,1.1,0.37,1.94,0.93,2.53
			c0.56,0.58,1.26,0.88,2.09,0.88c0.62,0,1.15-0.16,1.59-0.49C247.12,45.86,247.47,45.34,247.73,44.63z M242.15,41.88h5.59
			c-0.08-0.84-0.29-1.47-0.64-1.9c-0.54-0.65-1.24-0.98-2.1-0.98c-0.78,0-1.44,0.26-1.97,0.78
			C242.5,40.31,242.21,41.01,242.15,41.88z"/>
	</g>
</g>
</svg>
