<?xml version="1.0" encoding="utf-8"?>
<!-- Generator: Adobe Illustrator 24.2.3, SVG Export Plug-In . SVG Version: 6.00 Build 0)  -->
<svg version="1.1" id="レイヤー_1" xmlns="http://www.w3.org/2000/svg" xmlns:xlink="http://www.w3.org/1999/xlink" x="0px"
	 y="0px" viewBox="0 0 480 120" style="enable-background:new 0 0 480 120;" xml:space="preserve">
<g>
	<path d="M123.16,64.01v0.18l0.66,0.84l0.18,0.18l0.06,0.18c0.66,1.21,0.9,2.65,0.42,4.22l-0.3,0.6l0.12-0.06l-0.6,1.09l-1.09,1.45
		l-0.24,0.12l-0.48,0.72v0.06h-0.18l-0.06,0.06l-0.24,0.12l-1.33,1.15l-0.84,0.3l-0.84,0.54l-0.6,0.18l-0.36,0.06l-0.42,0.06
		l-0.24,0.06c-0.18,0.12-0.36,0.24-0.6,0.24l0.12,0.12l-0.18,0.18l-0.24,0.06h-0.06v-0.06l0.06-0.12h-0.06v0.06h-0.06
		c-2.41,0.9-5.97,1.75-9.59,2.47l-0.48,0.24l-0.24-0.06h-0.12l-0.18,0.12l-1.33,0.36l-0.18-0.06l-0.3,0.12h-0.24l-0.24,0.12
		l-0.3,0.06h-0.12l-0.36,0.12l-0.6,0.24l-0.48,0.12l-0.6,0.06h-1.87l-0.54,0.12l-0.24,0.18h-0.18l-0.12-0.06l-1.57,0.18l0.12,0.18
		l-0.3,0.12l-0.36-0.12l-1.03,0.12l-0.96,0.24l-0.78,0.12l0.18,0.24l-0.18,0.24l-0.54,0.18l-0.12-0.18v-0.12l0.24-0.18l-0.42,0.06
		l-0.54-0.06l-0.24,0.06l-0.3,0.12H90.1l-0.36,0.06l-2.29,0.36l-0.12,0.06h-0.3c-0.6,0.12-1.21,0.24-1.87,0.3l-0.24,0.12l-1.99,0.24
		l-0.96,0.18l-0.3,0.06l-3.74,0.48l-2.35,0.36l-0.72,0.24L74,84.52l-0.3,0.18l-1.63,0.24l-0.48-0.12l-0.3,0.12l-2.53,0.36h-0.9
		c-0.3,0-0.6,0.06-0.9,0.12l-0.78,0.06l-0.72,0.12l-0.96,0.18l-1.51,0.24h-0.84c-0.66,0.06-1.39,0.12-2.05,0.24
		c-0.36,1.15-0.66,2.35-1.21,3.5c-0.24,0.42-0.48,0.96-0.96,1.15L57.11,92l-1.57,0.78c-0.54-0.42-0.36-1.21-0.42-1.87
		c0.24-0.72,0.6-1.45,0.96-2.05V88.8l0.12-0.12V88.5l-0.12-0.06l0.06-0.06h0.06l0.18-0.3h0.06l0.24-0.24l0.12-0.06
		c0.12-0.24,0.24-0.42,0.42-0.6v-0.48l-0.18-0.06c-0.42,0.06-0.78,0.12-1.15,0.12l0.06,0.12l-0.3,0.18H55.3l-0.12-0.12v-0.06
		c-2.53,0.3-5.13,0.48-7.72,0.72l-0.06,0.06l-4.22,0.42c-0.18,0.06-0.42,0.06-0.6,0.06l-0.36,0.12l-0.72,0.12l-0.18,0.06l-1.21,0.12
		l-0.24-0.06H39.5l-0.12,0.12l-1.57,0.06l-4.04,0.42v0.06h-0.18c-2.11,0.18-4.16,0.42-6.39,0.72l-0.18,0.18l-0.18-0.12l-1.39,0.24
		l-2.96,0.54H22l-0.6,0.12h-0.12c-2.23,0.3-4.46,0.84-6.7,1.45l-0.42,0.12l-0.97,0.36h-0.24l-2.47,0.72l-0.12,0.06l-2.05,0.66
		l-0.06,0.06l-0.06-0.06l-1.45,0.48L4.45,95.5H4.39c-0.48,0.12-0.9,0.24-1.33,0.42c-0.06,0-0.12,0-0.12-0.06L2.7,96.04H2.46
		l-0.18-0.12L2.22,95.5l0.24-0.18l0.42,0.06C2.94,95.32,3,95.32,3,95.32l3.02-1.03l0.72-0.24c0.06-0.06,0.12-0.06,0.18-0.06
		c0.12-0.06,0.24-0.12,0.36-0.12l0.12-0.12h0.24c0.97-0.36,1.93-0.66,2.96-0.96l0.42-0.12l0.18-0.18l0.9-0.18l0.18-0.18h0.36
		l0.36-0.18h0.42l1.87-0.54l0.6-0.18l0.66-0.18v0.06c0.12-0.06,0.3-0.12,0.42-0.12v-0.12h0.12l0.78-0.24l2.9-0.48
		c0.06,0,0.18,0,0.3-0.06l0.6-0.18l3.2-0.48l1.75-0.18l0.9-0.18l0.18-0.06l0.78-0.18l0.12-0.06h0.72l0.42-0.12l0.06,0.12l0.24-0.12
		l1.03-0.06l0.36,0.06c1.03-0.12,2.05-0.3,3.26-0.42l0.42-0.06l0.96-0.3l0.78,0.12h0.42c1.33-0.18,2.65-0.3,4.4-0.48h0.12l0.54-0.12
		l1.75-0.18l1.03-0.24l2.65-0.18l2.53-0.36l0.72-0.12l0.84-0.18l2.35-0.24l1.51-0.18l0.6,0.06l1.81-0.24l0.18-0.18l0.42-0.78
		l0.12-0.06l0.24-0.42l0.36-0.9l0.84-1.51l0.36-0.48l0.78-1.45l0.3-0.36l0.3-0.48l0.9-1.51l0.3-0.54l0.18-0.18l0.12-0.3l0.12-0.12
		l0.3-0.54l0.18-0.24l0.48-0.72l0.9-1.45L65.67,73l0.12-0.12l0.18-0.24l0.36-0.54l0.36-0.66l0.06-0.18l0.36-0.54l0.42-0.72
		l0.06-0.36l0.12-0.12l0.24,0.06l0.3-0.48l0.12-0.12l1.81-2.83h-0.06L69.96,66v-0.24l0.12-0.12l0.24-0.18l0.06-0.24h0.12V65.1
		l0.42-0.54l0.18-0.06l0.97-1.33l0.36-0.48l0.24-0.48l0.3-0.36l0.3-0.3l0.24-0.3c1.27-1.87,2.65-3.74,4.04-5.55l0.18-0.3l0.24-0.3
		l0.06-0.06l0.24-0.42l0.84-1.08l0.48-0.72l0.42-0.48l0.24-0.42h0.12c1.75-2.35,3.62-4.64,5.49-7.06l2.35-2.77
		c0.12-0.18,0.3-0.42,0.24-0.66l1.15-1.63c0.3,0,0.3-0.24,0.36-0.48c0.72-0.6,1.21-1.45,1.93-2.05l2.65-3.8
		c0.72-0.36,0.96-1.27,1.51-1.81c0.48-0.36,0.9-0.91,1.21-1.45l0.42-0.18l1.09-1.51l-0.06-0.3c0.18,0.06,0.3-0.18,0.42-0.18
		c0-0.18,0.12-0.36,0.18-0.54c0.36-0.24,0.6-0.54,0.84-0.91l0.06-0.06c0.42-0.36,0.96-0.36,1.15-0.91l0.48-0.66
		c0.78-0.42,1.03-0.91,1.99-1.27c0.78-0.48,1.33-1.09,1.99-0.91l0.12,0.06c1.03,0.36,1.93,1.03,0.78,1.93l-1.33,0.91l-0.54,0.18
		c-0.78,0.18-1.27,1.21-1.69,0.84c-0.72,0.54-1.63,0.54-1.81,1.45l-0.97,0.78c-3.38,4.46-7.06,8.32-10.8,12.55l-0.6,1.33
		c-0.6,0.3-1.09,1.27-1.51,1.75l-1.45,2.23l-0.12,0.3l-1.27,1.08c-0.24,0.24-0.3,0.36-0.6,0.6c-0.06,0.24-0.12,0.54-0.42,0.6
		l-2.83,3.56h0.06l-0.06,0.12l-0.12,0.12c-0.18,0.18-0.3,0.36-0.42,0.54l-0.12,0.24l-0.18,0.24h0.12v0.24l-0.12,0.18h-0.12v-0.06
		l0.06-0.18l-0.12,0.18l-0.18,0.12l-0.12,0.12v0.18l-0.06,0.06l-0.12,0.06l-0.66,0.84l-0.06,0.24l-0.42,0.54l-0.18,0.36l-0.72,0.96
		l-0.12,0.24l-1.63,2.23l-0.12,0.36l-0.3,0.3v0.18l-0.42,0.54l-0.18,0.18l-0.06,0.18l-0.66,0.9l-0.18,0.12l-0.12,0.18l-0.18,0.12
		l-0.24,0.48h-0.12l-0.18,0.36l-0.18,0.3l-0.36,0.54l-0.3,0.36l-1.03,1.33l-0.12,0.36l-0.12,0.06H70.5
		c-1.03,1.63-2.05,3.26-3.02,4.95c0,0.72-0.6,1.27-0.96,1.87c-0.12,0.42-0.97,1.15-1.33,1.81c-0.18,0.54-0.42,0.96-0.48,1.57
		c-0.36,0.18-0.6,0.96-0.72,1.39l-0.9,1.99c-0.42,0.48-0.72,0.9-1.09,1.45l-0.3,0.97l-1.09,1.87c1.93-0.24,3.86-0.48,5.85-0.78
		l0.42-0.12h0.6l0.97-0.24l0.18-0.06h1.21l0.66-0.24l0.18,0.06l0.78-0.12l1.15-0.18h0.18L74,83.44l0.84-0.12l1.99-0.3
		c0.06,0,0.06-0.06,0.12-0.06l0.6-0.06c0.18,0,0.36-0.06,0.54-0.06l1.87-0.3l0.6-0.12l0.66-0.06l1.81-0.3l2.53-0.54l0.9-0.12
		l0.96-0.24l3.02-0.36l2.05-0.36l0.42-0.06l1.45-0.3l0.48-0.12L94.93,80c2.11-0.42,4.71-0.84,7.48-1.45l1.27-0.48h0.12l0.48-0.12
		v-0.12l0.18,0.06l1.57-0.54h0.18l0.18-0.12l1.09-0.24v-0.06l0.48-0.18l0.36-0.06l1.09-0.36h0.12l0.9-0.36l1.03-0.3l1.51-0.54
		l0.36-0.24l0.48-0.18l0.12-0.12l2.47-0.84l0.06-0.06l0.24-0.06l1.99-0.72l0.18-0.18l0.06-0.18l0.6-0.24l0.36,0.12l1.15-0.84
		l0.12-0.24l0.18-0.24l0.06-0.3l0.18-0.18l0.18-0.12l0.36-0.06l0.3-0.12c0.36-0.36,0.6-0.66,0.9-1.03c0.18-0.3,0.3-0.66,0.36-1.03
		v-0.18l-0.06-0.18v-0.3c-0.12-0.6-0.42-1.21-0.78-1.81l-0.06-0.06l-0.24-0.36l-0.3-0.18l-0.54-0.54l-0.18-0.48
		c0-0.06-0.06-0.06-0.06-0.12c-0.54-0.48-1.21-0.96-1.87-1.39h-0.06l-0.24-0.12l-0.3-0.24l-0.06-0.06
		c-1.15-0.66-2.47-1.33-3.86-1.99l-0.6-0.18l-0.9-0.3l-1.09-0.66c-0.24-0.06-0.54-0.18-0.78-0.3l-1.09-0.42l-0.72-0.12l-0.9-0.18
		l-0.48-0.12l-0.3-0.3l-0.3-0.36l-0.48-0.18l-0.24-0.06h-0.18l-0.18,0.18l-0.18-0.18l-0.24,0.06h-0.06l-0.42-0.12l-0.06,0.06
		l-0.12-0.06l0.12-0.06l-0.18-0.18l-0.24-0.18l-0.06-0.12h-0.06l-0.42-0.36l-0.42-0.48l-0.18-0.24l-0.42-0.24l-0.18-0.6l-0.06-0.36
		l0.12-0.36l0.12-0.24c-0.06-0.24-0.06-0.48-0.06-0.72l-0.12-0.12v-0.18l-0.06-0.12l-0.06-0.06v-0.36h-0.06v-0.06h0.12l0.06-0.18
		v-0.18l0.06-0.06v-0.06l0.12-0.42l0.24-0.36l0.12-0.24l0.12-0.06v0.06c0.06-0.18,0.18-0.36,0.3-0.54l0.06-0.24l0.66-0.78l0.66-0.72
		l0.06-0.06l0.36-0.3l0.12-0.3l0.18-0.18h0.18c0.06-0.06,0.12-0.18,0.24-0.24l0.18-0.36l0.12-0.12l0.24-0.3l0.72-0.42l0.48-0.36
		h0.06l0.36-0.24l0.42-0.6l0.54-0.36l0.24-0.12l0.12-0.18h0.24l0.96-0.66l0.48-0.24l0.72-0.48l0.24-0.18l0.6-0.36l0.06-0.12
		l0.3-0.06l0.24-0.24l0.48-0.24l0.18-0.12l0.42-0.36l2.47-1.63l0.66-0.3l0.54-0.18l1.33-0.78l0.24-0.24l0.3-0.24l0.36-0.06h0.06
		l0.72-0.42l0.06-0.06v-0.18l0.18-0.12l0.06-0.12v-0.06l0.36-0.24h-0.06l0.06-0.06l0.06,0.12l0.36-0.12h0.12l0.42-0.18h0.12
		l0.42-0.24l0.72-0.3l0.48-0.54l1.09-0.54l0.48-0.06l0.6-0.3l0.18-0.18h0.06l0.36-0.18l0.84-0.72l1.09-0.48l0.06,0.06
		c0.42-0.3,0.84-0.54,1.21-0.9l0.36-0.42l0.6-0.78l0.48-1.09l0.12-0.18l0.18-0.3c0.12-0.36,0.18-0.78,0.18-1.21
		c0-0.66-0.12-1.39-0.48-1.93l-0.06-0.06l-0.36-0.42l-0.36-0.48l-0.06,0.06l-0.06-0.06l0.06-0.06l-0.06-0.06l-0.24-0.12l-0.12-0.12
		l-0.54-0.18l-0.6-0.12l-0.84-0.3l-1.33-0.3l-0.48-0.18l-0.42-0.12l-1.45-0.48l-1.57-0.36l-0.54-0.24l-1.03-0.24l-0.3-0.12
		l-0.84-0.18l-0.3-0.18l-1.27-0.3h-0.42l-0.48-0.06L119,20.71c-1.33-0.12-2.65-0.3-3.68-0.48l-1.21,0.06h-0.6l-0.6-0.24l-1.15-0.06
		l-1.33-0.3h-0.3l-0.3-0.06c-1.81-0.12-3.62-0.24-5.43-0.3h-0.3l-0.6,0.06h-1.33l-0.18,0.06l-0.36-0.06h-0.3l-0.24-0.12l-1.03-0.06
		h-2.77l-0.84,0.12l-1.09,0.24l-0.97-0.12L93.6,19.5l-2.29,0.18l-2.29,0.24l-2.53,0.12l-1.15,0.18l-2.47,0.12l-4.52,0.78l-2.23,0.54
		l-0.24-0.06l-0.42,0.18h-0.42c-1.63,0.36-3.26,0.78-4.83,1.21l-0.42,0.18l-0.42,0.12l-0.54,0.18l-1.87,0.54l-1.93,0.48l-0.18,0.18
		l-0.18,0.06l-2.11,0.66c-0.97,0.42-1.87,0.96-2.83,1.39c-0.66,0.54-1.33,0.97-1.93,1.57c-0.6,0.36-1.21,0.66-1.81,0.97l-0.24,0.12
		l-1.03,0.72l-0.6,0.48c-0.12,0.06-0.18,0.12-0.3,0.12l-0.12,0.36l-0.12,0.48l-0.84,0.6h-0.54l-0.24-0.06l-0.12,0.12
		c0.24,0.42-0.48,0.66-0.48,1.39c-0.24,0.66-0.72,1.27-1.27,1.63l-0.06,0.36l-0.06,0.42l-0.12,0.06l-0.24,0.24l-0.36,0.24
		c0.36,0,0.66,0.06,1.03,0.06c0.72-0.06,1.33,0.36,1.15,1.15c-0.6,0.84-1.75,0.78-2.53,0.84c-0.72-0.36-1.69-0.66-2.17-1.09
		c-1.03-0.6-1.15-1.87,0.54-3.62l0.24-0.54l0.54-0.6l0.12-0.12v-0.12l0.3-0.24l0.24-0.24l-0.12-0.3h0.12v0.12l0.6-0.3h0.3l0.36-0.3
		l0.24,0.12l0.96-0.78l0.6-0.48l0.24-0.3l0.48-0.18l0.6-0.42l0.12-0.12l0.24-0.12c0.6-0.42,1.27-0.78,1.87-1.15l0.54-0.42l0.48-0.24
		l0.3-0.3l0.96-0.48l0.6-0.24l0.42-0.18l0.54-0.06c0.24-0.06,0.42-0.12,0.66-0.24l0.36-0.12v-0.18l0.18-0.12l0.36,0.06
		c0.06,0,0.18-0.06,0.24-0.12l0.12-0.06h0.12c0.42-0.18,0.9-0.3,1.39-0.48l0.18-0.12l0.6-0.24l0.6-0.3l0.24-0.06l0.42-0.3h0.18
		l0.24-0.24l0.18-0.12l0.48,0.06l0.54-0.18l1.51-0.3c0.48-0.12,1.03-0.24,1.51-0.42l0.3-0.12l0.66-0.18l1.87-0.54l0.12,0.06
		c1.63-0.42,3.26-0.78,4.89-1.15l0.54-0.18l0.84-0.06l0.84-0.24l1.45-0.24l0.66-0.18h0.66l2.23-0.36l1.39-0.36l3.68-0.24l1.09-0.12
		l2.05-0.18l1.09-0.06l0.84-0.24h0.97l0.66-0.12l1.99-0.06l1.21,0.18h1.21l0.6,0.24l1.93-0.06l0.48-0.18l0.18,0.06l0.24,0.06v0.12
		l2.35,0.12l0.66-0.24h0.24l0.42,0.18l1.21,0.12h0.9l0.18,0.18h0.06c0.18,0,0.36,0,0.6,0.06h0.54l0.97,0.12h0.06l0.18,0.06h0.12
		l0.3-0.06l0.06,0.12l2.29,0.24l1.75,0.24l0.24-0.06l0.3,0.12c0.18,0,0.42,0.06,0.6,0.06h0.06l0.18-0.12l0.24,0.18
		c0.12,0.06,0.24,0.06,0.42,0.06l0.18-0.06l3.38,0.48l0.78,0.18h0.66l2.41,0.48l1.69,0.6l0.42,0.3l1.87,0.66h0.06v0.06l1.63,0.72
		h0.3l0.48,0.18l0.18,0.12l0.42,0.48l0.06,0.12l0.96,0.84l0.18,0.06l0.06,0.06l0.12-0.06v0.06l-0.06,0.06l0.18,0.18l0.06,0.18
		l-0.06,0.12c0.3,0.42,0.54,0.91,0.66,1.45l0.12,0.12v1.09l-0.06,0.18c-0.06,0.18-0.12,0.36-0.24,0.54v0.3l-0.18,0.12v0.06
		l-0.06,0.24l-0.36,0.48l-0.48,0.42l-0.48,0.48l-0.42,0.66l-1.09,0.84l-0.66,0.48l-0.9,0.42c-0.48,0.3-0.84,0.6-1.27,0.84
		l-0.24,0.12c-0.84,0.54-1.57,0.9-1.93,1.09l-1.57,0.96l-0.24,0.24l-0.6,0.36l-0.24,0.24l-0.18,0.06l-0.06,0.06l-0.18-0.06h-0.06
		l-3.44,1.93l-0.18,0.24l-0.54,0.18l-0.9,0.54l-1.93,1.21l-0.78,0.36l-0.24,0.12l-1.63,1.08l-0.9,0.36l-0.9,0.54l-0.54,0.42
		l-0.78,0.3l-0.06,0.06l-0.72,0.66l-0.84,0.36c-0.9,0.6-1.75,1.21-2.41,1.81l-1.15,1.15c-0.3,0.36-0.54,0.72-0.72,1.09l0.12,0.06
		l0.06,0.42v0.72l0.06,0.36l-0.06,0.12v0.12l-0.12,0.12l-0.24,0.18c0.18,0.66,0.54,1.21,1.03,1.81l0.3,0.06l0.12,0.12l0.12,0.06
		l0.12,0.18l0.36,0.48l0.12,0.18c0.24,0.24,0.48,0.42,0.78,0.6h0.06l0.24,0.06l0.24,0.36l0.3,0.18c0.54,0.36,1.09,0.6,1.45,0.78
		l0.3,0.18V56.9l0.36,0.12l0.54,0.24l0.18,0.06l0.24,0.12l0.06,0.06l0.3,0.24h0.36l0.66,0.3l0.48,0.18l0.84,0.42l0.06,0.12
		l0.12-0.06l0.3,0.18l0.3,0.06l0.42,0.18l0.18,0.24c0.06,0.06,0.06,0.06,0.12,0.06l0.12-0.06l0.24,0.06l0.36,0.12l0.12,0.12
		l0.3,0.06l0.72,0.72l0.72,0.42h0.06l0.42,0.18l0.18,0.24c1.27,0.78,2.41,1.63,3.26,2.59h0.06L123.16,64.01z"/>
	<path d="M135.73,61.6v0.3l-0.3,0.3l-0.18,0.24c-0.06,0-0.06,0.06-0.06,0.12v0.18l-0.24,0.36l-0.06,1.51
		c-0.06,0.06-0.12,0.9,0.12,1.21c0.36,0.42,0.18,0.42,1.69,0.9l1.03,0.24h0.78l0.9-0.12l4.4-0.96l0.84-0.36l2.35-0.78l0.48-0.3
		l0.24-0.12h0.12l3.62-1.51h0.24l0.42-0.24l0.54-0.12l1.99-0.72l0.24-0.06c2.17-0.91,3.02-1.45,5.13-2.41l1.33-0.48l0.06-0.12
		l0.36-0.18l1.09-0.36l1.15-0.48V57.5h0.18l0.72-0.36l0.06-0.12l3.26-1.99l0.3-0.06c0.42-0.24,0.84-0.54,1.33-0.9
		c0.12-0.12,0.3-0.06,0.36,0.06v-0.06l0.24-0.18l0.24,0.06l0.18,0.54l-0.3,0.12l-0.54,0.18l-0.3,0.12l-1.39,0.96l-0.3,0.42h-0.3
		l-0.24,0.12c-0.54,0.36-1.15,0.66-1.69,0.97l-0.06,0.06l-0.42,0.24l-0.24,0.18h-0.18l-1.93,0.96l-0.06,0.12l-0.24,0.06l-0.48,0.24
		l-0.12,0.06l-0.84,0.54l-2.29,0.96c-0.72,0.36-1.45,0.78-2.17,1.09l-0.18,0.18l-3.02,1.45l-0.24,0.18l-0.12-0.18l-0.66,0.42
		l-0.72,0.12l-0.48,0.24h-0.06c-0.78,0.36-1.57,0.66-2.35,0.96l-0.9,0.48l-1.87,0.91l-0.48,0.12l-0.72,0.12l-1.03,0.3l-0.6,0.06
		l-0.24,0.12l-0.24,0.18l-0.78,0.18h-0.12c-0.72,0.24-1.57,0.42-2.41,0.54l-0.18,0.18l-0.3,0.06h0.06l-1.21,0.24l-0.36-0.12
		l-0.66,0.24l-1.45-0.24l-1.33-0.66l-0.6-0.84l-0.3-0.78l-0.18-0.84V64.5l0.06-0.12l-0.06-0.12v-0.42l0.42-1.51l0.42-0.72l0.48-1.09
		l0.36-0.6l0.12-0.12l0.18-0.48l0.36-0.3l0.18-0.42l0.36-0.54l0.18-0.18l0.66-0.3l0.24-0.3l0.42-0.18l0.48-0.36l0.12-0.06l0.6-0.54
		l0.54-0.42l0.42-0.6l0.24-0.24l0.3-0.36l0.24-0.18l0.36-0.12l0.12-0.18l0.3-0.3l0.48-0.18l0.3-0.12c1.33-0.96,2.71-1.99,4.16-2.83
		l0.12-0.12l0.6-0.42l0.78-0.3c0.06,0,0.12,0,0.12-0.06l0.72-0.48l0.42-0.24l0.18-0.06l0.84-0.12c0.66-0.24,1.33-0.48,1.99-0.66
		l0.54-0.3h0.6l0.36-0.12l0.18,0.12c0.48,0,0.97,0,1.39,0.06l0.06-0.06l0.18-0.06l0.12,0.06l0.18-0.06l0.06-0.06l0.36,0.12v-0.06
		H156l-0.06,0.12l0.18,0.12h0.18l0.06,0.12h0.06l0.36,0.18l0.06,0.06c0.3,0.24,0.54,0.42,0.6,0.72l0.18,0.06l-0.06,0.12h0.06
		l-0.06,0.06v0.3l0.06,0.24l-0.12,0.42l-0.12,0.18v0.36l-0.24,0.91l-0.48,0.78l-0.6,0.6l-0.66,0.42l-0.54,0.36l-2.11,1.09l-0.3,0.24
		l-0.42,0.12c-1.39,0.96-2.9,1.81-4.4,2.59l-0.06,0.12l-1.75,0.84l-0.78,0.54l-1.57,0.66l-1.15,0.42l-1.63,0.3l-0.97,0.06h-0.42
		l-0.36-0.18l-0.12-0.3l0.12-0.18l0.42-0.84l0.84-0.78l0.78-0.3h0.48l0.42,0.12l0.48,0.12h0.78l0.72-0.12l0.78-0.3h0.24l0.12-0.18
		l1.75-0.6l1.63-0.78l0.78-0.42l0.3-0.36l0.78-0.3l0.12-0.24l0.9-0.3l0.24-0.24l0.78-0.6l2.71-2.29l0.24-0.3l0.12-0.42l0.12-0.18
		l0.3-0.91l-0.06-0.06l-0.06-0.12l-0.12-0.3l-0.3-0.36l-0.42-0.18l-0.42-0.12h-0.66l-0.42,0.06l-0.24-0.06
		c-1.63,0.36-3.38,1.27-4.4,1.75l-0.72,0.36l-0.18,0.18l-0.3,0.24l-0.24-0.06c-0.06,0.06-0.06,0.06-0.12,0.06v0.12l-0.36,0.12
		l-0.12,0.12h-0.12l-1.33,0.72l-0.66,0.54l-0.42,0.42l-0.6,0.18l-0.24,0.12c-0.54,0.36-1.03,0.78-1.57,1.21l-0.3,0.36l-0.78,0.72
		l-0.42,0.42l-0.66,0.6l-0.84,0.84l-0.84,0.96l-0.18,0.18l-0.36,0.54l-0.42,0.6l-0.6,0.6L135.73,61.6z"/>
	<path d="M190.92,61.78l0.06-0.12l0.12-0.18l1.09-1.33l0.24-0.48l0.18-0.18l0.06-0.12l0.18-0.12l0.72-0.78l0.24-0.3v-0.12l0.06,0.06
		l0.18-0.6L194,57.44l-0.3-0.06h-0.54l-0.72,0.18l-1.75,0.66l-0.42,0.12l-0.3,0.06l-1.75,1.08h-0.06l-0.48,0.3l-0.42,0.18
		l-0.42,0.24l-1.39,0.66l-1.39,0.78l-0.54,0.24l-0.9,0.48l-0.3,0.12l-0.72,0.42l-0.36,0.12l-1.09,0.66l-0.36,0.24l-0.36,0.3
		l-0.54,0.18l-0.54,0.24l-1.45,0.78l-0.12,0.12l-0.6,0.36h-0.12V66h-0.54l-0.72,0.3h-0.48c-0.18,0.12-0.42,0.18-0.6,0.24l-0.24,0.18
		l-1.21,0.42l-0.24,0.06l-0.9,0.36l-0.12,0.06l-0.18,0.06h-0.18l-0.36-0.06h-0.06c-0.96,0.12-1.75-0.06-1.99-0.72
		c-0.24-0.78,0-1.69,0.42-2.65l0.24-0.72l0.18-0.06l0.06-0.24l0.24-0.36l0.12-0.24l0.12-0.06v0.06l0.12-0.3l0.42-0.6l0.66-0.48
		l0.12-0.12l0.48-0.78l0.24-0.3l0.48-0.36l0.72-0.6l2.71-2.41V56.6h0.06l0.78-0.66l0.18-0.18l1.03-0.84l0.48-0.3l1.57-1.15
		l0.06-0.06l0.72-0.78l0.3-0.3l0.24-0.42l0.12-0.06l0.42,0.06l0.18-0.12l0.42-0.12l0.24-0.06l0.3-0.06l0.24-0.18v-0.12l0.48-0.18
		l1.93-0.96l0.36-0.3l0.24-0.12l0.48-0.12l0.12,0.06l0.12-0.06l0.54-0.18h0.18l0.3-0.18l0.42-0.06l0.36-0.12l0.42-0.12l0.24-0.06
		l0.6,0.18l0.36-0.06h0.36l0.24,0.06h0.12v0.06h0.24l0.18,0.12l0.06,0.12l0.24,0.06l0.12,0.3v0.54l-0.18,0.12
		c-0.06,0.18-0.24,0.3-0.66,0.72c-0.18,0.12-0.36,0.06-0.42,0l-0.66,0.18l-0.42,0.06h-1.09l-0.96-0.12v0.06H187v-0.06h-0.12
		l-0.42,0.06h-0.42l-0.84,0.36l-0.97,0.42l-1.39,0.6l-0.97,0.42c-0.36,0.18-0.66,0.42-1.03,0.66c-0.06,0.06-0.06,0.06-0.06,0
		l-0.54,0.42l-0.06,0.06l-0.12,0.06l-2.71,1.99l-0.24,0.24l-0.54,0.6l-0.42,0.42l-0.42,0.24l-0.54,0.3L175,58.22l-0.54,0.6
		l-0.12,0.12l-0.12,0.18l-0.72,0.9l-0.18,0.12l-0.12,0.12l-0.18,0.12l-0.12,0.24l-0.18,0.24h-0.12l-0.12,0.3l-0.24,0.3l-0.12,0.24
		l-0.3,0.3l-0.3,0.36l-0.6,0.72v0.12l0.06,0.36l-0.06,0.12v0.12l-0.12,0.12l-0.24,0.18l-0.18,0.24l-0.3,0.36l-0.24,0.36v0.12
		l-0.06,0.12v0.36l0.12,0.18l0.18,0.3l0.18,0.12l1.27-0.48l0.54-0.12l0.84-0.3h0.06l0.3-0.06c0.78-0.3,1.57-0.66,2.35-1.03l0.3-0.18
		l0.42-0.24l0.3-0.24h0.48c0.66-0.3,1.39-0.6,2.05-0.96l0.3-0.24l0.42-0.18V62.2l0.12-0.06l0.18-0.18l0.24-0.06l0.9-0.42l0.48-0.24
		l0.42-0.24l1.63-0.84l0.42-0.3l1.69-0.78l0.36-0.12l1.09-0.54l0.54-0.42l1.09-0.54l0.3-0.24l0.48-0.3l0.3-0.24l0.72-0.48l0.78-0.48
		l1.87-0.42h0.72l0.54,0.12l0.42,0.24l0.24,0.18c0.24,0.06,0.36,0.18,0.48,0.42v0.06l0.12,0.06v0.24l-0.06,0.18h0.12l-0.06,0.12
		l-0.06-0.06l-0.12,0.12l-0.12,0.18l-0.12,0.24l-0.36,0.3c-0.06,0.12-0.18,0.24-0.3,0.36l-0.42,0.66l-0.36,0.3L194,59.07l-0.72,0.84
		l-0.12,0.12v0.06l-0.12,0.06l-0.36,0.48l-0.12,0.18l-0.12,0.24l-0.48,0.66c-0.12,0.12-0.18,0.3-0.24,0.42l-0.18,0.48l-0.06,0.06
		c-0.12,0.24-0.18,0.48-0.12,0.6c0,0.18-0.06,0.06,0.18,0.12c0.06,0,0.12,0.06,0.18,0.06l0.3-0.06h0.42l0.12-0.06h0.42l0.3-0.06
		l0.12,0.06c0.42-0.06,0.78-0.18,1.33-0.3l0.48-0.12l0.42-0.18h0.36l2.11-0.6l0.18-0.12l0.66-0.18v0.06l0.78-0.24l0.48-0.24
		l0.24-0.06l0.24-0.18l1.99-0.54v-0.12l0.18,0.12l0.54-0.18l0.18-0.18l2.9-0.84h0.3l1.51-0.48c0.06,0,0.12,0,0.18,0.06h0.12
		l0.06,0.42l-0.24,0.18h-0.48l-1.03,0.24l-0.72,0.36h-0.24l-0.96,0.24l-0.48,0.18l-1.39,0.66l-1.03,0.42l-1.15,0.36l-1.33,0.48
		l-0.24,0.12l-0.6,0.24l-0.3,0.18l-0.48,0.18h-0.06l-0.42,0.18l-0.48,0.3l-0.18,0.06l-0.12,0.12l-1.57,0.54v0.12l-0.06-0.06
		l-0.48,0.18l-0.06,0.12l-1.03,0.36l-0.9,0.3l-0.3,0.24l-0.06,0.06l-0.06-0.12l-0.18,0.06l-0.12,0.12l-0.12-0.06l-0.06,0.06
		L191.29,66h-0.66l-0.12-0.06h-0.42l-0.3-0.12l-0.24-0.12l-0.18-0.24l0.06-0.3l-0.06-0.24c-0.06-0.24-0.06-0.42,0.06-0.78l0.18-0.42
		l0.06-0.24l0.42-0.54l0.18-0.3l0.48-0.6L190.92,61.78z"/>
	<path d="M215.7,58.28c-0.72,0.54-1.39,1.15-2.05,1.69l-0.12,0.12l-0.42,0.36l-0.3,0.42l-0.18,0.3l-0.3,0.06l-0.06,0.24l-0.3,0.18
		l-0.06,0.18h-0.24l-1.03,1.15v0.12l-0.12,0.12l-0.24,0.48l-0.18,0.24l-0.18,0.3c-0.24,0.48-0.3,0.9-0.06,1.27l0.18,0.24l0.3,0.18
		l0.36,0.12l0.06,0.06c0.54,0.18,1.21,0.12,1.99,0.06l0.78-0.3l0.48-0.06h0.78l0.96-0.24h0.48l0.54-0.18l0.12-0.06l1.57-0.42h0.24
		l0.97-0.3l0.42-0.18l0.54-0.24l0.36-0.3l1.45-0.3l0.48-0.18l0.3-0.24l1.15-0.36c1.39-0.48,2.65-0.84,3.92-1.27l1.87-0.72h0.18
		l0.36-0.12l0.42-0.12l1.57-0.54l0.72-0.12c0.72-0.24,1.51-0.48,2.29-0.78l1.75-0.66v-0.12l0.12,0.06c0.12,0,0.24-0.06,0.36-0.12
		l0.36-0.18l0.06-0.12l2.47-0.96c0.9-0.42,1.87-0.96,2.9-1.51l0.18-0.18l0.18-0.06h0.36l0.18,0.3l-0.18,0.18l-0.72,0.6l-0.66,0.24
		c-2.41,1.45-3.62,1.99-4.83,2.47v0.18l-0.12,0.12h-0.48l-0.9,0.3l-0.66,0.3h-0.24l-0.54,0.18l-1.51,0.6l-0.06,0.06h-0.12
		l-1.63,0.72l-1.03,0.36h-0.06l-0.24,0.12l-0.3,0.18l-0.66,0.24l-0.18,0.06l-0.3,0.06l-0.36,0.06l-0.66,0.24l-1.93,0.66l-0.54,0.24
		h-0.24l-2.05,0.96l-2.77,0.84l-1.99,0.66l-1.57,0.6l-1.75,0.72l-1.09,0.3l-1.39,0.12h-0.42l-0.18,0.12l-1.09-0.18l-1.09-0.42h-0.12
		l-0.9-0.3l-0.3-0.3v-0.3l-0.12-0.3l-0.06-0.36l0.12-0.3c0-0.36,0-0.66,0.06-1.03l-0.12-0.12v-0.18l-0.06-0.12l0.18-0.06v-0.36
		h-0.06v-0.06h0.12l0.06-0.18v-0.18l0.06-0.06v-0.06l0.12-0.42l0.48-0.54l0.12-0.24l0.12-0.06v0.06l0.24-0.36V61.6l0.24-0.18
		l0.12-0.06l0.54-0.6l0.12-0.18l0.48-0.48l0.36-0.54l0.18-0.12l0.48-0.48l0.36-0.12l0.12-0.12l0.18-0.3l0.3-0.24l0.48-0.12
		c0.42-0.36,0.9-0.66,1.45-1.03l0.06-0.12l0.12-0.06l0.42-0.42l0.18-0.06c0.24-0.12,0.48-0.3,0.72-0.48l0.36-0.36l0.42-0.12
		l0.24-0.18h0.06l2.9-1.75l0.42-0.36l1.33-0.66l0.48-0.3l1.51-0.78l0.12-0.06l1.69-0.78l0.42-0.24l0.54-0.3l0.48-0.48l0.3-0.18h0.72
		l0.24-0.24l0.18-0.06l0.06-0.12l0.06-0.18l0.18-0.06l0.06-0.12l0.06-0.06l0.3-0.12v-0.06l0.06-0.12l0.06,0.12h0.18l0.18-0.06h0.12
		l0.42-0.06h0.72l0.06,0.12l0.72-0.36h0.97l0.18,0.24c0.12,0,0.18,0.06,0.18,0.12l0.3,0.36l-0.06,0.42l0.36,0.36l0.06,0.36v0.3
		l-0.48,0.54l-0.72,0.48h-0.18l-0.84-0.24l-0.78-0.48l-0.42,0.12l-0.18,0.54l-0.36,0.3l-0.42-0.36l-0.06-0.24l-0.96,0.24l-1.75,0.91
		l-0.72,0.18l-0.66,0.36l-0.42,0.06l-1.39,0.78h-0.3l-0.3,0.3h-0.36l-0.72,0.3l-1.21,0.66l-0.18,0.24l-0.12-0.12l-0.84,0.42
		l-0.18,0.06l-0.66,0.42l-0.36,0.42l-0.42,0.24l-0.6,0.3c-0.06,0.06-0.06,0.12-0.12,0.12l-0.78,0.6l-0.6,0.42l-0.3,0.3L215.7,58.28z
		"/>
	<path d="M268.58,62.63v0.42l-0.24,0.36l-0.06,0.06l-0.12,0.42l0.06,0.12l-0.18,0.3c-0.06,0.24-0.06,0.48-0.06,0.72l0.06,0.36
		l0.18,0.24l0.24,0.3l0.3,0.18l0.3,0.12c0.24,0,0.42-0.06,0.66-0.12l0.48-0.18l0.12-0.12h0.18l2.17-1.15l0.24-0.06l0.3-0.12
		l2.17-1.45c0.06,0,0.12-0.06,0.18-0.06l1.21-0.84l0.18-0.24h0.24l0.36-0.3l0.72-0.36l0.9-0.66l0.18-0.18l0.6-0.36l0.06-0.06
		l0.96-0.84c0.06-0.06,0.12-0.06,0.18-0.06l0.12-0.12l0.24-0.12l0.24,0.3v0.24l-0.18,0.12l-0.54,0.3l-0.84,0.54l-0.24,0.24
		l-0.72,0.54c-0.6,0.54-1.39,1.15-2.17,1.69l-0.54,0.48h-0.18l-0.3,0.24l-0.18,0.24l-0.12,0.06l-0.18,0.3l-0.36,0.24l-0.24,0.12
		l-0.36,0.3l-0.18,0.18l-0.6,0.36l-0.24,0.24l-0.36,0.12l-0.48,0.12l-0.12,0.12l-0.6,0.3l-0.96,0.72l-0.18,0.12l-0.36,0.3
		l-0.18,0.12h-0.12l-0.18,0.12l-0.48,0.24l-0.42,0.12l-0.6,0.06c-0.36,0.12-0.6,0.24-0.78,0.24c-0.18,0-0.36,0-0.48-0.06l-0.36,0.06
		l-0.3-0.24l-0.12-0.18c0-0.06-0.06-0.06-0.06-0.06l-0.36-0.48v0.06l-0.24-0.36l0.06-1.15l0.06-1.09l0.06-0.42l-0.06-0.48l0.06-0.12
		l0.36-0.18l0.12-0.24l0.24-0.3l0.06-0.24l0.36-0.42l0.12-0.24l0.12-0.18l0.12-0.72l0.42-0.78c0.24-0.91,0.72-1.93,1.03-2.83
		l0.24-0.97c0.42-0.72,0.72-1.27,0.66-2.11l0.06-0.12l0.06-0.42l-0.3-0.3c-0.42,0-0.96,0.18-1.63,0.48l-0.9,0.48l-0.42,0.12
		l-0.66,0.36l-0.48,0.36l-0.12,0.12l-0.48,0.24l-0.42,0.36l-1.15,0.54l-0.3,0.12c-0.3,0.12-0.54,0.3-0.72,0.42l-0.18,0.18l-3.2,1.75
		l-0.3,0.42h-0.3l-0.18,0.3l-0.24,0.24l-0.42,0.48l-0.6,0.12l-0.96,0.91l-1.93,1.63l-1.57,1.33l-1.45,1.03l-0.3,0.18l-0.42,0.24
		l-0.36,0.36v0.18l-0.36-0.12l-0.96,0.48l-0.66,0.42l-0.6,0.12l-1.09,0.06l-0.24,0.24h-0.42l-0.3-0.3l-0.12-0.54l0.12-0.78l0.3-0.9
		l0.12-0.42l0.48-0.84l0.3-0.54l0.36-0.91l0.06-0.12l0.18-0.3l0.18-0.48l0.06-0.6l0.18-0.72l0.54-0.78l0.24-0.91l0.18-0.42l0.3-0.48
		l0.42-0.6l0.24-0.36l0.24-0.42l0.97-1.21l0.48-0.96l0.06-0.24l0.06-0.06l0.06-0.18l0.18-0.06l0.72-0.96l0.12-0.18l0.12-0.24h0.06
		l0.84-1.33l0.18-0.36l0.3-0.36l0.42-0.6l0.24-0.6l0.24-0.36l0.66-0.66c0.3-0.48,0.6-0.96,0.96-1.45l1.03-1.81l0.42-0.3
		c1.09-1.57,2.23-3.14,3.38-4.71l0.18-0.24l0.12-0.24l0.24-0.54l0.48-0.42l0.36-0.6l0.24-0.42l0.06-0.42l0.18-0.12l0.54-0.48
		l0.3-0.42l0.24-0.42l0.48-1.09l0.3-0.54l0.36-0.48l0.42-0.48l0.54-1.09l0.06-0.24l0.12-0.3l0.18-0.18v-0.18l0.3-0.54l0.06-0.06
		h0.06l0.18-0.3l0.18-0.24l0.12-0.06l0.06-0.12l0.42-0.6l0.42-0.54L268.7,28l0.12-0.06l-0.06,0.12l0.06-0.06v-0.06l0.18-0.42
		l0.06-0.24l0.42-0.36l0.18-0.36l0.18-0.24l0.12-0.18l0.72-0.9l0.3-0.54l0.24-0.54l0.12-0.24l0.12-0.36l0.18-0.24l-0.06-0.36
		l0.06-0.18l0.48-0.12l0.72-0.6l0.3-0.48l0.84-0.72l0.36-0.48l0.24-0.36v-0.24l0.24-0.18l0.06,0.36l0.48-0.54l0.48-0.24l0.48,0.48
		l0.18,0.78l-0.9,2.23l-1.45,1.93l-0.54,0.6l-1.33,1.27l-0.66,0.48l-2.53,3.62l0.06,0.06l-0.3,0.48l-0.42,0.72l-0.3,0.54l-0.36,0.36
		l-0.54,0.48l-2.35,3.2v0.24l-0.54,0.84l-0.24,0.42l-0.3,0.24l-0.36,0.48l-0.54,0.84l-1.45,1.69l-0.06,0.42l-0.9,0.91l-0.54,0.72
		l-0.12,0.36l-0.84,1.15l-0.6,1.03l-0.48,0.42l-2.77,4.1c-0.54,0.84-1.09,1.69-1.69,2.53l-0.06,0.24l-0.12,0.12l-0.18,0.24
		c-0.6,0.91-1.21,1.81-1.75,2.77l-0.06,0.12l-0.12,0.06l-0.54,0.96v0.48l-0.6,1.21l-0.36,1.09l-0.72,1.63l-0.42,1.09l-0.12,0.6
		l-0.42,0.84l-0.12,0.84l0.24,0.36l0.24,0.12h0.3l0.78-0.42l0.36-0.36l0.12-0.06l0.18-0.24l0.42-0.18l0.24-0.3l0.36-0.3l0.24-0.24
		l0.66-0.36l0.24-0.12l0.48-0.36l1.87-1.15l0.48-0.42l0.24-0.18l0.36-0.36l0.24-0.12l0.78-0.42l1.99-1.45l0.12-0.18l0.48-0.48
		l0.96-0.48l0.72-0.48l0.18-0.06c0.66-0.48,1.33-0.91,1.99-1.33l0.78-0.78l0.48-0.3l0.18-0.24l0.3-0.06l0.18-0.18l0.48-0.36
		l0.54-0.12l1.39-0.36h0.24c1.03-0.36,2.05-0.36,3.2,0.12c0.12,0.06,0.24,0.12,0.24,0.24l0.3,0.18l0.48,0.3l0.12,0.36l-0.06,0.48
		l-0.36,0.78l-0.06,0.06c-0.48,0.91-0.84,1.87-1.21,2.78c-0.18,0.66-0.54,1.27-0.84,1.93v0.54l-0.54,0.78L268.58,62.63z"/>
	<path d="M342.83,50.74v0.12l0.06,0.18l-0.12,0.18l-0.06,0.24l0.12,0.24h0.06l-0.18,0.84l-0.48,0.3l-0.3,0.18l-0.54-0.3l-0.9-0.48
		l-0.42-0.12l-0.12-0.24h-0.24l0.12-0.3v-0.48l0.12-0.36l-0.06-0.54v-0.6l-0.12-0.12l-0.06-0.24l-0.42-0.18h-0.3l-0.48-0.18
		l-0.78-0.06c-1.87,0.18-1.09-0.3-3.32,0.3l-0.72,0.36l-0.24-0.06l-1.81,0.36l-1.27,0.6l-1.03,0.42l-0.66,0.36l-0.48,0.18
		l-0.72,0.18l-1.03,0.48l-0.3,0.12l-1.63,0.78l-0.9,0.6l-0.06,0.12l-0.96,0.54l-0.36,0.3l-0.24,0.18l-0.36,0.24l-0.36,0.36
		l-0.36,0.54l-0.48,0.3l-0.3,0.3l-0.66,0.42c-0.36,0.42-0.54,0.78-0.6,1.15c-0.18,0.6,0,0.18,0.3,0.54l0.18,0.3l0.42,0.24l0.3,0.48
		l0.18,0.3h0.06c0.36,0.24,0.72,0.36,1.03,0.54l0.78,0.3v0.12l1.03,0.42l0.54,0.12l0.3,0.24h0.06l0.06,0.06l1.57,0.6h0.66l0.48,0.12
		l0.48,0.3l0.06-0.06l0.12,0.12l0.24,0.18l1.15,0.48l0.54,0.06l0.36,0.18h1.21l0.3,0.18l0.84,0.12l1.08,0.24l0.3,0.24l1.03,0.36
		l0.36,0.6l0.12,0.54l-0.06,0.12l-0.06,0.24l-0.24,0.3l-0.42,0.36l-0.84,0.36h-0.3l-0.36,0.24l-0.78,0.24l-0.18-0.06l-0.66-0.06
		l-1.45,0.36l-2.65,0.18h-0.78l-2.41,0.12h-0.72l-0.78,0.06l-1.03-0.06l-0.72,0.18l-0.91,0.18l-1.57-0.3h-0.96l-0.6,0.06l-1.09,0.18
		h-0.36l-0.84,0.18h-0.36l-1.21,0.3l-0.9,0.3l-0.48-0.06l-0.66,0.06l-1.63,0.36l-0.18,0.06l-0.66,0.12l-0.12-0.06l-0.06,0.06h-0.24
		l-0.24,0.12l-0.24,0.06l-0.12-0.12v-0.12H307l0.06-0.06L307,69.8l0.12-0.12l0.12-0.06h0.06l0.24-0.24l1.81-0.36l0.66-0.18
		l0.12,0.06l0.84-0.18l0.6-0.12h0.18l1.69-0.72h0.6l0.48-0.12l0.9,0.12l0.66-0.06l0.48-0.12l1.27-0.12l1.03-0.12l0.9-0.06l1.27-0.12
		l0.18,0.06h0.72l0.42-0.18l0.18,0.06c0.3,0,0.6-0.06,0.96-0.06l0.54-0.24l1.39-0.12l1.03-0.24l1.81-0.06l0.18,0.06l0.36-0.12h0.66
		l0.54-0.3l1.03-0.18l-0.3-0.12l-0.18-0.18l-0.66-0.12l-0.78-0.18l-0.9-0.36l-0.06-0.18l-0.24-0.06h-0.6l-0.36-0.42l-1.51-0.6
		l-0.24-0.12l-0.42-0.18l-1.51-0.72h-0.06l-0.06-0.06c-1.15-0.42-2.17-0.72-2.53-1.03h-0.06v-0.06l-0.36-0.18l-0.3-0.06l-0.72-0.3
		L319,61.06l-0.18-0.36h-0.3l-0.6-0.42l-0.72-1.08l0.06-0.91l0.06,0.24c0.06-0.24,0.18-0.48,0.36-0.72
		c0.12-0.24,0.36-0.42,0.48-0.66l-0.06-0.06l0.78-1.15l0.42-0.48h0.12l0.24-0.42l0.36-0.24l0.3-0.42l0.36-0.24l0.24-0.24l0.6-0.18
		h0.06l0.18-0.24l0.36-0.18h0.06l1.21-0.72l0.54-0.3l0.54-0.48l0.18-0.12l0.36-0.3l0.24-0.18l0.12-0.3l0.24-0.12h0.42l0.42-0.06
		l1.21-0.36l0.78-0.12l0.36-0.06l0.18-0.06l1.03-0.3l0.18-0.12c0.96-0.12,1.09-0.42,1.39-0.54l0.42-0.3h0.24l0.66,0.06l0.3-0.12
		l0.3-0.06c0.12,0,0.24,0,0.42-0.06c0.54-0.12,1.27-0.3,2.05-0.36l0.36-0.12l0.48-0.18l0.24-0.12h0.84l0.42-0.12l1.03,0.18
		l0.42,0.12H340l0.06,0.06l0.6,0.12l0.18-0.06l0.78,0.24l0.6,0.42l0.18,0.24l0.12,0.24c0.12,0.3,0.18,0.66,0.3,1.09h0.12l-0.06,0.3
		L342.83,50.74z"/>
	<path d="M366.44,31.99h0.96l0.3-0.3l1.63-2.23l0.18-0.18l0.72-0.96l0.3-0.3l0.42-0.54l0.18-0.12l0.66-0.9v-0.12l0.24-0.24
		l0.12-0.24l0.12-0.18l-0.18,0.12h-0.06v-0.12l0.12-0.18l0.24-0.06v0.18l0.24-0.3l0.3-0.3l0.3-0.42l0.06-0.18l0.24-0.36l0.84-0.54
		l0.48-0.54l0.24-0.18l0.18-0.06l0.06-0.12v-0.06l0.06-0.06v0.06l0.36-0.78l0.42-0.42l0.84-0.06l0.48,0.84l0.06,0.84l-0.84,0.54
		l-0.6,0.54l-0.42,0.66l-0.3,0.42l-0.06,0.36l-1.93,1.81l-0.6,0.42l-2.41,2.59l-1.33,1.63l0.72-0.06l0.24-0.18h0.18l0.18,0.18
		l1.51-0.12v-0.12h4.04l1.75-0.18h1.81l0.18,0.18h0.48v0.18l1.57,0.12l0.54-0.12l0.84,0.18l1.03-0.12h0.42l0.54,0.06l0.72,0.18
		l0.42,0.06l0.48,0.06l1.51,0.42h0.12l0.48,0.12h0.78l0.48,0.24l1.33,0.18l0.24,0.06l0.36,0.3c0.24,0.06,0.48,0.12,0.72,0.24
		l0.06-0.06l0.06,0.06l1.57,0.6l0.12-0.06l0.06,0.12h0.06v0.06l0.9,0.42h0.12l0.18,0.12c0.06,0.06,0.12,0.12,0.24,0.12l0.3,0.06
		l0.72,0.36l0.18,0.3l0.54,0.42h0.24l0.24,0.24l0.06,0.12c0.36,0.24,0.66,0.54,0.97,0.78c0,0.06,0.06,0.06,0.06,0.12l0.18,0.06
		l0.42,0.6v0.06l0.12,0.12l0.36,0.12l0.12,0.12l-0.06,0.48l0.18,0.42l0.3,1.09l0.06,0.48c0,0.06,0.06,0.12,0.12,0.18
		c0,0.18,0,0.3-0.06,0.36l0.06,0.06l-0.18,0.36l-0.3-0.36l-0.06-0.18c-0.06-0.12-0.06-0.24-0.06-0.36l-0.42-0.84l-0.42-1.09
		l-0.12-0.24l-0.06-0.06l-0.36-0.54l-0.42-0.48c-0.06-0.06-0.06-0.06-0.06-0.12l-0.66-0.6l-0.24-0.12l-0.72-0.54l-0.06-0.06
		c-0.12-0.06-0.3-0.12-0.42-0.24l-0.18-0.06l-0.12-0.06l-0.48-0.3l-0.48-0.18l-0.36-0.12l-0.12-0.18l-0.06-0.06h-0.12l-0.18-0.12
		l-0.96-0.36l-1.15-0.12l-0.42-0.12l-0.72-0.36l-0.9-0.24c-0.97-0.24-1.99-0.36-3.02-0.54l-0.12,0.06l-1.03-0.18l-0.48-0.06h-0.6
		l-0.42,0.06l-1.09-0.18l-0.54-0.06l-0.36,0.06l-0.18-0.06l-0.72-0.12c-0.48-0.06-1.03-0.06-1.45-0.06l-0.24,0.06l-0.18-0.06
		c-0.36,0-0.66-0.06-0.96-0.06c-1.93,0-3.86,0-5.79,0.06l-0.42,0.06l-0.42,0.18v0.18h-0.24l-0.66,0.36h-0.24v0.18h-0.18l-0.91,0.36
		h-2.96c-0.36,0.48-0.78,0.9-1.09,1.33l-0.18,0.36l-0.36,0.3c-0.36,0.42-0.72,0.84-1.03,1.27l-0.06,0.18l-0.84,0.97l-0.91,1.39
		l-0.54,0.66l-1.03,1.15l-0.12,0.12l-1.93,2.59l-0.42,0.54l-1.21,1.51l-0.18,0.36l-0.3,0.3l-0.36,0.54l-0.42,0.72l-0.24,0.3
		l-0.42,0.48l-0.48,0.48l-0.36,0.48l-0.06,0.06l-0.18,0.24l-0.18,0.42l-0.91,1.27l-0.24,0.72l-2.83,3.92l-0.96,1.08l-1.27,1.33
		l-0.3,0.3l-0.6,0.66l-0.36,0.6l-0.12,0.42l-0.6,0.84l-0.48,1.09l-0.42,0.6l-0.84,1.08L344,66.19v0.36l-0.06,0.3l-0.48,0.78
		l-0.06,0.78l-0.24,0.66l-0.12,0.3l0.12,0.24l0.3,0.12l0.36-0.06l1.08-0.24l0.36-0.12l0.12-0.18l1.03-0.24l0.54-0.24l0.48-0.18
		l0.36-0.24l0.48-0.06l0.54-0.18l0.3-0.18h0.24l0.18-0.06l1.57-0.78l1.15-0.48v-0.06h0.12l0.18-0.3h0.18l0.36-0.12h0.18l0.18-0.18
		h0.18l1.75-0.78l0.6-0.36l0.24-0.06l2.83-1.33l0.6-0.36l0.42-0.18l0.72-0.3l0.96-0.48h0.06l0.3-0.36l0.66-0.36l0.72-0.24l0.84-0.3
		l1.63-0.84v-0.06h0.06l0.3-0.18l0.24-0.18l0.84-0.48h0.18v-0.12l0.36-0.06l0.3-0.24l0.18-0.18l0.3,0.06l0.12,0.3l0.06,0.12
		l-0.06,0.18l-0.18,0.18l-0.48,0.06l-0.18,0.18l-1.63,1.08l-0.48,0.24l-0.66,0.42l-0.9,0.48l-0.66,0.3l-0.6,0.18l-0.84,0.42
		l-0.42,0.24l-0.18,0.18l-0.66,0.36l-0.78,0.48l-1.03,0.42l-0.3,0.12l-0.54,0.48l-0.54,0.18l-0.6,0.24l-0.24,0.06l-0.36,0.3
		l-0.3,0.18l-0.3,0.06l-0.54,0.42l-0.18,0.12l-0.48,0.06l-0.42-0.06l-0.36,0.18l-1.15,0.6l-0.6,0.3l-0.84,0.36h-0.18l-0.72,0.36
		l-0.72,0.66l-0.6,0.36l-0.3,0.06h-0.06l0.06,0.12l-0.06,0.18l-0.24,0.06h-0.36l0.12-0.24l-0.24,0.06l-0.54,0.36l-0.18,0.18
		l-1.69,0.6l-2.23,0.66l-0.78-0.06l-0.18,0.06l-0.42-0.12l-0.24-0.06l-0.42-0.18l-0.18-0.36l-0.12-0.54
		c-0.06-0.24,0.06-0.72,0.06-0.96c0.06-0.48,0.24-1.09,0.54-1.81v-0.12l0.12-0.42l0.18-0.36l0.12-0.12v-0.3l0.12-0.18l0.3-0.36
		l0.12-0.18l0.36-0.48l0.6-1.09l0.12-0.18l0.12-0.48l0.12-0.36l0.18-0.24l0.36-0.42l0.36-0.54l0.18-0.42l0.24-0.36l0.3-0.24
		l0.06-0.12l0.42-0.36l0.54-0.48l0.3-0.42l0.06-0.24l0.12-0.3l0.42-0.24l0.78-1.08l0.06-0.18l0.18-0.18
		c0.24-0.3,0.48-0.66,0.78-0.96l0.36-0.54l0.48-0.66l0.36-0.54l0.36-0.48l0.18-0.12l0.12-0.18l0.24-0.3l0.06-0.06
		c0.12-0.18,0.3-0.3,0.36-0.48l0.06-0.12l0.18-0.24l0.12-0.12l0.18-0.24v-0.12l0.24-0.24v-0.3l0.97-1.27l0.24-0.12
		c0,0,0.06,0,0.06-0.06l0.06-0.3l0.66-0.84l0.18-0.12l0.24-0.48l0.48-0.42l2.23-3.2l0.3-0.24l0.96-1.27l0.12-0.12
		c0.24-0.24,0.48-0.6,0.72-0.96l0.06-0.06l0.12-0.18h0.06l0.96-1.27v-0.3l0.97-1.09l0.18-0.12l0.3-0.36l0.06-0.24l1.39-1.87
		l0.36-0.18l0.42-0.42v-0.06l0.24-0.24v-0.12l0.18-0.24l0.18-0.06l0.12-0.18v-0.06l0.12-0.24l0.06-0.18l0.54-0.72h-0.12l-0.36,0.18
		l-1.21,0.12l-0.72,0.12l-1.81,0.12l-1.87,0.24l-0.48,0.06l-0.54,0.06l-1.57,0.24l-0.48,0.12l-3.08,0.9l-0.54,0.3l-0.24,0.12
		l-0.72,0.12l-0.84-0.06l-1.09,0.78l-0.48,0.18l-1.21,0.24l-1.39-0.3l-0.48-0.54l-0.06-0.6l0.12-0.42h0.06
		c0-0.12,0.06-0.24,0.18-0.36h0.12l-0.06-0.12v-0.12l0.12,0.24c1.03-0.48,2.23-0.84,3.68-1.15l0.96-0.42l0.97-0.06l0.36,0.12
		l2.47-0.3l0.12-0.06h0.06l1.63-0.18l0.06-0.06h0.12l1.09-0.12l0.18,0.06h0.36l0.06-0.06h0.3l1.51-0.3l0.12-0.06l0.3-0.12h0.36
		l1.03-0.12l0.18-0.06l0.42,0.06c0.3-0.06,0.6-0.12,0.9-0.12l0.06-0.06h0.24h0.54L366.44,31.99z"/>
	<path d="M390.31,55.33l1.45-0.78L392,54.3l0.18-0.12l0.54-0.12l0.18-0.12l0.12-0.12l0.24-0.06l1.57-0.78l0.24-0.18l0.48-0.42
		l0.18,0.06l0.36-0.24l0.18-0.06l0.48-0.18l0.12-0.12l0.3-0.18l0.42-0.12h0.18l0.6-0.3c0.06,0,0.3-0.18,0.54-0.24l0.06-0.12
		l0.66-0.36l0.18-0.06l0.06-0.06l0.3-0.06l0.36-0.36h0.3l0.06,0.12c0.06,0,0.18-0.06,0.3-0.12l1.15-0.6l0.24,0.06l0.6-0.3l0.36-0.24
		l0.42-0.06l0.3-0.24l0.48-0.18l0.18-0.06l0.66,0.12l0.3-0.12h0.48c1.15-0.18,1.99,0,2.11,0.72v0.06h0.12l0.3,0.3v0.3h0.18
		l0.12,0.12l-0.12,0.12l-0.18,0.06l-0.12,0.3v0.6l-0.72,1.15l-0.3,1.57l-0.42,0.72l-0.42,0.24l-0.42,0.66l-0.42,0.72l-0.3,0.48h0.3
		l0.12,0.3l-0.3,0.42h-0.3v-0.3l-0.12,0.18l-0.3,0.24l-0.24,0.42v0.18l-0.18,0.06c-0.06,0.06-0.12,0.12-0.12,0.18v0.18l-0.18,0.18
		l-1.33,2.11l-0.06,0.06c-0.12,0.18-0.24,0.42-0.42,0.6l-0.06,0.24h-0.06l-0.42,0.66v0.06l-0.06,0.18l-0.18,0.24v0.18l-0.24,0.18
		v0.24l-0.6,0.54l-0.6,0.78l-0.3,0.72l-0.12,0.06l-0.24,0.36l-0.3,0.36l-1.57,2.23l-0.24,0.12l-0.12,0.24l-0.6,0.96l-0.3,0.18
		c0,0.06-0.06,0.12-0.12,0.18l-0.3,0.6l-0.24,0.18l-0.24,0.42v0.06l-0.06,0.06l-0.24,0.48v0.12l-0.18,0.06l-0.12,0.12l-0.18,0.36
		l-0.48,0.6l-0.3,0.36l-0.3,0.42l-0.06,0.18l-0.72,0.48l-0.96,1.33L392,76.26l-0.42,0.6l-0.54,0.6l-1.87,2.47l-0.18,0.6l-0.24,0.24
		l-0.42,0.06l-0.12-0.06l-0.42,0.72l-0.6,0.54l-0.12,0.06l-0.96,1.15l-0.54,0.66v-0.06l-0.66,0.78l-0.06,0.18l-0.48,0.72l-0.36,0.48
		l-0.3,0.24l-1.09,1.51v0.06l-0.3,0.66l-0.48,0.42c-0.96,1.33-1.87,2.71-2.71,4.16l-0.06,0.6l-0.36,0.42l-0.06,0.36l-0.18,0.12
		h-0.06l-1.27,2.77l-0.72,1.27l-0.78,1.63l-0.6,1.33l-0.3,0.6l-0.42,1.15l-0.06,0.18v0.18l-0.06,0.18l-0.06,0.36l-0.06,0.18
		l-0.06,0.24l0.06,0.24l-0.18,0.18l-0.18,1.09l-0.06,0.24l-0.24,0.66l-0.06,0.24l-0.24,0.72l-0.24,0.36l-0.06,0.36l-0.18,0.3h-0.12
		v1.57l0.24,1.08l0.18,0.72l0.12,0.84v0.54l-0.12,0.24v0.18l-0.06,1.03l-0.54,0.84h-0.18l-0.18-0.12l-0.18-0.36l-0.12,0.18
		l-0.3-0.06l-0.18-0.12l-0.06-0.06l0.18-0.3l0.12-1.45v-0.36l-0.06-0.3l-0.12-1.09v-0.48l0.18-0.79v-0.24l0.18-0.36v-0.24l0.12-0.18
		c0.06-0.48,0.18-0.9,0.3-1.33c0.12-0.36,0.24-0.66,0.3-1.03v-0.3l0.12-0.3c0,0,0.06,0,0.06-0.06l-0.06-0.54l0.06-0.24l0.24-0.42
		l0.12-0.12c0.3-1.21,0.72-2.41,1.15-3.56c0.12-0.42,0.24-0.79,0.42-1.15l0.54-1.75l0.24-0.36l0.42-0.66l0.42-0.9l0.18-0.36
		c0.72-1.33,1.45-2.65,2.23-3.92l0.3-0.66l0.24-0.3l0.66-1.03l0.12-0.24l0.36-0.54l0.54-0.79l0.3-0.54l0.24-0.3
		c0.06,0,0.06-0.06,0.12-0.12l0.18-0.3l0.24-0.36l1.51-2.11l0.06-0.06v-0.12l0.12-0.06l0.54-0.66v-0.12l0.3-0.3l0.12-0.3l0.36-0.36
		l0.36-0.54l0.3-0.48l0.18-0.18l0.36-0.42l0.3-0.6l0.48-0.54l0.3-0.24l3.14-3.92l0.12-0.48l0.6-0.54l0.24-0.18l0.72-1.09l0.18-0.12
		l0.24-0.24l0.18-0.3l0.54-0.72l0.36-0.42l0.42-0.48l1.27-1.69l0.06-0.06l0.18-0.36l0.84-1.27l0.3-0.54l1.15-1.57l0.6-0.9l1.69-2.35
		l1.45-2.41l0.42-0.6l0.42-0.78l1.45-2.05l0.84-1.39l0.72-0.9l0.06-0.12l0.36-0.84l0.06-0.24l0.18-0.42l-0.06-0.12h-0.18v-0.18h0.18
		l-0.3-0.9l-0.12-0.91l0.12-0.42l0.06-0.24l-0.3-0.18l-1.33-0.12l-1.45,0.12c-1.33,0.48-2.59,1.09-3.86,1.63l-3.86,1.93l-0.54,0.3
		l-0.24,0.06l-0.12,0.06l-0.06,0.12l-0.84,0.42h-0.18l-0.42,0.3L392,55.45l-0.18,0.12l-0.18,0.24l-0.24,0.12h-0.24l-0.12,0.06v0.12
		l-0.3,0.18l-0.12,0.18l-0.3-0.06l-0.18,0.12l-1.09,0.66l-0.3,0.06l-1.33,0.78l-0.48,0.18l-0.72,0.42l-0.3,0.06l-1.08,0.66
		l-0.18,0.18l-0.24,0.06l-0.12,0.12l-0.24,0.18l-0.12,0.06l-0.24,0.06l-0.42,0.24l-0.48,0.18l-0.48,0.3l-0.12,0.18l-0.54,0.3
		l-1.21,0.18l-0.84,0.42l-0.36,0.12h-0.24l-0.12,0.06v0.12l-0.18-0.06l0.06-0.06h-0.12c-0.36,0.18-0.78,0.24-1.15,0.36l-0.96,0.36
		l-0.84,0.3l-0.48,0.12h-0.54l-0.24-0.12l-0.18-0.18l-0.6-0.9c0-0.06-0.06-0.12-0.06-0.18c-0.24-0.66-0.06-1.75,0.66-3.44
		c0.24-0.6,0.6-1.21,0.9-1.81c0.3-0.54,0.48-0.91,1.03-1.57l0.24-0.36l0.24-0.66l0.42-0.78l0.12-0.36l0.36-0.78l1.15-1.21l0.72-1.15
		l0.42-0.36l0.24-0.18l0.12-0.24l-0.12-0.12h0.18v0.12l0.24-0.06v-0.06l0.12-0.24l0.6-0.42l0.66-0.12l0.06,0.06l0.18-0.12
		c0.12-0.06,0.18-0.06,0.3,0.06c0.06,0.06,0.12,0.12,0.12,0.18c0.06,0.06,0.06,0.12,0.06,0.12h0.06l-0.06,0.6l-0.18,0.54l-0.42,0.6
		l-0.54,0.78l-0.48,0.72v0.06l-0.48,0.36l-0.3,0.24l-3.2,3.02l-0.18,0.24c-0.36,0.54-0.78,1.09-1.15,1.69l-0.48,0.84l-0.12,0.54
		l-0.12,0.42l-0.12,0.18l-0.3,0.42l-0.06,0.18l-0.12,0.06h-0.06c-0.18,0.54-0.24,1.03-0.12,1.39c0.18,0.84,1.09,1.15,3.32,0.42
		l0.54-0.18l0.12-0.12l0.78-0.36l0.3-0.06h0.18l0.18-0.12h0.18l1.75-1.03l0.48-0.18l0.6-0.12l0.3-0.18l0.78-0.54l0.48-0.12
		l0.42-0.18l0.12-0.12h0.12l3.68-1.99l0.06-0.06l0.3-0.24l0.54-0.24l0.18-0.3h0.18L390.31,55.33z"/>
	<path d="M423.34,66.31c0.78-0.36,1.57-0.78,2.35-1.21l0.06-0.06l3.14-1.75l0.3-0.3l0.48-0.3l0.12-0.12l0.78-0.54l0.3-0.06
		l0.18-0.18l1.27-0.72h0.3l0.24-0.18l0.18-0.06l0.24-0.24l0.36-0.24l0.12,0.06l0.3-0.3l0.42-0.24l0.24-0.24l0.42-0.3l0.66-0.24
		l0.54-0.3c0.42-0.24,0.84-0.54,1.27-0.84c0.06-0.06,0.12-0.06,0.18-0.06l0.18-0.24h0.18l0.18,0.06l0.18,0.24l-0.06,0.24l-0.24,0.18
		L438,58.41l-0.18,0.12l-0.12,0.12h-0.12c-1.15,0.78-2.41,1.45-3.62,2.17l-0.42,0.42l-0.6,0.24l-0.42,0.24
		c-0.3,0.12-0.54,0.3-0.78,0.48c-0.42,0.24-0.78,0.9-1.21,1.15l-1.45,0.72l-0.42,0.3l-0.36,0.18l-0.78,0.48l-0.12,0.12l-0.18,0.12
		l-0.54,0.3l-0.84,0.54l-0.3,0.24l-0.78,0.3l-0.42,0.3l-0.18,0.12l-1.21,0.84l-0.36,0.48l-0.24,0.12l-0.48,0.48l-0.06,0.36
		l-0.18,0.12l-0.48-0.06l-0.36,0.18l-1.09,0.24l-1.15,0.24l-0.06-0.06l-0.78,0.42h-0.3l-0.12,0.12l-1.39,0.66h-0.18l-0.24,0.12h-0.3
		l-0.18,0.18l-0.24,0.12h-0.06l-0.24,0.06l-0.18-0.06h-0.18l-0.18-0.12l-0.24-0.12l-0.9-0.3l-0.24-0.06l-0.3-0.54
		c-0.24-0.36-0.54-0.91-0.6-1.39c-0.06-0.66,0-1.33,0.3-1.99h-0.18v-0.06h0.06l0.12-0.18l0.06-0.24l0.18-0.48l0.54-0.9l0.36-1.39
		l0.36-0.6l0.3-0.18l0.42-0.54l0.3-0.54l0.42-0.97h0.12l0.24-0.18l0.06-0.18l0.18-0.36l0.18-0.06l0.9-1.33l0.18-0.3l0.54-0.78
		l0.3-0.6l1.03-1.45l0.12-0.3l2.41-3.32l0.3-0.54l0.36-0.42v-0.18l0.6-0.84l0.24-0.3l0.12-0.24l0.96-1.33l0.3-0.18l0.18-0.36
		l0.12-0.06l0.18-0.24l0.06-0.12l0.24-0.36l0.06-0.06l0.18-0.24l0.12-0.24l0.36-0.36v-0.06l0.06-0.36l0.36-0.48l0.48-0.42l0.3-0.36
		l1.03-1.45V42.9l0.18-0.24l0.18-0.54l0.18-0.12h0.18c0.18-0.3,0.42-0.6,0.66-0.9l0.24-0.36l0.3-0.54l0.36-0.42l0.24-0.24l0.24-0.36
		l0.24-0.18c0.06-0.06,0.06-0.12,0.12-0.12v-0.18l0.24-0.3l0.24-0.24V37.9l0.24-0.24v-0.18l0.91-1.27l0.18-0.18l0.12-0.3l0.54-0.78
		l0.12-0.06l0.36-0.48l0.3-0.3l2.05-2.96l0.3-0.24l0.84-1.33l0.42-0.36l0.48-0.72l0.24-0.24l0.72-1.15l0.12-0.18v-0.06l0.24-0.18
		l0.06-0.12l0.12-0.3l0.12-0.18l-0.24,0.18l-0.06-0.12v-0.06l0.18-0.3l0.3-0.06v0.24l0.24-0.42l0.42-0.42l0.3-0.42l0.06-0.24
		l0.42-0.54l1.15-0.72l0.54-0.78l0.42-0.24l0.12-0.12l0.12-0.18v-0.06h0.06l0.12,0.06l0.24-0.06l0.24-0.24l0.42-0.3l0.3-0.18
		l0.12-0.24l-0.06-0.12h0.18l0.06,0.12l0.3-0.18l0.18,0.06l0.06-0.06c0.12-0.06,0.12-0.18,0.24-0.12h0.12l0.06-0.18v-0.18h0.18v0.06
		l0.3-0.06l0.36,0.06l0.24,0.36l0.3,0.6l-0.48,1.09l-0.78,0.66l-0.9,0.6l-0.24,0.36l-1.27,0.42l-0.3,0.18l-0.42,0.66l-0.84,0.72
		l-0.12,0.18l-0.96,0.97l-1.39,2.05l-0.6,0.48l-0.36,0.6l-0.78,0.84v0.06l-0.78,1.09l-0.42,0.36l-1.27,1.81l-0.78,0.78l-0.97,1.33
		l-1.21,1.69l-0.48,0.42l-2.47,3.62l-0.42,0.6l-0.42,0.72l-0.6,0.6l-0.66,0.78l-1.75,2.23l-0.06,0.36l-0.54,0.84l-0.18,0.06v0.24
		l-0.42,0.18l-0.06,0.42l-0.24,0.24l-0.24,0.18h-0.06l-1.15,1.69l-0.6,0.84l-0.12,0.42l-0.06,0.6l-0.18,0.24l-0.48,0.6l-0.3,0.12
		l-0.12,0.54l-0.48,0.48l-0.6,0.54l-0.54,0.96l-0.3,0.18l-0.54,0.78v0.12l-0.48,0.72l-0.72,1.03c0,0,0,0.06-0.06,0.06l-0.66,1.15
		c-0.06,0.06-0.12,0.12-0.12,0.18l-0.3,0.66l-0.42,0.78l-0.3,0.3l-1.51,2.83l-0.06,0.66l-0.12,0.3l-0.42,0.84l-0.24,0.24l-0.12,0.24
		l-0.06,0.84l0.12,0.36l0.24,0.24l0.12,0.18l0.18,0.06l0.54,0.3h0.48l0.84-0.24l0.24-0.18l0.54-0.12l0.18-0.12l0.66-0.3l1.15-0.42
		l0.18-0.12l0.6-0.18l0.36-0.24l0.84-0.36l0.54-0.3l1.15-0.6l1.03-0.3H423.34z"/>
	<path d="M442.61,61.6v0.3l-0.3,0.3l-0.18,0.24c-0.06,0-0.06,0.06-0.06,0.12v0.18l-0.24,0.36l-0.06,1.51
		c-0.06,0.06-0.12,0.9,0.12,1.21c0.36,0.42,0.18,0.42,1.69,0.9l1.03,0.24h0.78l0.91-0.12l4.4-0.96l0.84-0.36l2.35-0.78l0.48-0.3
		l0.24-0.12h0.12l3.62-1.51h0.24l0.42-0.24l0.54-0.12l1.99-0.72l0.24-0.06c2.17-0.91,3.02-1.45,5.13-2.41l1.33-0.48l0.06-0.12
		l0.36-0.18l1.09-0.36l1.15-0.48V57.5h0.18l0.72-0.36l0.06-0.12l3.26-1.99l0.3-0.06c0.42-0.24,0.84-0.54,1.33-0.9
		c0.12-0.12,0.3-0.06,0.36,0.06v-0.06l0.24-0.18l0.24,0.06l0.18,0.54l-0.3,0.12l-0.54,0.18l-0.3,0.12l-1.39,0.96l-0.3,0.42h-0.3
		l-0.24,0.12c-0.54,0.36-1.15,0.66-1.69,0.97l-0.06,0.06l-0.42,0.24l-0.24,0.18h-0.18l-1.93,0.96l-0.06,0.12l-0.24,0.06l-0.48,0.24
		l-0.12,0.06l-0.84,0.54l-2.29,0.96c-0.72,0.36-1.45,0.78-2.17,1.09l-0.18,0.18l-3.02,1.45l-0.24,0.18l-0.12-0.18l-0.66,0.42
		l-0.72,0.12l-0.48,0.24h-0.06c-0.78,0.36-1.57,0.66-2.35,0.96l-0.91,0.48l-1.87,0.91l-0.48,0.12l-0.72,0.12l-1.03,0.3l-0.6,0.06
		l-0.24,0.12l-0.24,0.18l-0.78,0.18h-0.12c-0.72,0.24-1.57,0.42-2.41,0.54l-0.18,0.18l-0.3,0.06h0.06l-1.21,0.24l-0.36-0.12
		l-0.66,0.24l-1.45-0.24l-1.33-0.66l-0.6-0.84l-0.3-0.78l-0.18-0.84V64.5l0.06-0.12l-0.06-0.12v-0.42l0.42-1.51l0.42-0.72l0.48-1.09
		l0.36-0.6l0.12-0.12l0.18-0.48l0.36-0.3l0.18-0.42l0.36-0.54l0.18-0.18l0.66-0.3l0.24-0.3l0.42-0.18l0.48-0.36l0.12-0.06l0.6-0.54
		l0.54-0.42l0.42-0.6l0.24-0.24l0.3-0.36l0.24-0.18l0.36-0.12l0.12-0.18l0.3-0.3l0.48-0.18l0.3-0.12c1.33-0.96,2.71-1.99,4.16-2.83
		l0.12-0.12l0.6-0.42l0.78-0.3c0.06,0,0.12,0,0.12-0.06l0.72-0.48l0.42-0.24l0.18-0.06l0.84-0.12c0.66-0.24,1.33-0.48,1.99-0.66
		l0.54-0.3h0.6l0.36-0.12l0.18,0.12c0.48,0,0.96,0,1.39,0.06l0.06-0.06l0.18-0.06l0.12,0.06l0.18-0.06l0.06-0.06l0.36,0.12v-0.06
		h0.06l-0.06,0.12l0.18,0.12h0.18l0.06,0.12h0.06l0.36,0.18l0.06,0.06c0.3,0.24,0.54,0.42,0.6,0.72l0.18,0.06l-0.06,0.12h0.06
		l-0.06,0.06v0.3l0.06,0.24l-0.12,0.42l-0.12,0.18v0.36l-0.24,0.91l-0.48,0.78l-0.6,0.6l-0.66,0.42l-0.54,0.36l-2.11,1.09l-0.3,0.24
		l-0.42,0.12c-1.39,0.96-2.9,1.81-4.4,2.59l-0.06,0.12l-1.75,0.84l-0.78,0.54l-1.57,0.66l-1.15,0.42l-1.63,0.3l-0.96,0.06h-0.42
		l-0.36-0.18l-0.12-0.3l0.12-0.18l0.42-0.84l0.84-0.78l0.78-0.3h0.48l0.42,0.12l0.48,0.12h0.78l0.72-0.12l0.78-0.3h0.24l0.12-0.18
		l1.75-0.6l1.63-0.78l0.78-0.42l0.3-0.36l0.78-0.3l0.12-0.24l0.91-0.3l0.24-0.24l0.78-0.6l2.71-2.29l0.24-0.3l0.12-0.42l0.12-0.18
		l0.3-0.91l-0.06-0.06l-0.06-0.12l-0.12-0.3l-0.3-0.36l-0.42-0.18l-0.42-0.12h-0.66l-0.42,0.06l-0.24-0.06
		c-1.63,0.36-3.38,1.27-4.4,1.75l-0.72,0.36l-0.18,0.18l-0.3,0.24l-0.24-0.06c-0.06,0.06-0.06,0.06-0.12,0.06v0.12l-0.36,0.12
		l-0.12,0.12h-0.12l-1.33,0.72l-0.66,0.54L451,53.4l-0.6,0.18l-0.24,0.12c-0.54,0.36-1.03,0.78-1.57,1.21l-0.3,0.36l-0.78,0.72
		l-0.42,0.42l-0.66,0.6l-0.84,0.84l-0.84,0.96l-0.18,0.18l-0.36,0.54l-0.42,0.6l-0.6,0.6L442.61,61.6z"/>
</g>
</svg>
